<svg width="100" height="100" viewBox="0 0 90 90" xmlns="http://www.w3.org/2000/svg">
  <path fill-rule="evenodd" clip-rule="evenodd" d="M45 1.5C20.9884 1.5 1.5 20.9884 1.5 45C1.5 69.0116 20.9884 88.5 45 88.5C69.0116 88.5 88.5 69.0116 88.5 45C88.5 20.9884 69.0116 1.5 45 1.5ZM45 0C20.16 0 0 20.16 0 45C0 69.84 20.16 90 45 90C69.84 90 90 69.84 90 45C90 20.16 69.84 0 45 0Z"
fill="#02A39F"/>
<path fill-rule="evenodd" clip-rule="evenodd" d="M58.1464 41.7704C60.6886 43.173 60.6886 46.827 58.1464 48.2296L40.4704 57.9819C38.012 59.3382 35 57.5599 35 54.7523L35 35.2477C35 32.4401 38.012 30.6618 40.4704 32.0181L58.1464 41.7704Z" 
fill="#02A39F"/>
  
</svg>