<svg id="icon-media-pause" xmlns="http://www.w3.org/2000/svg" width="14.4" height="18" viewBox="0 0 14.4 18">
  <path id="패스_5792" data-name="패스 5792" d="M4.114,0H2.057A1.972,1.972,0,0,0,.6.659,2.361,2.361,0,0,0,0,2.25v13.5a2.362,2.362,0,0,0,.6,1.591A1.972,1.972,0,0,0,2.057,18H4.114a1.972,1.972,0,0,0,1.455-.659,2.362,2.362,0,0,0,.6-1.591V2.25a2.361,2.361,0,0,0-.6-1.591A1.972,1.972,0,0,0,4.114,0Z" fill="#fff"/>
  <path id="패스_5793" data-name="패스 5793" d="M12.343,0H10.286A1.972,1.972,0,0,0,8.831.659a2.361,2.361,0,0,0-.6,1.591v13.5a2.362,2.362,0,0,0,.6,1.591A1.972,1.972,0,0,0,10.286,18h2.057a1.972,1.972,0,0,0,1.455-.659,2.362,2.362,0,0,0,.6-1.591V2.25A2.361,2.361,0,0,0,13.8.659,1.972,1.972,0,0,0,12.343,0Z" fill="#fff"/>
</svg>
