<svg width="20" height="24" viewBox="0 0 20 24" fill="none" xmlns="http://www.w3.org/2000/svg">
<path d="M0.5 2.00035V22.0004C0.499937 22.2228 0.559219 22.4412 0.671727 22.633C0.784235 22.8249 0.945896 22.9832 1.14003 23.0918C1.33416 23.2003 1.55374 23.2551 1.77611 23.2504C1.99847 23.2458 2.21557 23.1819 2.405 23.0654L18.655 13.0654C18.837 12.9535 18.9873 12.7969 19.0916 12.6105C19.1958 12.424 19.2506 12.214 19.2506 12.0004C19.2506 11.7867 19.1958 11.5767 19.0916 11.3902C18.9873 11.2038 18.837 11.0472 18.655 10.9354L2.405 0.935352C2.21557 0.818808 1.99847 0.754918 1.77611 0.750273C1.55374 0.745628 1.33416 0.800397 1.14003 0.908928C0.945896 1.01746 0.784235 1.17582 0.671727 1.36768C0.559219 1.55954 0.499937 1.77794 0.5 2.00035Z" fill="white"/>
</svg>
