<svg width="102" height="102" viewBox="0 0 102 102" fill="none" xmlns="http://www.w3.org/2000/svg">
<g id="video">
<circle id="Ellipse 2392" opacity="0.2" cx="51" cy="51" r="51" fill="white"/>
<g id="player-play-filled">
<path id="Vector" d="M35.5 30.3331V71.6664C35.4999 72.1261 35.6224 72.5774 35.8549 72.9739C36.0874 73.3704 36.4215 73.6977 36.8227 73.922C37.2239 74.1463 37.6777 74.2595 38.1373 74.2499C38.5968 74.2403 39.0455 74.1083 39.437 73.8674L73.0203 53.2008C73.3965 52.9696 73.7071 52.646 73.9226 52.2606C74.138 51.8753 74.2512 51.4412 74.2512 50.9998C74.2512 50.5583 74.138 50.1242 73.9226 49.7389C73.7071 49.3535 73.3965 49.0299 73.0203 48.7988L39.437 28.1321C39.0455 27.8912 38.5968 27.7592 38.1373 27.7496C37.6777 27.74 37.2239 27.8532 36.8227 28.0775C36.4215 28.3018 36.0874 28.6291 35.8549 29.0256C35.6224 29.4221 35.4999 29.8734 35.5 30.3331Z" fill="white"/>
</g>
</g>
</svg>
