<svg width="20" height="20" viewBox="0 0 20 20" fill="none" xmlns="http://www.w3.org/2000/svg">
<path d="M14.2847 12.9808L14.6271 13.5225L15.0693 13.0586C17.6628 10.3374 17.618 6.04024 14.9356 3.37356C12.2094 0.663407 7.7906 0.663414 5.0644 3.37356C2.38193 6.04025 2.33728 10.3374 4.93077 13.0586L5.37292 13.5225L5.71536 12.9808C6.60998 11.5655 8.19411 10.6252 10 10.6252C11.8059 10.6252 13.3901 11.5655 14.2847 12.9808ZM6.20203 13.8536L6.04896 14.1737L6.3006 14.4239L9.6475 17.7511L10 18.1016L10.3525 17.7511L13.6995 14.4239L13.9511 14.1737L13.798 13.8536C13.1229 12.4419 11.6757 11.4662 10 11.4662C8.32434 11.4662 6.87707 12.4419 6.20203 13.8536ZM10 19.295L4.45997 13.7876C4.45997 13.7876 4.45997 13.7876 4.45997 13.7876C1.40226 10.7478 1.40226 5.82072 4.45997 2.78101C7.51931 -0.260333 12.4807 -0.260339 15.5401 2.78101C18.5978 5.82072 18.5978 10.7478 15.5401 13.7876C15.5401 13.7876 15.5401 13.7876 15.5401 13.7876L10 19.295ZM10 7.8638C10.7848 7.8638 11.4259 7.2306 11.4259 6.44333C11.4259 5.65605 10.7848 5.02285 10 5.02285C9.21526 5.02285 8.57408 5.65605 8.57408 6.44333C8.57408 7.2306 9.21526 7.8638 10 7.8638ZM10 8.70476C8.7392 8.70476 7.72223 7.68954 7.72223 6.44333C7.72223 5.19715 8.73921 4.1819 10 4.1819C11.2608 4.1819 12.2778 5.19715 12.2778 6.44333C12.2778 7.68954 11.2608 8.70476 10 8.70476Z" fill="#FF6363" stroke="#FF6363"/>
</svg>
