<?xml version="1.0" encoding="utf-8"?>
<!-- Generator: Adobe Illustrator 23.0.1, SVG Export Plug-In . SVG Version: 6.00 Build 0)  -->
<svg height="10200px" version="1.1" width="720" xmlns="http://www.w3.org/2000/svg" style="overflow: hidden; position: relative; left: 0px;">
	<desc style="-webkit-tap-highlight-color: rgba(0, 0, 0, 0);">Created with Raphaël 2.0.2</desc>
	<defs style="-webkit-tap-highlight-color: rgba(0, 0, 0, 0);">

	</defs>
	<rect x="0" y="1012" width="719" height="49" r="7.5" rx="7.5" ry="7.5" fill="#ffe6cc" stroke="#d79b00" stroke-width="1" stroke-opacity="0.5" stroke-linejoin="round" transform="matrix(1,0,0,1,0,0)" style="-webkit-tap-highlight-color: rgba(0, 0, 0, 0); stroke-opacity: 0.5; stroke-linejoin: round;">

	</rect>
	<rect x="0" y="2042" width="719" height="49" r="7.5" rx="7.5" ry="7.5" fill="#ffe6cc" stroke="#d79b00" stroke-width="1" stroke-opacity="0.5" stroke-linejoin="round" transform="matrix(1,0,0,1,0,0)" style="-webkit-tap-highlight-color: rgba(0, 0, 0, 0); stroke-opacity: 0.5; stroke-linejoin: round;">

	</rect>
	<rect x="0" y="3012" width="719" height="49" r="7.5" rx="7.5" ry="7.5" fill="#ffe6cc" stroke="#d79b00" stroke-width="1" stroke-opacity="0.5" stroke-linejoin="round" transform="matrix(1,0,0,1,0,0)" style="-webkit-tap-highlight-color: rgba(0, 0, 0, 0); stroke-opacity: 0.5; stroke-linejoin: round;">

	</rect>
	<rect x="0" y="4012" width="719" height="49" r="7.5" rx="7.5" ry="7.5" fill="#ffe6cc" stroke="#d79b00" stroke-width="1" stroke-opacity="0.5" stroke-linejoin="round" transform="matrix(1,0,0,1,0,0)" style="-webkit-tap-highlight-color: rgba(0, 0, 0, 0); stroke-opacity: 0.5; stroke-linejoin: round;">

	</rect>
	<rect x="0" y="12" width="719" height="49" r="7.5" rx="7.5" ry="7.5" fill="#f5f5f5" stroke="#666666" stroke-width="1" stroke-opacity="0.5" stroke-linejoin="round" transform="matrix(1,0,0,1,0,0)" style="-webkit-tap-highlight-color: rgba(0, 0, 0, 0); stroke-opacity: 0.5; stroke-linejoin: round;">

	</rect>
</svg>