<?xml version="1.0" encoding="iso-8859-1"?>
<!-- Generator: Adobe Illustrator 23.0.4, SVG Export Plug-In . SVG Version: 6.00 Build 0)  -->
<svg version="1.1" id="Layer_1" xmlns="http://www.w3.org/2000/svg" xmlns:xlink="http://www.w3.org/1999/xlink" x="0px" y="0px"
	 viewBox="0 0 80 10200" width="80px" height="10200px" style="enable-background:new 0 0 80 10200; fill:transparent;" xml:space="preserve">
<rect x="2" y="1012" width="23" height="23"/>
<rect x="2" y="2012" width="23" height="23"/>
<rect x="2" y="3012" width="23" height="23"/>
<rect x="2" y="4012" width="23" height="23"/>
<rect x="2" y="5012" width="23" height="23"/>
<rect x="2" y="6012" width="23" height="23"/>
<rect x="2" y="12" width="23" height="23"/>
<path style="fill:#CCCCCC;" d="M66.8,6078.1c0-11.7,0-10.3,0-21.5h-8.7c0-7.5,0.7-14.4-1.8-19.7c-2.3-4.1-6.4-8-11-9.1
	c-9.1-2.3-17.4,3.4-20.8,9.1c-3,5.3-1.8,12.1-1.8,19c-3,0-5.3,0-8.7,0c0,4.6,0,8,0,16.7c0,11.7-1.8,17.8,6.4,20.8
	c5.3,1.8,15.1,0.7,20.8,0.7c6.4,0,15.5,1.1,20.8-0.7C67.3,6092,66.8,6085.6,66.8,6078.1z M50.6,6056.8c-3.4,0-7.5,0-11,0
	c-3,0-5.7,0-9.1,0c-0.7-10.3-0.7-19,7.5-21.5c5.3-1.1,9.8,1.8,11.7,6.4C51.3,6045.9,50.1,6051.1,50.6,6056.8z"/>
<g>
	<path style="fill:#FFD646;" d="M40.4,2027.3c16.4,0,29.8,13.3,29.8,29.8c0,16.4-13.3,29.8-29.8,29.8s-29.8-13.3-29.8-29.8
		C10.6,2040.5,23.9,2027.3,40.4,2027.3 M40.4,2022c-19.2,0-35,15.8-35,35s15.8,35,35,35s35-15.8,35-35S59.7,2022,40.4,2022
		L40.4,2022z"/>
</g>
<g>
	<path style="fill:#FFD646;" d="M40.4,3027.3c16.4,0,29.8,13.3,29.8,29.8c0,16.4-13.3,29.8-29.8,29.8s-29.8-13.3-29.8-29.8
		C10.7,3040.6,23.9,3027.3,40.4,3027.3 M40.4,3022c-19.2,0-35,15.8-35,35s15.8,35,35,35s35-15.8,35-35S59.7,3022,40.4,3022
		L40.4,3022z"/>
</g>
<g>
	<path style="fill:#E30613;" d="M40.4,4027.3c16.4,0,29.8,13.3,29.8,29.8c0,16.4-13.3,29.8-29.8,29.8s-29.8-13.3-29.8-29.8
		C10.7,4040.6,23.9,4027.3,40.4,4027.3 M40.4,4022c-19.2,0-35,15.8-35,35s15.8,35,35,35s35-15.8,35-35S59.7,4022,40.4,4022
		L40.4,4022z"/>
</g>
<g>
	<path style="fill:#008D36;" d="M40.4,5027.3c16.4,0,29.8,13.3,29.8,29.8s-13.3,29.8-29.8,29.8s-29.8-13.3-29.8-29.8
		S23.9,5027.3,40.4,5027.3 M40.4,5022c-19.2,0-35,15.8-35,35s15.8,35,35,35s35-15.8,35-35S59.7,5022,40.4,5022L40.4,5022z"/>
</g>
<rect x="2" y="9021" width="23" height="23"/>
<g>
	<path style="fill:#FFD646;" d="M40.4,9036.3c16.4,0,29.8,13.3,29.8,29.8s-13.3,29.8-29.8,29.8s-29.8-13.3-29.8-29.8
		S23.9,9036.3,40.4,9036.3 M40.4,9031c-19.2,0-35,15.8-35,35s15.8,35,35,35s35-15.8,35-35S59.7,9031,40.4,9031L40.4,9031z"/>
</g>
</svg>
