<?xml version="1.0" encoding="iso-8859-1"?>
<!-- Generator: Adobe Illustrator 23.0.4, SVG Export Plug-In . SVG Version: 6.00 Build 0)  -->
<svg version="1.1" id="Layer_1" xmlns="http://www.w3.org/2000/svg" xmlns:xlink="http://www.w3.org/1999/xlink" x="0px" y="0px"
	 viewBox="0 0 90 10200" width="90px" height="10200px" style="enable-background:new 0 0 90 10200; fill:transparent;" xml:space="preserve">
<rect x="2" y="1012" width="23" height="23"/>
<rect x="2" y="2012" width="23" height="23"/>
<rect x="2" y="3012" width="23" height="23"/>
<rect x="2" y="4012" width="23" height="23"/>
<rect x="2" y="5012" width="23" height="23"/>
<rect x="2" y="6012" width="23" height="23"/>
<rect x="2" y="12" width="23" height="23"/>
<path style="fill:#CCCCCC;" d="M76.8,6087.7c0-13.9,0-12.2,0-25.5H66.5c0-9,0.8-17.1-2.2-23.4c-2.7-4.9-7.6-9.5-13-10.9
	c-10.9-2.7-20.7,4.1-24.7,10.9c-3.5,6.3-2.2,14.4-2.2,22.6c-3.5,0-6.3,0-10.3,0c0,5.4,0,9.5,0,19.8c0,13.9-2.2,21.2,7.6,24.7
	c6.3,2.2,17.9,0.8,24.7,0.8c7.6,0,18.5,1.4,24.7-0.8C77.4,6104.3,76.8,6096.6,76.8,6087.7z M57.5,6062.4c-4.1,0-9,0-13,0
	c-3.5,0-6.8,0-10.9,0c-0.8-12.2-0.8-22.6,9-25.5c6.3-1.4,11.7,2.2,13.9,7.6C58.3,6049.4,57,6055.6,57.5,6062.4z"/>
<g>
	<path style="fill:#FFD646;" d="M45.4,2028c18.8,0,34,15.2,34,34s-15.2,34-34,34s-34-15.2-34-34C11.4,2043.2,26.6,2028,45.4,2028
		 M45.4,2022c-22,0-40,18-40,40s18,40,40,40s40-18,40-40S67.4,2022,45.4,2022L45.4,2022z"/>
</g>
<g>
	<path style="fill:#FFD646;" d="M45.4,3028c18.8,0,34,15.2,34,34s-15.2,34-34,34s-34-15.2-34-34S26.6,3028,45.4,3028 M45.4,3022
		c-22,0-40,18-40,40s18,40,40,40s40-18,40-40S67.4,3022,45.4,3022L45.4,3022z"/>
</g>
<g>
	<path style="fill:#E30613;" d="M45.4,4028c18.8,0,34,15.2,34,34s-15.2,34-34,34s-34-15.2-34-34S26.6,4028,45.4,4028 M45.4,4022
		c-22,0-40,18-40,40s18,40,40,40s40-18,40-40S67.4,4022,45.4,4022L45.4,4022z"/>
</g>
<g>
	<path style="fill:#008D36;" d="M45.4,5028c18.8,0,34,15.2,34,34s-15.2,34-34,34s-34-15.2-34-34S26.6,5028,45.4,5028 M45.4,5022
		c-22,0-40,18-40,40s18,40,40,40s40-18,40-40S67.4,5022,45.4,5022L45.4,5022z"/>
</g>
<rect x="2" y="9021" width="23" height="23"/>
<g>
	<path style="fill:#FFD646;" d="M45.4,9037c18.8,0,34,15.2,34,34s-15.2,34-34,34s-34-15.2-34-34S26.6,9037,45.4,9037 M45.4,9031
		c-22,0-40,18-40,40s18,40,40,40s40-18,40-40S67.4,9031,45.4,9031L45.4,9031z"/>
</g>
</svg>
