<?xml version="1.0" encoding="utf-8"?>
<!-- Generator: Adobe Illustrator 23.0.1, SVG Export Plug-In . SVG Version: 6.00 Build 0)  -->
<svg version="1.1" id="Layer_1" xmlns="http://www.w3.org/2000/svg" xmlns:xlink="http://www.w3.org/1999/xlink" x="0px" y="0px"
	 viewBox="0 0 50 10200" width="50px" height="10200px" style="enable-background:new 0 0 50 10200; fill:transparent;" xml:space="preserve">
<style type="text/css">
	.st0{fill:#363636;}
	.st1{fill:#CCCCCC;}
	.st2{fill:#7F7F7F;}
	.st3{fill:#E30613;}
	.st4{fill:#008D36;}
           .st5{fill:#000000;}
</style>
<rect x="2" y="12" width="23" height="23"/>
<rect x="2" y="1012" width="23" height="23"/>
<rect x="2" y="6212" width="23" height="23"/>
<rect x="2" y="2012" width="23" height="23"/>
<g>
	<polygon class="st5" points="13.2,2030.3 5.5,2022.9 7.6,2020.7 12.9,2025.9 21.9,2014.5 24.2,2016.4 	"/>
</g>
<rect x="2" y="3012" width="23" height="23"/>
<rect x="2" y="4012" width="23" height="23"/>
<rect x="2" y="5012" width="23" height="23"/>
<g>
	<path class="st0" d="M2.8,23.5c0-2.9,1-5.4,3.1-7.5s4.6-3.1,7.6-3.1s5.5,1,7.5,3.1c2.1,2.1,3.1,4.6,3.1,7.5S23,28.9,21,31
		s-4.6,3.1-7.5,3.1c-3,0-5.5-1-7.6-3.1S2.8,26.4,2.8,23.5z M23.2,23.5c0-2.7-1-5-2.8-7c-1.9-1.9-4.2-2.9-6.8-2.9
		c-2.7,0-4.9,1-6.8,2.9s-2.9,4.2-2.9,7s0.9,5.1,2.9,7c1.9,1.9,4.2,2.9,6.8,2.9s4.9-0.9,6.8-2.9C22.2,28.6,23.2,26.2,23.2,23.5z
		 M12.9,18.6c0.3,0,0.5,0,0.7,0c0.2,0.1,0.4,0.1,0.6,0.2c0.2,0.1,0.3,0.2,0.4,0.3c0.1,0.1,0.1,0.2,0.1,0.4c0,0.1,0,0.2-0.1,0.2
		c-0.1,0.1-0.1,0.2-0.1,0.2c1.1,0.2,2.1,0.6,2.9,1.4c0.8,0.8,1.2,1.7,1.2,2.7c0,1.1-0.5,2.2-1.4,3s-2.2,1.2-3.6,1.2S11,27.8,10.1,27
		c-1-0.9-1.5-1.9-1.5-3c0-1,0.4-1.9,1.1-2.6c0.8-0.8,1.7-1.3,2.8-1.5c0.1,0,0.2,0,0.3-0.1c0.1,0,0.2-0.1,0.3-0.3
		c0-0.1-0.1-0.1-0.2-0.2c-0.1-0.1-0.2-0.1-0.2-0.2c-0.1,0-0.1-0.1-0.1-0.1c-0.1,0-0.1-0.1-0.1-0.2c0,0,0-0.1,0.1-0.1
		C12.7,18.7,12.7,18.6,12.9,18.6z M16.8,24c0-0.9-0.3-1.7-0.9-2.3c-0.6-0.6-1.4-1-2.2-1s-1.5,0.3-2.2,1s-1,1.4-1,2.3
		c0,1,0.3,1.9,1,2.4c0.6,0.6,1.4,0.9,2.2,0.9s1.6-0.3,2.2-0.9C16.5,25.8,16.8,25,16.8,24z"/>
</g>
<g>
	<path class="st0" d="M2.8,1023.5c0-2.9,1-5.4,3.1-7.5s4.6-3.1,7.6-3.1s5.5,1,7.5,3.1c2.1,2.1,3.1,4.6,3.1,7.5s-1.1,5.4-3.1,7.5
		s-4.6,3.1-7.5,3.1c-3,0-5.5-1-7.6-3.1S2.8,1026.4,2.8,1023.5z M23.2,1023.5c0-2.7-1-5-2.8-7c-1.9-1.9-4.2-2.9-6.8-2.9
		c-2.7,0-4.9,1-6.8,2.9s-2.9,4.2-2.9,7c0,2.8,0.9,5.1,2.9,7c1.9,1.9,4.2,2.9,6.8,2.9s4.9-0.9,6.8-2.9
		C22.2,1028.6,23.2,1026.2,23.2,1023.5z M12.9,1018.6c0.3,0,0.5,0,0.7,0c0.2,0.1,0.4,0.1,0.6,0.2c0.2,0.1,0.3,0.2,0.4,0.3
		c0.1,0.1,0.1,0.2,0.1,0.4c0,0.1,0,0.2-0.1,0.2c-0.1,0.1-0.1,0.2-0.1,0.2c1.1,0.2,2.1,0.6,2.9,1.4c0.8,0.8,1.2,1.7,1.2,2.7
		c0,1.1-0.5,2.2-1.4,3s-2.2,1.2-3.6,1.2s-2.6-0.4-3.5-1.2c-1-0.9-1.5-1.9-1.5-3c0-1,0.4-1.9,1.1-2.6c0.8-0.8,1.7-1.3,2.8-1.5
		c0.1,0,0.2,0,0.3-0.1c0.1,0,0.2-0.1,0.3-0.3c0-0.1-0.1-0.1-0.2-0.2c-0.1-0.1-0.2-0.1-0.2-0.2c-0.1,0-0.1-0.1-0.1-0.1
		c-0.1,0-0.1-0.1-0.1-0.2c0,0,0-0.1,0.1-0.1C12.7,1018.7,12.7,1018.6,12.9,1018.6z M16.8,1024c0-0.9-0.3-1.7-0.9-2.3s-1.4-1-2.2-1
		s-1.5,0.3-2.2,1s-1,1.4-1,2.3c0,1,0.3,1.9,1,2.4c0.6,0.6,1.4,0.9,2.2,0.9s1.6-0.3,2.2-0.9C16.5,1025.8,16.8,1025,16.8,1024z"/>
</g>
<g>
	<path class="st0" d="M2.8,2023.5c0-2.9,1-5.4,3.1-7.5s4.6-3.1,7.6-3.1s5.5,1,7.5,3.1c2.1,2.1,3.1,4.6,3.1,7.5s-1.1,5.4-3.1,7.5
		s-4.6,3.1-7.5,3.1c-3,0-5.5-1-7.6-3.1S2.8,2026.4,2.8,2023.5z M23.2,2023.5c0-2.7-1-5-2.8-7c-1.9-1.9-4.2-2.9-6.8-2.9
		c-2.7,0-4.9,1-6.8,2.9s-2.9,4.2-2.9,7s0.9,5.1,2.9,7c1.9,1.9,4.2,2.9,6.8,2.9s4.9-0.9,6.8-2.9C22.2,2028.6,23.2,2026.2,23.2,2023.5
		z M12.9,2018.6c0.3,0,0.5,0,0.7,0c0.2,0.1,0.4,0.1,0.6,0.2c0.2,0.1,0.3,0.2,0.4,0.3c0.1,0.1,0.1,0.2,0.1,0.4c0,0.1,0,0.2-0.1,0.2
		c-0.1,0.1-0.1,0.2-0.1,0.2c1.1,0.2,2.1,0.6,2.9,1.4c0.8,0.8,1.2,1.7,1.2,2.7c0,1.1-0.5,2.2-1.4,3s-2.2,1.2-3.6,1.2
		s-2.6-0.4-3.5-1.2c-1-0.9-1.5-1.9-1.5-3c0-1,0.4-1.9,1.1-2.6c0.8-0.8,1.7-1.3,2.8-1.5c0.1,0,0.2,0,0.3-0.1c0.1,0,0.2-0.1,0.3-0.3
		c0-0.1-0.1-0.1-0.2-0.2c-0.1-0.1-0.2-0.1-0.2-0.2c-0.1,0-0.1-0.1-0.1-0.1c-0.1,0-0.1-0.1-0.1-0.2c0,0,0-0.1,0.1-0.1
		C12.7,2018.7,12.7,2018.6,12.9,2018.6z M16.8,2024c0-0.9-0.3-1.7-0.9-2.3c-0.6-0.6-1.4-1-2.2-1s-1.5,0.3-2.2,1s-1,1.4-1,2.3
		c0,1,0.3,1.9,1,2.4c0.6,0.6,1.4,0.9,2.2,0.9s1.6-0.3,2.2-0.9C16.5,2025.8,16.8,2025,16.8,2024z"/>
</g>
<g>
	<path class="st0" d="M2.8,3023.5c0-2.9,1-5.4,3.1-7.5s4.6-3.1,7.6-3.1s5.5,1,7.5,3.1c2.1,2.1,3.1,4.6,3.1,7.5s-1.1,5.4-3.1,7.5
		s-4.6,3.1-7.5,3.1c-3,0-5.5-1-7.6-3.1S2.8,3026.4,2.8,3023.5z M23.2,3023.5c0-2.7-1-5-2.8-7c-1.9-1.9-4.2-2.9-6.8-2.9
		c-2.7,0-4.9,1-6.8,2.9s-2.9,4.2-2.9,7s0.9,5.1,2.9,7c1.9,1.9,4.2,2.9,6.8,2.9s4.9-0.9,6.8-2.9C22.2,3028.6,23.2,3026.2,23.2,3023.5
		z M12.9,3018.6c0.3,0,0.5,0,0.7,0c0.2,0.1,0.4,0.1,0.6,0.2c0.2,0.1,0.3,0.2,0.4,0.3c0.1,0.1,0.1,0.2,0.1,0.4c0,0.1,0,0.2-0.1,0.2
		c-0.1,0.1-0.1,0.2-0.1,0.2c1.1,0.2,2.1,0.6,2.9,1.4c0.8,0.8,1.2,1.7,1.2,2.7c0,1.1-0.5,2.2-1.4,3s-2.2,1.2-3.6,1.2
		s-2.6-0.4-3.5-1.2c-1-0.9-1.5-1.9-1.5-3c0-1,0.4-1.9,1.1-2.6c0.8-0.8,1.7-1.3,2.8-1.5c0.1,0,0.2,0,0.3-0.1c0.1,0,0.2-0.1,0.3-0.3
		c0-0.1-0.1-0.1-0.2-0.2c-0.1-0.1-0.2-0.1-0.2-0.2c-0.1,0-0.1-0.1-0.1-0.1c-0.1,0-0.1-0.1-0.1-0.2c0,0,0-0.1,0.1-0.1
		C12.7,3018.7,12.7,3018.6,12.9,3018.6z M16.8,3024c0-0.9-0.3-1.7-0.9-2.3s-1.4-1-2.2-1s-1.5,0.3-2.2,1s-1,1.4-1,2.3
		c0,1,0.3,1.9,1,2.4c0.6,0.6,1.4,0.9,2.2,0.9s1.6-0.3,2.2-0.9C16.5,3025.8,16.8,3025,16.8,3024z"/>
</g>
<g>
	<path class="st0" d="M2.8,4023.5c0-2.9,1-5.4,3.1-7.5s4.6-3.1,7.6-3.1s5.5,1,7.5,3.1c2.1,2.1,3.1,4.6,3.1,7.5s-1.1,5.4-3.1,7.5
		s-4.6,3.1-7.5,3.1c-3,0-5.5-1-7.6-3.1S2.8,4026.4,2.8,4023.5z M23.2,4023.5c0-2.7-1-5-2.8-7c-1.9-1.9-4.2-2.9-6.8-2.9
		c-2.7,0-4.9,1-6.8,2.9s-2.9,4.2-2.9,7s0.9,5.1,2.9,7c1.9,1.9,4.2,2.9,6.8,2.9s4.9-0.9,6.8-2.9C22.2,4028.6,23.2,4026.2,23.2,4023.5
		z M12.9,4018.6c0.3,0,0.5,0,0.7,0c0.2,0.1,0.4,0.1,0.6,0.2c0.2,0.1,0.3,0.2,0.4,0.3c0.1,0.1,0.1,0.2,0.1,0.4c0,0.1,0,0.2-0.1,0.2
		c-0.1,0.1-0.1,0.2-0.1,0.2c1.1,0.2,2.1,0.6,2.9,1.4c0.8,0.8,1.2,1.7,1.2,2.7c0,1.1-0.5,2.2-1.4,3s-2.2,1.2-3.6,1.2
		s-2.6-0.4-3.5-1.2c-1-0.9-1.5-1.9-1.5-3c0-1,0.4-1.9,1.1-2.6c0.8-0.8,1.7-1.3,2.8-1.5c0.1,0,0.2,0,0.3-0.1c0.1,0,0.2-0.1,0.3-0.3
		c0-0.1-0.1-0.1-0.2-0.2c-0.1-0.1-0.2-0.1-0.2-0.2c-0.1,0-0.1-0.1-0.1-0.1c-0.1,0-0.1-0.1-0.1-0.2c0,0,0-0.1,0.1-0.1
		C12.7,4018.7,12.7,4018.6,12.9,4018.6z M16.8,4024c0-0.9-0.3-1.7-0.9-2.3s-1.4-1-2.2-1s-1.5,0.3-2.2,1s-1,1.4-1,2.3
		c0,1,0.3,1.9,1,2.4c0.6,0.6,1.4,0.9,2.2,0.9s1.6-0.3,2.2-0.9C16.5,4025.8,16.8,4025,16.8,4024z"/>
</g>
<g>
	<path class="st0" d="M2.8,5023.5c0-2.9,1-5.4,3.1-7.5s4.6-3.1,7.6-3.1s5.5,1,7.5,3.1c2.1,2.1,3.1,4.6,3.1,7.5s-1.1,5.4-3.1,7.5
		s-4.6,3.1-7.5,3.1c-3,0-5.5-1-7.6-3.1S2.8,5026.4,2.8,5023.5z M23.2,5023.5c0-2.7-1-5-2.8-7c-1.9-1.9-4.2-2.9-6.8-2.9
		c-2.7,0-4.9,1-6.8,2.9s-2.9,4.2-2.9,7s0.9,5.1,2.9,7c1.9,1.9,4.2,2.9,6.8,2.9s4.9-0.9,6.8-2.9C22.2,5028.6,23.2,5026.2,23.2,5023.5
		z M12.9,5018.6c0.3,0,0.5,0,0.7,0c0.2,0.1,0.4,0.1,0.6,0.2c0.2,0.1,0.3,0.2,0.4,0.3c0.1,0.1,0.1,0.2,0.1,0.4c0,0.1,0,0.2-0.1,0.2
		c-0.1,0.1-0.1,0.2-0.1,0.2c1.1,0.2,2.1,0.6,2.9,1.4c0.8,0.8,1.2,1.7,1.2,2.7c0,1.1-0.5,2.2-1.4,3s-2.2,1.2-3.6,1.2
		s-2.6-0.4-3.5-1.2c-1-0.9-1.5-1.9-1.5-3c0-1,0.4-1.9,1.1-2.6c0.8-0.8,1.7-1.3,2.8-1.5c0.1,0,0.2,0,0.3-0.1c0.1,0,0.2-0.1,0.3-0.3
		c0-0.1-0.1-0.1-0.2-0.2c-0.1-0.1-0.2-0.1-0.2-0.2c-0.1,0-0.1-0.1-0.1-0.1c-0.1,0-0.1-0.1-0.1-0.2c0,0,0-0.1,0.1-0.1
		C12.7,5018.7,12.7,5018.6,12.9,5018.6z M16.8,5024c0-0.9-0.3-1.7-0.9-2.3c-0.6-0.6-1.4-1-2.2-1s-1.5,0.3-2.2,1s-1,1.4-1,2.3
		c0,1,0.3,1.9,1,2.4c0.6,0.6,1.4,0.9,2.2,0.9s1.6-0.3,2.2-0.9C16.5,5025.8,16.8,5025,16.8,5024z"/>
</g>
<g>
	<path class="st0" d="M2.8,6223.5c0-2.9,1-5.4,3.1-7.5s4.6-3.1,7.6-3.1s5.5,1,7.5,3.1c2.1,2.1,3.1,4.6,3.1,7.5s-1.1,5.4-3.1,7.5
		s-4.6,3.1-7.5,3.1c-3,0-5.5-1-7.6-3.1S2.8,6226.4,2.8,6223.5z M23.2,6223.5c0-2.7-1-5-2.8-7c-1.9-1.9-4.2-2.9-6.8-2.9
		c-2.7,0-4.9,1-6.8,2.9s-2.9,4.2-2.9,7s0.9,5.1,2.9,7c1.9,1.9,4.2,2.9,6.8,2.9s4.9-0.9,6.8-2.9C22.2,6228.6,23.2,6226.2,23.2,6223.5
		z M12.9,6218.6c0.3,0,0.5,0,0.7,0c0.2,0.1,0.4,0.1,0.6,0.2c0.2,0.1,0.3,0.2,0.4,0.3c0.1,0.1,0.1,0.2,0.1,0.4c0,0.1,0,0.2-0.1,0.2
		c-0.1,0.1-0.1,0.2-0.1,0.2c1.1,0.2,2.1,0.6,2.9,1.4c0.8,0.8,1.2,1.7,1.2,2.7c0,1.1-0.5,2.2-1.4,3s-2.2,1.2-3.6,1.2
		s-2.6-0.4-3.5-1.2c-1-0.9-1.5-1.9-1.5-3c0-1,0.4-1.9,1.1-2.6c0.8-0.8,1.7-1.3,2.8-1.5c0.1,0,0.2,0,0.3-0.1c0.1,0,0.2-0.1,0.3-0.3
		c0-0.1-0.1-0.1-0.2-0.2c-0.1-0.1-0.2-0.1-0.2-0.2c-0.1,0-0.1-0.1-0.1-0.1c-0.1,0-0.1-0.1-0.1-0.2c0,0,0-0.1,0.1-0.1
		C12.7,6218.7,12.7,6218.6,12.9,6218.6z M16.8,6224c0-0.9-0.3-1.7-0.9-2.3c-0.6-0.6-1.4-1-2.2-1s-1.5,0.3-2.2,1s-1,1.4-1,2.3
		c0,1,0.3,1.9,1,2.4c0.6,0.6,1.4,0.9,2.2,0.9s1.6-0.3,2.2-0.9C16.5,6225.8,16.8,6225,16.8,6224z"/>
</g>
<g>
	<polygon class="st1" points="13.2,1030.3 5.5,1022.9 7.6,1020.7 12.9,1025.9 21.9,1014.5 24.2,1016.4 	"/>
</g>
<g>
	<polygon points="13.2,2030.3 5.5,2022.9 7.6,2020.7 12.9,2025.9 21.9,2014.5 24.2,2016.4 	"/>
</g>
<rect x="2" y="9034" width="23" height="23"/>
<g>
	<polygon points="13.2,9052.3 5.5,9044.9 7.6,9042.7 12.9,9047.9 21.9,9036.5 24.2,9038.4 	"/>
</g>
<g>
	<path class="st0" d="M2.8,9045.5c0-2.9,1-5.4,3.1-7.5s4.6-3.1,7.6-3.1s5.5,1,7.5,3.1c2.1,2.1,3.1,4.6,3.1,7.5s-1.1,5.4-3.1,7.5
		s-4.6,3.1-7.5,3.1c-3,0-5.5-1-7.6-3.1S2.8,9048.4,2.8,9045.5z M23.2,9045.5c0-2.7-1-5-2.8-7c-1.9-1.9-4.2-2.9-6.8-2.9
		c-2.7,0-4.9,1-6.8,2.9s-2.9,4.2-2.9,7s0.9,5.1,2.9,7c1.9,1.9,4.2,2.9,6.8,2.9s4.9-0.9,6.8-2.9C22.2,9050.6,23.2,9048.2,23.2,9045.5
		z M12.9,9040.6c0.3,0,0.5,0,0.7,0c0.2,0.1,0.4,0.1,0.6,0.2c0.2,0.1,0.3,0.2,0.4,0.3c0.1,0.1,0.1,0.2,0.1,0.4c0,0.1,0,0.2-0.1,0.2
		c-0.1,0.1-0.1,0.2-0.1,0.2c1.1,0.2,2.1,0.6,2.9,1.4c0.8,0.8,1.2,1.7,1.2,2.7c0,1.1-0.5,2.2-1.4,3s-2.2,1.2-3.6,1.2
		s-2.6-0.4-3.5-1.2c-1-0.9-1.5-1.9-1.5-3c0-1,0.4-1.9,1.1-2.6c0.8-0.8,1.7-1.3,2.8-1.5c0.1,0,0.2,0,0.3-0.1c0.1,0,0.2-0.1,0.3-0.3
		c0-0.1-0.1-0.1-0.2-0.2c-0.1-0.1-0.2-0.1-0.2-0.2c-0.1,0-0.1-0.1-0.1-0.1c-0.1,0-0.1-0.1-0.1-0.2c0,0,0-0.1,0.1-0.1
		C12.7,9040.7,12.7,9040.6,12.9,9040.6z M16.8,9046c0-0.9-0.3-1.7-0.9-2.3c-0.6-0.6-1.4-1-2.2-1s-1.5,0.3-2.2,1s-1,1.4-1,2.3
		c0,1,0.3,1.9,1,2.4c0.6,0.6,1.4,0.9,2.2,0.9s1.6-0.3,2.2-0.9C16.5,9047.8,16.8,9047,16.8,9046z"/>
</g>
<g>
	<polygon class="st5" points="13.2,9052.3 5.5,9044.9 7.6,9042.7 12.9,9047.9 21.9,9036.5 24.2,9038.4 	"/>
</g>
<g>
	<polygon class="st2" points="13.2,3030.3 5.5,3022.9 7.6,3020.7 12.9,3025.9 21.9,3014.5 24.2,3016.4 	"/>
</g>
<g>
	<polygon class="st3" points="13.2,4030.3 5.5,4022.9 7.6,4020.7 12.9,4025.9 21.9,4014.5 24.2,4016.4 	"/>
</g>
<g>
	<polygon class="st4" points="13.2,5030.3 5.5,5022.9 7.6,5020.7 12.9,5025.9 21.9,5014.5 24.2,5016.4 	"/>
</g>
<path class="st1" d="M18.1,6226.5c0-2,0-1.8,0-3.7h-1.5c0-1.3,0.1-2.5-0.3-3.4c-0.4-0.7-1.1-1.4-1.9-1.6c-1.6-0.4-3,0.6-3.6,1.6
	c-0.5,0.9-0.3,2.1-0.3,3.3c-0.5,0-0.9,0-1.5,0c0,0.8,0,1.4,0,2.9c0,2-0.3,3.1,1.1,3.6c0.9,0.3,2.6,0.1,3.6,0.1
	c1.1,0,2.7,0.2,3.6-0.1C18.2,6228.9,18.1,6227.8,18.1,6226.5z M15.3,6222.8c-0.6,0-1.3,0-1.9,0c-0.5,0-1,0-1.6,0
	c-0.1-1.8-0.1-3.3,1.3-3.7c0.9-0.2,1.7,0.3,2,1.1C15.4,6220.9,15.2,6221.8,15.3,6222.8z"/>
</svg>
