<?xml version="1.0" encoding="utf-8"?>
<!-- Generator: Adobe Illustrator 23.0.1, SVG Export Plug-In . SVG Version: 6.00 Build 0)  -->
<svg version="1.1" id="Layer_1" xmlns="http://www.w3.org/2000/svg" xmlns:xlink="http://www.w3.org/1999/xlink" x="0px" y="0px"
	 viewBox="0 0 8 8" style="enable-background:new 0 0 8 8;" xml:space="preserve">
<style type="text/css">
	.st0{fill:#353535;stroke:#353535;stroke-width:0.25;stroke-miterlimit:10;}
</style>
<rect x="1.1" y="3.7" class="st0" width="5.9" height="0.5"/>
<path class="st0" d="M4,2.6c-0.2,0-0.4-0.1-0.5-0.2C3.4,2.3,3.3,2.2,3.3,2c0-0.1,0-0.1,0.1-0.2c0-0.1,0.1-0.1,0.2-0.2
	c0.1,0,0.1-0.1,0.2-0.1c0.1,0,0.2-0.1,0.2-0.1c0.2,0,0.4,0.1,0.5,0.2C4.7,1.7,4.7,1.9,4.7,2c0,0.1,0,0.2-0.1,0.2
	c0,0.1-0.1,0.1-0.2,0.2C4.5,2.5,4.4,2.5,4.3,2.6C4.2,2.6,4.1,2.6,4,2.6z"/>
<path class="st0" d="M4,6.6c-0.2,0-0.4-0.1-0.5-0.2C3.4,6.2,3.3,6.1,3.3,5.9c0-0.1,0-0.1,0.1-0.2c0-0.1,0.1-0.1,0.2-0.2
	c0.1,0,0.1-0.1,0.2-0.1c0.1,0,0.2,0,0.2,0c0.2,0,0.4,0.1,0.5,0.2c0.1,0.1,0.2,0.3,0.2,0.4c0,0.1,0,0.2-0.1,0.2
	c0,0.1-0.1,0.1-0.2,0.2C4.5,6.4,4.4,6.5,4.3,6.5C4.2,6.5,4.1,6.6,4,6.6z"/>
</svg>
