<svg width="32" height="33" viewBox="0 0 32 33" fill="none" xmlns="http://www.w3.org/2000/svg">
<path d="M4.86493 20.2885V13.0695L8.14628 12.4133L14.0527 6.50684V26.195L8.14628 20.2885H4.86493Z" fill="white"/>
<path d="M20.5892 10.2608C20.1253 9.91281 19.4671 10.0068 19.1192 10.4708C18.7712 10.9347 18.8652 11.5929 19.3292 11.9408L20.5892 10.2608ZM19.3292 20.7611C18.8652 21.109 18.7712 21.7672 19.1192 22.2311C19.4671 22.6951 20.1253 22.7891 20.5892 22.4412L19.3292 20.7611ZM8.14631 20.2886L8.97515 19.6439C8.77622 19.3882 8.47034 19.2386 8.14631 19.2386V20.2886ZM4.20868 18.976H3.15865H4.20868ZM8.14631 12.4133V13.4634C8.47034 13.4634 8.77622 13.3138 8.97515 13.058L8.14631 12.4133ZM12.7402 6.50689L13.569 7.15155C13.609 7.10024 13.644 7.04533 13.6738 6.98753L12.7402 6.50689ZM14.709 7.16317L13.6738 6.98753C13.6639 7.04556 13.659 7.10431 13.659 7.16317H14.709ZM14.709 25.5388H13.659C13.659 25.5976 13.6639 25.6564 13.6738 25.7144L14.709 25.5388ZM12.7402 26.195L13.6738 25.7144C13.644 25.6566 13.609 25.6017 13.569 25.5504L12.7402 26.195ZM19.3292 11.9408C20.0138 12.4543 20.5695 13.1201 20.9522 13.8856L22.8306 12.9464C22.3021 11.8894 21.5347 10.9699 20.5892 10.2608L19.3292 11.9408ZM20.9522 13.8856C21.335 14.6511 21.5342 15.4951 21.5342 16.351H23.6343C23.6343 15.1691 23.3591 14.0035 22.8306 12.9464L20.9522 13.8856ZM21.5342 16.351C21.5342 17.2068 21.335 18.0508 20.9522 18.8163L22.8306 19.7555C23.3591 18.6984 23.6343 17.5328 23.6343 16.351H21.5342ZM20.9522 18.8163C20.5695 19.5818 20.0138 20.2476 19.3292 20.7611L20.5892 22.4412C21.5347 21.732 22.3021 20.8125 22.8306 19.7555L20.9522 18.8163ZM8.14631 19.2386H5.52122V21.3386H8.14631V19.2386ZM5.52122 19.2386C5.4516 19.2386 5.38483 19.2109 5.3356 19.1617L3.85063 20.6466C4.2937 21.0897 4.89463 21.3386 5.52122 21.3386V19.2386ZM5.3356 19.1617C5.28637 19.1124 5.25871 19.0457 5.25871 18.976H3.15865C3.15865 19.6026 3.40756 20.2036 3.85063 20.6466L5.3356 19.1617ZM5.25871 18.976V13.7259H3.15865V18.976H5.25871ZM5.25871 13.7259C5.25871 13.6563 5.28637 13.5895 5.3356 13.5403L3.85063 12.0553C3.40756 12.4984 3.15865 13.0993 3.15865 13.7259H5.25871ZM5.3356 13.5403C5.38483 13.491 5.4516 13.4634 5.52122 13.4634V11.3633C4.89463 11.3633 4.2937 11.6122 3.85063 12.0553L5.3356 13.5403ZM5.52122 13.4634H8.14631V11.3633H5.52122V13.4634ZM8.97515 13.058L13.569 7.15155L11.9114 5.86224L7.31746 11.7687L8.97515 13.058ZM13.6738 6.98753L13.6738 6.98753L12.8816 5.04262C12.4174 5.2317 12.0361 5.5806 11.8066 6.02626L13.6738 6.98753ZM13.6738 6.98753L13.6738 6.98753L14.3379 4.99524C13.8623 4.83673 13.3458 4.85353 12.8816 5.04262L13.6738 6.98753ZM13.6738 6.98753L13.6738 6.98753L15.4745 5.90692C15.2166 5.47712 14.8134 5.15375 14.3379 4.99524L13.6738 6.98753ZM13.6738 6.98753L13.6738 6.98753L15.7443 7.3388C15.8281 6.84461 15.7324 6.33672 15.4745 5.90692L13.6738 6.98753ZM13.659 7.16317V25.5388H15.759V7.16317H13.659ZM13.6738 25.7144L13.6738 25.7144L15.4745 26.795C15.7324 26.3652 15.8281 25.8573 15.7443 25.3631L13.6738 25.7144ZM13.6738 25.7144L13.6738 25.7144L14.3379 27.7067C14.8134 27.5482 15.2166 27.2248 15.4745 26.795L13.6738 25.7144ZM13.6738 25.7144L13.6738 25.7144L12.8816 27.6593C13.3458 27.8484 13.8623 27.8652 14.3379 27.7067L13.6738 25.7144ZM13.6738 25.7144L13.6738 25.7144L11.8066 26.6757C12.0361 27.1213 12.4174 27.4702 12.8816 27.6593L13.6738 25.7144ZM13.569 25.5504L8.97515 19.6439L7.31746 20.9332L11.9114 26.8397L13.569 25.5504Z" fill="white"/>
<path d="M24.031 6.50973C23.6702 6.21813 23.1413 6.27426 22.8497 6.6351C22.5581 6.99593 22.6142 7.52484 22.9751 7.81644L24.031 6.50973ZM22.9751 24.8853C22.6142 25.1769 22.5581 25.7058 22.8497 26.0667C23.1413 26.4275 23.6702 26.4836 24.031 26.192L22.9751 24.8853ZM22.9751 7.81644C24.2479 8.84502 25.2745 10.1453 25.9798 11.622L27.4958 10.8979C26.6825 9.19514 25.4987 7.6958 24.031 6.50973L22.9751 7.81644ZM25.9798 11.622C26.685 13.0987 27.051 14.7144 27.051 16.3509H28.7311C28.7311 14.4639 28.309 12.6007 27.4958 10.8979L25.9798 11.622ZM27.051 16.3509C27.051 17.9873 26.685 19.6031 25.9798 21.0798L27.4958 21.8038C28.309 20.101 28.7311 18.2379 28.7311 16.3509H27.051ZM25.9798 21.0798C25.2745 22.5565 24.2479 23.8567 22.9751 24.8853L24.031 26.192C25.4987 25.006 26.6825 23.5066 27.4958 21.8038L25.9798 21.0798Z" fill="white"/>
</svg>
