<svg width="32" height="32" viewBox="0 0 32 32" fill="none" xmlns="http://www.w3.org/2000/svg">
<path d="M7.87525 5.25041V26.2511C7.87519 26.4846 7.93743 26.714 8.05557 26.9154C8.17371 27.1169 8.34346 27.2832 8.54731 27.3971C8.75115 27.5111 8.98172 27.5686 9.21521 27.5637C9.4487 27.5588 9.67666 27.4917 9.87557 27.3694L26.9386 16.869C27.1297 16.7516 27.2875 16.5872 27.397 16.3914C27.5065 16.1956 27.564 15.9751 27.564 15.7508C27.564 15.5264 27.5065 15.3059 27.397 15.1101C27.2875 14.9143 27.1297 14.7499 26.9386 14.6325L9.87557 4.13213C9.67666 4.00975 9.4487 3.94266 9.21521 3.93779C8.98172 3.93291 8.75115 3.99042 8.54731 4.10438C8.34346 4.21834 8.17371 4.38463 8.05557 4.58609C7.93743 4.78754 7.87519 5.01687 7.87525 5.25041Z" fill="white"/>
</svg>
