<svg width="14" height="14" viewBox="0 0 14 14" fill="none" xmlns="http://www.w3.org/2000/svg">
<g clip-path="url(#clip0_6951_5249)">
<path d="M4.71431 0.333008H3.1905C2.78636 0.333008 2.39877 0.508602 2.113 0.821163C1.82723 1.13372 1.66669 1.55765 1.66669 1.99967V11.9997C1.66669 12.4417 1.82723 12.8656 2.113 13.1782C2.39877 13.4907 2.78636 13.6663 3.1905 13.6663H4.71431C5.11845 13.6663 5.50603 13.4907 5.7918 13.1782C6.07757 12.8656 6.23812 12.4417 6.23812 11.9997V1.99967C6.23812 1.55765 6.07757 1.13372 5.7918 0.821163C5.50603 0.508602 5.11845 0.333008 4.71431 0.333008Z" fill="#1E78FF"/>
<path d="M10.8095 0.333008H9.28573C8.8816 0.333008 8.49401 0.508602 8.20824 0.821163C7.92247 1.13372 7.76193 1.55765 7.76193 1.99967V11.9997C7.76193 12.4417 7.92247 12.8656 8.20824 13.1782C8.49401 13.4907 8.8816 13.6663 9.28573 13.6663H10.8095C11.2137 13.6663 11.6013 13.4907 11.887 13.1782C12.1728 12.8656 12.3334 12.4417 12.3334 11.9997V1.99967C12.3334 1.55765 12.1728 1.13372 11.887 0.821163C11.6013 0.508602 11.2137 0.333008 10.8095 0.333008Z" fill="#1E78FF"/>
</g>
<defs>
<clipPath id="clip0_6951_5249">
<rect width="13.3333" height="13.3333" fill="white" transform="translate(0.333344 0.333008)"/>
</clipPath>
</defs>
</svg>
