<svg width="32" height="32" viewBox="0 0 32 32" fill="none" xmlns="http://www.w3.org/2000/svg">
<path d="M12.9699 6.5498H10.8098C10.2369 6.5498 9.68753 6.79872 9.28243 7.24179C8.87734 7.68486 8.64977 8.28579 8.64977 8.91238V23.0878C8.64977 23.7144 8.87734 24.3154 9.28243 24.7584C9.68753 25.2015 10.2369 25.4504 10.8098 25.4504H12.9699C13.5428 25.4504 14.0922 25.2015 14.4973 24.7584C14.9024 24.3154 15.13 23.7144 15.13 23.0878V8.91238C15.13 8.28579 14.9024 7.68486 14.4973 7.24179C14.0922 6.79872 13.5428 6.5498 12.9699 6.5498Z" fill="white"/>
<path d="M21.6102 6.5498H19.4501C18.8772 6.5498 18.3278 6.79872 17.9227 7.24179C17.5176 7.68486 17.29 8.28579 17.29 8.91238V23.0878C17.29 23.7144 17.5176 24.3154 17.9227 24.7584C18.3278 25.2015 18.8772 25.4504 19.4501 25.4504H21.6102C22.1831 25.4504 22.7325 25.2015 23.1376 24.7584C23.5427 24.3154 23.7702 23.7144 23.7702 23.0878V8.91238C23.7702 8.28579 23.5427 7.68486 23.1376 7.24179C22.7325 6.79872 22.1831 6.5498 21.6102 6.5498Z" fill="white"/>
</svg>
