<svg width="102" height="102" viewBox="0 0 102 102" fill="none" xmlns="http://www.w3.org/2000/svg">
<circle opacity="0.2" cx="51" cy="51" r="51" fill="white"/>
<path d="M43.2503 30.334H38.0837C36.7134 30.334 35.3992 30.8783 34.4303 31.8473C33.4613 32.8162 32.917 34.1304 32.917 35.5007V66.5007C32.917 67.8709 33.4613 69.1851 34.4303 70.154C35.3992 71.123 36.7134 71.6673 38.0837 71.6673H43.2503C44.6206 71.6673 45.9348 71.123 46.9037 70.154C47.8726 69.1851 48.417 67.8709 48.417 66.5007V35.5007C48.417 34.1304 47.8726 32.8162 46.9037 31.8473C45.9348 30.8783 44.6206 30.334 43.2503 30.334Z" fill="white"/>
<path d="M63.917 30.334H58.7503C57.38 30.334 56.0659 30.8783 55.0969 31.8473C54.128 32.8162 53.5837 34.1304 53.5837 35.5007V66.5007C53.5837 67.8709 54.128 69.1851 55.0969 70.154C56.0659 71.123 57.38 71.6673 58.7503 71.6673H63.917C65.2873 71.6673 66.6014 71.123 67.5704 70.154C68.5393 69.1851 69.0837 67.8709 69.0837 66.5007V35.5007C69.0837 34.1304 68.5393 32.8162 67.5704 31.8473C66.6014 30.8783 65.2873 30.334 63.917 30.334Z" fill="white"/>
</svg>
