<?xml version="1.0" encoding="utf-8"?>
<!-- Generator: Adobe Illustrator 26.0.1, SVG Export Plug-In . SVG Version: 6.00 Build 0)  -->
<svg version="1.1" id="레이어_1" xmlns="http://www.w3.org/2000/svg" xmlns:xlink="http://www.w3.org/1999/xlink" x="0px"
	 y="0px" viewBox="0 0 80 80" style="enable-background:new 0 0 80 80;" xml:space="preserve">
<path id="O" style="fill:#DB0316;" d="M57.6,70L57.6,70l0.2-0.1L57.6,70z M53.5,59.2l0.2,0.2v0L53.5,59.2z M79.1,19.5h-0.3l0.2-0.2
	L79.1,19.5z M78.7,26c-0.2,0-0.1,0-0.2-0.1L78.7,26z M78.8,23.9l0.2-0.2v0.2l0.1,0.2l-0.2-0.1V23.9z M78.8,24.5l0.2,0.1
	C78.8,24.6,78.9,24.6,78.8,24.5 M78.4,27.5l0.1-0.2C78.5,27.5,78.6,27.3,78.4,27.5 M78.4,15.5l-0.3,0.2v-0.2l0.1,0.1L78.4,15.5z
	 M77.7,30.5l0.1,0.2l-0.2,0.2l-0.1-0.5L77.7,30.5z M76.9,32.6l-0.2-0.1l-0.1-0.2L76.9,32.6z M76.9,19.3l-0.2,0.2v-0.2H76.9z
	 M76.4,20.3l0.4,0.2c-0.2,0.4-0.4,0.4-0.1,0.7l-0.4,0.4h0.5l-0.5,0.6l0.3,0.1c-0.2,0.1-0.3,0.1-0.5,0.2c0,0.3,0.2,0.3,0.2,0.6
	c0.2,0.1,0.1,0,0.2-0.1l0.2,0.2c-0.3,0.1-0.5,0.2-0.8,0.2l0.5,0.5c-0.2,0.1-0.3,0.1-0.5,0.2v0.2c0.2,0.1,0.3,0.3,0.5,0.4
	c-0.1,0.5,0,0.7-0.5,0.6l0.4,0.6c-0.2,0-0.4-0.1-0.6-0.1l0.2,0.5c0.4,0.1-0.1,0.1,0.2,0.3c-0.3,0.3-0.2,0.2-0.6,0.1l-0.1,0.1
	l0.5,0.3l-0.8,0.2c0.2,0.1,0.4,0.2,0.6,0.3h-0.7c0,0.4,0.3,0.3,0.5,0.6h-0.5c0.2,0.1,0.3,0.2,0.5,0.3l-0.7,0.2l0.7,0.6
	c-0.3,0.7-0.4,0.6-0.2,1c-0.3,0.2-0.2,0.1-0.2,0.5l-0.2-0.1l0.2-0.5L74.9,30l-0.3,0.4c-0.1,0.2,0.1,0.1,0.2,0.2l-0.6,0.2l0.3,0.4
	c0,0.1,0,0.1,0.1,0.6L73.6,32l-0.1,0.2l0.5,0.4l0.1,0.2c-0.3,0-0.5-0.1-0.8-0.1c0.1,0.2,0.6,0.6,0.4,0.6c-0.2,0.3-0.4,0.1-0.6,0.2
	l0.4,0.6l0.2,0.4l-0.4-0.1l0.4,0.2l-0.5,0.1l0.2,0.3L72.6,35c0.1,0.3,0.1,0.1-0.3,0.2c0,0.3,0.2,0.2-0.1,0.3l0.5,0.4v0.1
	c-0.4,0.3-0.1-0.1-0.3,0.4l-0.6-0.1v0.1l0.4,0.3c-0.3,0-0.5-0.1-0.8-0.1l0.5,0.5L71.3,37c0.1,0.3,0.3,0.7,0.4,1
	c-0.2-0.1-0.5-0.2-0.7-0.2c0.1,0.2,0.3,0.3,0.4,0.5l-0.8-0.2c0.1,0.3,0.3,0.6,0.4,1l-0.1,0.1L70.3,39l0.3,0.5L70,39.2l-0.1,0.1
	l0.6,0.8l-0.1,0.1L70,39.9c0.1,0.2,0.1,0.3,0.2,0.5l-0.8-0.3l0.2,0.4l-0.3,0.1c0.2,0.1,0.4,0.3,0.5,0.4h-0.7c0.1,0.1,0.1,0,0.1,0.2
	c-0.3,0.3-0.1,0-0.5,0.2l0.3,0.2l0.2,0.1c-0.2,0-0.5,0.1-0.7,0.1c-0.1,0.3-0.1,0.5,0.2,0.6l-0.1,0.4l-0.5-0.2l0.1,0.2l-0.6-0.1
	l-0.1,0.1c0.2,0.3,0.4,0.6,0.5,0.9l-0.7-0.5l-0.1,0.1l0.3,0.6l-0.2-0.2l0.2,0.3l-0.5,0.1l0.2,0.4c-0.3-0.1-0.5-0.1-0.8-0.2v0.1
	l0.3,0.2c-0.4,0.2-0.2,0.1-0.6,0.1c0.1,0.2,0.2,0.3,0.3,0.5h0.2l-0.6,0.1l0.3,0.2c-0.2,0.1-0.4,0.1-0.5,0.2v0.1
	c-0.3,0.2-0.1,0.1-0.6,0.2l0.2,0.4L65,46.2v0.2l0.5,0.4c-0.2,0-0.3-0.1-0.5-0.1v1.1l-0.3-0.4c0,0.2,0.1,0.3,0.1,0.5l-0.5-0.4
	L64,47.7c0.1,0.2,0.2,0.4,0.2,0.6L64,48.1c-0.1,0.4-0.2,0.7-0.2,1.1c-0.4,0.2-0.9,0.2-1.3,0.1l0.5,0.9l-0.4-0.3l0.2,0.3l-0.5-0.1
	L62.1,50c0,0.3,0.1,0.5,0.2,0.8l-0.1,0.1c-0.3-0.1-0.5-0.2-0.8-0.2l0.5,0.5L61,51c0.1,0.4,0.3,0.8,0.4,1.2c-0.2-0.1-0.4-0.2-0.5-0.3
	c0.1,0.1-0.5,0.4-0.8,0.5c0.1,0.2,0.2,0.4,0.3,0.6l-0.7-0.3l-0.1,0.1l0.2,0.9l-0.2-0.2c0.2,0.3,0.1,0.2,0.4,0.2
	c-0.3,0.3-0.1,0.1-0.6,0.1l0.2,0.3L59,53.9l0.2,0.3c-0.4,0-0.2,0.2-0.4-0.1l-0.3,0.1l0.2,0.3c-0.2-0.1-0.4-0.1-0.6-0.2l-0.1,0.4
	c-0.1,0.2-0.3,0.4-0.5,0.6l0.5,0.2c-0.3,0.3-0.2,0.1-0.8,0.1l0.2,0.4l-0.7-0.2V56l0.5,0.3c-0.8-0.2-0.8,0.1-1.2,0.3l0.3,0.2v0.2
	L55.7,57c0.2,0.4-0.3,0.6-0.7,0.6l0.2,0.2L55.2,58l-0.5-0.2h-0.1c0.1,0.2,0.3,0.4,0.4,0.6l0.1,0.2l-0.8-0.4c0.1,0.2,0.2,0.4,0.3,0.6
	l-0.7-0.3v0.3c-0.2,0.3,0,0.3,0.2,0.7l-0.3-0.2l0.1,0.3l-0.7-0.3l-0.1,0.1c0.1,0.3,0.2,0.5,0.2,0.8l-0.5-0.4v0.9l-0.2-0.2l0.2,0.4
	l-0.5-0.3c0,0.3-0.1,0.5-0.2,0.8L51.5,61c0,0.4-0.1,0.6,0.2,1l-0.5-0.2c0.1,0.6,0,0.3-0.5,0.2l0.4,0.3l-0.2-0.2
	c-0.4,0.1,0,0.1-0.5,0.1l-0.1,0.3l0.3,0.5l-0.6-0.4l0.2,0.4l-0.6-0.2c0.1,0.6,0.4,0.6,0.2,1c-0.1-0.4,0-0.4-0.5-0.3l0.4,0.2
	c-0.2,0.2-0.4-0.1-0.6-0.3v0.6c0.1,0.1-0.6,0.4-0.8,0.6v0.2l-1,0.2l0.3,0.2c-0.3,0-0.5,0.1-0.8,0.1l0.2,0.2c-0.2,0-0.5,0.1-0.7,0.1
	c0.1,0.2,0.1,0.5,0.2,0.7c-0.2,0-0.5-0.1-0.7-0.1c0.2,0.3,0,0.5-0.2,0.6h-0.6v0.1l0.3,0.1l-0.4-0.1c-0.2,0.2-0.3,0.3-0.5,0.5h0.2
	v0.3l-0.8-0.1c0.2,0.2,0.1,0,0.1,0.2c-0.3,0.1-0.6,0.3-0.8,0.6l-0.5-0.2l-0.2-0.1l0.3,0.3c-0.6,0.1-1.3-0.1-1.8-0.5l-0.3,0.4V68
	l-0.7-0.2c0.2,0.2,0.4,0.4,0.5,0.6L39.9,68l-0.2,0.3l-0.3-0.1l0.2-0.3l-0.4-0.2L39,68c-0.3-0.5-0.6,0.1-1-0.5
	c-0.1,0.2-0.1,0.3-0.2,0.5l-0.5-0.4c0.1,0.3-0.1,0.1,0.2,0.2L37.4,68c-0.3-0.1-0.4-0.3-0.5-0.6c-0.3,0.2-0.1,0-0.2,0.3
	c-0.5-0.1-2.7-0.2-3-1.1h-0.2l0.2,0.5c-1.4-0.5-2.5-0.8-3.7-1.1l-0.1,0.1v-0.2c-0.6-0.1-1.2-0.2-1.9-0.3c0.3,0.3,0,0.2,0.4,0.2
	l-0.1,0.3l-0.6-0.5c0.3,0,0.1,0.1,0.3-0.2c-0.8,0.2-1.6-0.2-2.1-0.8l0.2,0.4c-1.2-0.1-2.3-0.6-3.3-1.3l0.2,0.4l-0.1,0.1l-1.2-0.8
	l-0.1,0.2l-0.1,0.2c-0.3-0.4-0.2-0.3-0.1-0.6c-0.8,0.1-1.5-0.3-2-0.9l-0.1,0.3c-0.4-0.3-0.4-0.3-0.6-0.2l0.2-0.4l-0.3-0.3v0.4
	c-0.5-0.3-1-0.6-1.5-0.9l-0.2,0.4c-0.2-0.5-0.9-1-1.2-0.7v-0.2c-0.4-0.4-0.3-0.3-0.6-0.2c-0.1-0.2-0.2-0.3-0.2-0.5l0.2,0.1l-0.1-0.4
	c-0.3,0.2-0.3,0.2-0.6,0.1c-0.9-0.1-1.5-1.1-2.1-1.8c0,0.2,0.1,0.4,0.1,0.6c-0.5-0.4-1-1.6-1.7-1.2c-0.1-0.3-0.1-0.5-0.2-0.8
	l-0.2,0.4C10,56,8,54.8,7.5,53.5c-0.6,0.3-1.1-1.1-0.9-1.5c-0.8,0-1.3-1.3-1.4-1.6s0-0.1,0.2-0.5c-0.6,0-0.7-0.5-0.6-1.1L4.5,49
	c-0.1-0.5-0.3-0.4-0.1-0.8c-0.1-0.3-0.4-0.5-0.7-0.5c0.2-0.3,0.3-0.7,0.5-1c-0.6-0.2-1-0.7-1.1-1.3c0.4,0.2,0.3,0.1,0.7-0.2L3.8,45
	l-0.3,0.1c0-0.4-0.1-0.8-0.1-1.2L3.1,44c0.2-0.4,0.1-0.8-0.2-1c0.2-0.3,0.4-0.6,0.6-0.9C3.3,42,3.1,42,2.8,41.9
	c0.1-0.5,0.1-0.3,0.5-0.6c-0.3-0.4-0.3-0.1,0-0.5c-0.4-0.3-0.5-0.3-0.6-0.7c0.3-0.2,0.5-0.5,0.8-0.7l-0.6-0.2l0.7-0.4l-0.4-0.5
	c-0.1-0.5-0.2-0.9-0.3-1.4c0.4,0.2,0.3,0.1,0.7-0.2l-0.6-0.6l0.2-0.8c0.1,0.1,0.1,0.4,0.4,0.6l0.5-0.2c-0.3-0.5-0.6-1.1-0.6-1.7
	c0.3,0.2,0.2,0.1,0.5,0.1c0.2-0.1,0.2-0.2,0.5-0.5c-0.5-0.4-0.5-0.8-0.5-1.5L4,32.2l0.2-0.1c-0.1,0.4,0.1,0.1-0.2,0.3l0.1,0.3h0.4
	l0.3-0.2c-0.3-0.2-0.5-0.5-0.5-0.9c0.1-0.2,0.3-0.4,0.4-0.6l0.2-0.2L4.5,31c-0.1-0.3,0-0.1,0.2-0.2l-0.4-0.4l1,0.2
	c-0.5-1,0-1,0.7-1.5c-0.5-0.2-0.5-0.1-0.5-0.6l-0.2-0.2l0.6,0.3l-0.4-0.5c0.3-0.2,0.1,0.1,0.2-0.2l0.5,0.2L6,27.8
	c0.2-0.3,0.3-0.7,0.5-1l0.2,0.3c0-0.6,1-1.3,1.1-1.4c-0.4-0.4-0.3-0.6-0.2-1l0.2,0.4l0.7-0.2l-0.5-0.6l0.8-0.2
	c-0.2-0.2-0.4-0.5-0.6-0.7L8.9,24c-0.1-0.3-0.3-0.5-0.4-0.8c0.3-0.1,0.1-0.1,0.4-0.4L9.1,23l0.5-0.2l0.1-0.2l-0.4,0.1
	c0-0.2,0.1-0.4,0.1-0.6L9.5,22l0.2,0.4l0.6-0.2l-0.4-0.5l1.2-0.2c-0.5-0.4-0.1-0.8-0.2-1.6l0.1-0.2h0.2v0.6h0.2
	c0.2-0.1,0.4-0.2,0.5-0.2c-0.3-0.2-0.2-0.1-0.4-0.4h-0.2l0.4-0.2l0.2,0.5h0.1C12,19.5,12,19.3,11.9,19c0.5-0.1,0.3,0,0.4-0.4
	c0.1,0.2,0.2,0.4,0.3,0.6l0.6-0.4l-0.5-0.4c0.4-0.1,0.3,0,0.7,0.2c0-0.2,0.1-0.4,0.1-0.5l-0.1,0l0.1-0.4l0.1,0.2
	c0.3-0.4,0.8-0.7,1.3-0.7l-0.2-0.1c0-0.3,0-0.1,0.2-0.2l-0.4-0.4c0.2-0.2,0.2-0.1,0.3-0.5l0.3-0.2c-0.1,0.2-0.1,0.4-0.2,0.6
	c0.2,0,0.5-0.1,0.7-0.1c-0.4-0.3-0.3-0.2-0.3-0.7l0.2-0.2l0.2,0.6l0.2-0.2l0.2,0.2c-0.1-0.2-0.1-0.5-0.2-0.7l0.3,0.5
	c-0.1-0.2-0.2-0.4-0.2-0.6c0.4-0.2,0.8-0.2,1.2,0c-0.1-0.3-0.1-0.5-0.2-0.8c0.3,0,0.1,0.1,0.2-0.2c0.5,0.3,0.8,0,1.1,0.3
	c0.1-0.3,0.2-0.7,0.2-1l1-0.3L19.3,13c0.2-0.3,0.2,0,0.5,0.2c0-0.2-0.1-0.3-0.1-0.5l0.2-0.3H20c0.1,0.2,0.2,0.4,0.2,0.6
	c0.1-0.3,0.1-0.6,0.2-0.9l0.5,0.2c-0.1-0.5-0.1-0.2,0.1-0.6l0.1-0.2c0,0.2,0.1,0.4,0.2,0.6h0.2v-0.5c0.3-0.2,0-0.2,0.4-0.1
	c-0.1-0.3-0.1-0.6,0.1-0.8c0,0.2,0,0.4,0.1,0.6c0.2,0.1,0.4,0.1,0.5,0.2c0.1-0.3,0.3-0.7,0.4-1c0,0.2,0.1,0.4,0.2,0.6
	c0.1-0.2,0.2-0.4,0.2-0.6l0.1,0.4l0.3-0.6v0.4c0.4-0.3,0.3-0.6,0.4-1c0.1,0.2,0.1,0.4,0.2,0.6c0.1-0.3,0.2-0.5,0.3-0.8
	c0.1,0.2,0.1,0.4,0.2,0.6c0.1-0.2,0.2-0.5,0.3-0.7c0.1,0.3,0.2,0.5,0.2,0.8c0.1-0.3,0.1-0.7,0.2-1c0.2,0.2,0.2,0.6,0.3,1
	c0.4-1.3,0.2-0.9,0.8-1.5c0.1,0.3-0.1,0.6,0.2,0.9c0-0.7,0.5-1,1.1-1.3L27.5,8l0.1-0.1l0.5,0.2L28,7.7c0.2,0.3,0.2,0.2,0.2,0.6
	c0.6-0.6,1.1-1.4,1.9-0.9l-0.2-0.4l0.5,0.3l0.3-0.6h0.1c0.1,0.2,0.1,0.4,0.2,0.6c0.3-0.6,0.1-1,0.6-1l0.2-0.2l-0.2,0.8
	c0.6-0.5,0.5-0.8,0.9-0.2l0.1-0.1h-0.1V6.2l0.1,0.5c0.2-0.2,0.4-0.5,0.5-0.7v0.5L33.3,6l0.1-0.2c0.1,0.2,0.1,0.5,0.2,0.7
	c0.4-0.7,0.4-1.1,0.8-1.4h0.1c0,0.2-0.1,0.3-0.2,0.5c0.6-0.4,0.3-0.1,0.9-0.4v0.6c0.1-0.2,0.2-0.3,0.2-0.5L35.7,6l0.5-1.3l0.1-0.2
	c-0.1,0.3-0.2,0.5-0.2,0.8c0.2-0.3,0.4-0.5,0.6-0.8c-0.1,0.2-0.1,0.4-0.2,0.6l0.4-0.3c0,0.2,0,0.4,0.1,0.6L37.3,5l0.1-0.1
	c0,0.2,0.1,0.5,0.1,0.7c0.4-0.3,0.3-0.6,0.2-1.1c0.4,0.2,0.2,0.2,0.6,0.1L38.2,5c0.1-0.2,0.3-0.5,0.4-0.7c0,0.3,0.1,0.6,0.1,0.9
	l0.5-1l0.2,0.1c0,0.2,0.1,0.4,0.1,0.6l0.8-1l-0.2,1l0.8-1.2c0.5,0.2,0.4,0.3,0.9,0.1v0.6C41.8,4.1,41.9,4,42,3.8v0.8
	c0.2-0.4,0.4-0.8,0.6-1.1c0,0.3-0.1,0.5-0.1,0.8l0.4-0.6c0.4,0.2,0.2,0.1,0.3,0.5c0.2-0.3,0.4-0.6,0.5-1L43.8,3
	c0,0.2-0.1,0.4-0.2,0.6l0.4-0.2v0.6c0.1-0.2,0.3-0.5,0.4-0.7c0.3,0.3,0,0.2,0.4,0.1c0,0.3-0.1,0.5-0.1,0.8c0.2-0.2,0.3-0.5,0.5-0.7
	c0.2,0.3,0.2,0.2,0.2,0.6l0.5-0.8c0.3,0.1,0.1,0,0.6-0.1l-0.3,0.5l0.1,0.1l0.4-0.2V4c0.1-0.3,0.2-0.5,0.3-0.8l0.2-0.1
	c0,0.3,0,0.6,0.1,1c0-0.2,0.1-0.5,0.2-0.7h0.2v0.4c0.1-0.2,0.2-0.5,0.3-0.7L48.1,3l-0.2,0.6c0.2-0.2,0.5-0.4,0.7-0.6l-0.3,1
	c0.4-0.2,0.5-0.3,0.5-0.9c0,0.2,0.1,0.4,0.1,0.6L49.3,3c-0.1,0.3-0.1,0.6-0.2,0.9l0.5-1.2c0.4,0.3,0.4,0,0.4,0.6L50.7,3
	c-0.1,0.2-0.2,0.4-0.3,0.6c0.4-0.2,0.7-0.4,1.1-0.6c-0.1,0.3-0.3,0.5-0.4,0.8c0.4-0.1,0.4-0.4,0.7-0.9c0,0.2-0.1,0.4-0.1,0.6
	l0.8-0.5l-0.2,0.8l1.2-0.8h0.2l-0.3,0.5c0.2-0.1,0.3-0.1,0.5-0.2c0,0.2-0.1,0.4-0.1,0.6L54,3.4l0.3,0.6l1.1-0.7
	c-0.1,0.2-0.1,0.4-0.2,0.6c0.2-0.2,0.4-0.4,0.6-0.6l-0.2,0.5l0.6-0.6l0.1,0.4l0.5-0.3c-0.1,0.3-0.2,0.6-0.2,0.9
	c0.2-0.3,0.5-0.6,0.7-0.9l0.2,0.1L56.9,4l0.8-0.5c0,0.2,0,0.4,0.1,0.6c0.1-0.2,0.3-0.4,0.4-0.6l-0.1,0.4l0.2,0.4l0.5-0.8v0.1
	c-0.1,0.3-0.3,0.6-0.4,0.9l0.9-0.8C59.1,4,59,4.3,58.8,4.6l0.7-0.8c0,0.2-0.1,0.4-0.1,0.6l0.8-0.2L60,4.7c0.2-0.2,0.4-0.5,0.5-0.7
	l0.1,1c0.2-0.2,0.4-0.4,0.6-0.6V5c0.4-0.4,0.2-0.3,0.5,0.1c0.1-0.2,0.3-0.4,0.4-0.6L62,4.9l0.5-0.1c-0.1,0.2-0.1,0.1,0,0.2
	c0.1,0.2,0.5,0.2,0.8,0.6c0-0.2,0.1-0.3,0.2-0.5c0,0.2-0.1,0.4-0.1,0.6c0.2-0.2,0.3-0.4,0.5-0.6h0.9c-0.2,0.2-0.3,0.5-0.5,0.7
	l0.6-0.6c-0.1,0.2-0.1,0.4-0.2,0.6c0.2-0.1,0.3-0.2,0.5-0.3C65.1,5.7,65,6,65,6.2l0.6-0.6l-0.3,0.5c0.3,0.2,0.7,0.3,1,0.5
	c0.1-0.2,0,0,0.1,0.2L67,6.2c-0.2,0.2-0.4,0.5-0.5,0.7c0.3,0.1,0.1,0,0.2,0.2l0.8-0.8L67,7.1c0.3-0.1,0.6-0.3,0.9-0.4
	c-0.2,0.1-0.4,0.3-0.5,0.4l0.2,0.2L68,7l-0.2,0.6L68.3,7l-0.3,1c0.3-0.2,0.6-0.4,0.8-0.6l-0.3,0.3c0.3,0.4,0,0.2,0.5,0.1
	C69,7.9,69,8.1,69,8.3L69.4,8c0,0.2-0.1,0.4-0.1,0.6L70,8.2l-0.5,0.3c0.3,0.3,0.4,0,0.3,0.6l0.5-0.5v0.6l-0.1,0.2l0.5-0.3
	c-0.1,0.2-0.1,0.3-0.2,0.5c0.4,0,0.8-0.1,1.2-0.1L71.4,10l0.1,0.1l0.4-0.2c0,0.2-0.1,0.3-0.1,0.5c0.4,0.4,0.3,0.5,0.8,0.3
	c-0.1,0.2-0.1,0.4-0.2,0.6c0.5,0,0.3,0.1,0.6-0.2c0.1,0.2,0.1,0.4,0.2,0.6l0.3-0.2l-0.3,0.4l0.5-0.1c-0.1,0.2-0.2,0.3-0.2,0.5
	l0.5-0.2c-0.1,0.4-0.1,0.3-0.3,0.5c0.3,0.2,0.5,0.5,0.8,0.6l-0.2,0.3l0.3-0.1V14l0.3-0.2c0,0.6-0.2,0.8,0.3,0.7v0.8l0.5-0.3
	c-0.4,0.4-0.1,0.5-0.2,1.1l0.3-0.1l-0.2,0.6l0.5-0.1l-0.5,0.3c0.2,0.7,0.2,0.1,0,0.9l0.5-0.1l-0.4,0.4l-0.1,0.2
	c0.2,0,0.4-0.1,0.6-0.1L76,18.7c0.6,0.4,0.4,0.5,0.3,1.2l0.3-0.2C76.6,20,76.5,20.1,76.4,20.3 M76.3,11.3c-0.1,0.1-0.2,0.1-0.3-0.2
	L76.3,11.3z M75.2,9.6L75,9.9l-0.2-0.2L75,9.6L75.2,9.6z M73.6,8c-0.2,0,0,0-0.2-0.1L73.6,8z M73,10.8L73,11.1l-0.1,0.1L73,10.8z
	 M71.6,9.4L71.6,9.4l-0.1-0.5C71.5,9.1,71.5,9.2,71.6,9.4 M70.9,9.5l0.3-0.6C71.4,9,71,9.3,70.9,9.5 M66.2,6.1l-0.3,0.2L66,5.9
	L66.2,6.1z M63.6,4.8L63.5,5l-0.2,0.1l0.1-0.3H63.6z M47.6,2.9l-0.2,0.2L47.6,2.9L47.6,2.9z M46.3,2.7L46.2,3l-0.1-0.2H46.3z
	 M45.6,3.1l-0.2,0.2L45.5,3L45.6,3.1z M43.2,3.4L43,3.6l-0.2-0.2H43.2z M41.6,3.5l-0.2,0.1l-0.2,0.2L41,3.4
	C41.2,3.5,41.4,3.5,41.6,3.5 M38.4,1.7l-0.1-0.2l0.1,0.1V1.7z M38.1,4.2l-0.2,0.3l-0.2-0.2l0.2-0.1L38.1,4.2z M33.7,5.8l-0.2-0.2
	l0.2-0.2v0.2L33.7,5.8z M32.6,5.9l-0.2,0.2L32.6,5.9L32.6,5.9z M30.5,7L30.5,7l-0.2-0.2l0.1-0.1l0.2,0.1V7z M29.2,7.2L29,7.5V7.2
	H29.2z M25.8,8.5c-0.2,0-0.1,0-0.2-0.1L25.8,8.5z M19,12.9l-0.2,0.2l0.1-0.3L19,12.9z M14.4,16.9L14,17.1c0.1-0.2,0.1-0.4,0.2-0.6
	C14.3,16.9,14,16.7,14.4,16.9 M10.3,21.2c0-0.2,0.1-0.3,0.1-0.5C10.6,21,10.6,21,10.3,21.2 M8,24.7l-0.2-0.1l0.1-0.2L8,24.7z
	 M7.1,25.9L6.8,26l0.2-0.3L7.1,25.9z M2.7,39.1l0.2,0.1l0.1,0.2l-0.3,0.1L2.7,39.1z M2.9,36.5l0.1,0.3l-0.2-0.1L2.9,36.5z M2.9,42.1
	v0.2l-0.1,0.1c-0.1-0.2-0.2-0.3-0.3-0.5L2.9,42.1z M2.6,49.6c0,0.2-0.1,0.4-0.5,0.6C2.3,50,2.5,49.8,2.6,49.6 M3.1,51.6l0.2,0.1
	C3.1,51.7,3.2,51.7,3.1,51.6 M3.3,46.5l0.2,0.2C3.3,46.6,3.5,46.8,3.3,46.5 M3.7,47.8c0.1,0.2,0.1,0,0,0.2V47.8z M3.9,49l0.1-0.2
	L4.1,49H3.9z M4,53.7l0.2,0.1C4,53.8,4.1,53.8,4,53.7 M6.5,57l0.1-0.2l0.2,0.1L6.5,57z M8.3,58.4c0.1-0.2,0.3-0.4,0.4-0.6L8.3,58.4
	L8.3,58.4z M11.2,61.4c0.1-0.2,0.1-0.4,0.2-0.6c0,0.2,0,0.3,0.1,0.5L11.2,61.4z M14.2,63.1l0.1-0.2C14.3,63,14.4,62.9,14.2,63.1
	 M20.3,63.5l0.2-0.2l-0.1,0.2H20.3z M21.4,66.1L21.4,66.1v0.2V66.1z M25,67.5c0-0.2,0.1-0.3,0.1-0.5L25,67.5L25,67.5z M29.7,68.6
	l0.1,0.3h-0.1V68.6z M30.3,66.3c0.1,0.2,0.2,0.1,0,0.2V66.3z M30.7,68.8H31l-0.3,0.3V68.8z M31.7,66.7H32
	C31.8,67,31.7,66.7,31.7,66.7 M34.9,69.3l0.1-0.2l0.2,0.1L34.9,69.3z M38.6,70.1l0.3,0.1l-0.3,0.3V70.1z M39.8,71
	c0.3,0.1,0.1-0.1,0.2,0.2L39.8,71z M40,70.7l0.2,0.1C40,70.8,40.1,70.8,40,70.7 M40.1,71.2L40.1,71.2l0.2,0.2L40.1,71.2z M40.3,70.9
	l0.2-0.3c0,0.2,0.1,0.3,0.1,0.5L40.3,70.9z M42.3,73l0.1-0.4l0.2,0.2c0,0.1-0.1,0-0.1,0.2L42.3,73z M47.2,69.1h0.2l-0.1,0.4
	L47.2,69.1z M54.6,62.2l0.4,0.2l-0.3,0.2L54.6,62.2z M56.7,60.6l0.1-0.3l0.2,0.3H56.7z M57.8,59.4l0.1-0.3l0.3,0.1L57.8,59.4z
	 M61.2,55.7l0.2,0.3L61.2,56V55.7z M62.4,54.5l0.1,0.2l0.2,0.2L62.4,55C62.4,54.8,62.4,54.7,62.4,54.5 M65.1,51.1l0.1,0.2l0.2,0.2
	C65.2,51.3,65.2,51.5,65.1,51.1 M65.7,50.5l0.2,0.3l0.2,0.1L65.8,51C65.8,50.8,65.8,50.6,65.7,50.5 M70.3,44.3L70.3,44.3l0.2-0.1
	C70.4,44.4,70.5,44.3,70.3,44.3 M72.1,41.3l0.2,0.1l-0.1,0.2L72.1,41.3z M73.7,38.5c0.3,0.1,0.2-0.1,0.2,0.1l0.2,0.1L74,38.6v0
	L73.7,38.5z M1.2,46.3l-0.2,0.2L1,46.2L1.2,46.3z M1.2,45.8l-0.1,0.2L1.2,45.8L1.2,45.8z M0.9,42.6c-0.2,0,0,0-0.2-0.1L0.9,42.6z
	 M0.5,40.9v-0.2C0.6,40.8,0.5,40.7,0.5,40.9 M0.3,39.7l0.2-0.2C0.6,39.7,0.3,39.7,0.3,39.7 M37.6,76.5l-0.2-0.2l0.2-0.2V76.5z
	 M35.9,77.5l-0.1,0.2L35.9,77.5L35.9,77.5z M34,78.5c-0.2,0.3-0.1,0.1-0.3,0.2l0.1-0.3L34,78.5z M31.6,79.2l0.2-0.2
	C31.9,79.2,31.6,79.2,31.6,79.2 M49.8,71.4h0.4L50,71.8l-0.1,0.1L49.8,71.4z M53.8,71.4l0.1-0.2l0.2,0.2H53.8z M54.4,71.1l0.2,0.1
	C54.4,71.2,54.5,71.2,54.4,71.1 M51.3,65.8l0.1,0.2v0.2L51.3,65.8z M79.9,21.6l-0.3,0.1c0.1-0.1-0.1-0.1,0.3-0.2
	c-0.2-0.4-0.4-0.8-0.7-1.2c0.2-0.3,0.2,0,0.3-0.3l0.2-0.6c-0.2,0-0.3-0.1-0.5-0.1v-0.1c0.2-0.1,0.4-0.2,0.5-0.3v-0.2
	c-0.4-0.1-0.6-0.1-0.6-0.3L79,18.2l0.6-0.5c-0.7-0.6-0.9-1.6-0.5-2.4l-0.7-0.1c0.1-0.3,0.3-0.5,0.4-0.8c-0.3,0-0.9-0.2-0.8-0.6
	c-0.3-0.3-0.1-0.2,0.1-0.7c-0.2,0-0.5,0.1-0.7,0.1c0.1-0.3,0.2-0.6,0.3-1l-0.3,0.2c0-0.2,0-0.4,0.1-0.6c-0.3,0.2-0.4,0.1-0.8-0.1
	c0-0.2,0.1-0.4,0.1-0.6h-0.5l0.3-0.6c-0.8,0.1-0.8-0.3-1.2-0.7c0.1-0.2,0.2-0.3,0.2-0.5C75,9.3,74.5,8.7,74.5,8l-0.2,0.3
	c-0.3-0.4-0.2-0.2-0.2-0.6C73.4,7.9,70.8,4.9,70,5c-0.3-0.3-0.2-0.1-0.6,0.1l0.4-0.4h-0.2c-0.1-0.4-0.2,0.1-0.3,0.2
	c0-0.2-0.1-0.3-0.2-0.5l0.2,0.2c-0.1-0.2-0.2-0.3-0.2-0.5c-0.2,0.1-0.4,0.2-0.5,0.3l-0.4-0.6L68,4l-0.5-0.5l-0.1,0.3l-0.3-0.4
	l-0.2-0.2L67,3.6c-0.6-0.3-0.6-0.4-1.2-0.3c0-0.3-0.2-0.5-0.5-0.8L65.7,3L65.6,3l-1.2-0.8l0.3,0.4c-0.4-0.2-0.4-0.1-0.5-0.6
	c-1.7,0.1-2.8-1.1-3.5-1c0.1,0.2,0.3,0.3,0.4,0.5l-0.4-0.3l-0.2,0.3c-0.1-0.3-0.3-0.4-0.8-0.6c0,0.2,0,0-0.1,0.2
	c-0.5,0.1-1-0.1-1.5-0.4c-0.2-0.2-0.1,0.1-0.2,0.3l-0.4-0.5C57,0.8,56.5,1.2,56,0.2c0,0.2-0.1,0.3-0.2,0.5c-0.1-0.1-1.1-0.4-1.5,0
	l0.2-0.1V1h-0.3c-0.1-0.2-0.3-0.5-0.4-0.7l-0.1,0.3c-0.4-0.1-0.7-0.2-1.1-0.4v0.4l-0.4-0.2l0.1,0.4l-1-0.7l0.2,0.4L51,0.2l0.2,0.3
	c-0.6-0.1-1.2-0.1-1.8-0.1c-0.1-0.2,0,0,0.1-0.2c-0.2-0.1-0.3-0.1-0.5-0.2l0.2,0.4H49l-0.1,0.2L49,0.4c-0.4-0.2,0.1-0.1-0.4-0.4
	l0.1,0.2c-0.2,0.2,0,0.1-0.2,0.2c-0.3,0.3-1,0.1-1.5-0.1l-0.1,0.1l0.2,0.6c-0.3-0.1-0.6-0.3-0.8-0.4V0.4l0.5,0.1
	c-0.2-0.1-0.4-0.2-0.5-0.2l-0.1,0.3l-0.6-0.3c0,0.2,0.1,0.3,0.2,0.5c-0.3,0-0.2-0.1-0.2,0.2l-0.8-0.6c-0.4,0.5-0.4,0.1-0.4,0.6
	l-0.5-0.3L43.8,1l-0.6-0.4c0.1,0.2,0.1,0.3,0.2,0.5l-0.8-0.3c0.2,0.2,0.3,0.4,0.5,0.6l-0.5-0.4L42.2,1l0.1,0.2l0.2,0.1
	C42.2,1.2,42,1.1,41.8,1l-0.1,0l0-0.1l-0.6-0.2c0,0.2,0.1,0.3,0.1,0.5c-0.2,0-0.4,0.1-0.6,0.1l0.1,0.3c-0.3-0.2-0.6-0.3-0.9-0.5
	l0.2,0.2v0.3l-0.8-0.5l0.3,0.4v0.2c-0.2-0.1-0.5-0.2-0.7-0.3l0.2,0.2l-0.1,0.1c-0.2-0.1-0.5-0.2-0.7-0.3C38,2,37.4,2,36.5,1.8
	l0.6,0.5l0.2,0.1c-0.3-0.1-0.6-0.2-0.9-0.3c-0.4,0.1-0.7,0.2-1,0.4l0.2,0L35,2.6l0,0c-0.5,0.2-1.1,0.3-1.6,0.3l0.2,0.5
	c-0.6-0.5-0.4-0.2-1.1-0.2c0.3,0.4,0.2,0.2,0.6,0.1v0.4l-0.8-0.4c-0.3,0.5-0.1,0.3-0.6,0.3l0.2,0.3l-0.8-0.4c-0.1,0.4,0,0.3,0.1,0.8
	v0.1l-0.8-0.2l0.1,0.2c-0.3,0.1-0.6,0-0.9-0.1l-0.1,0.2l0.2-0.1c-0.3,0.3-0.7-0.2-0.9,0.3l0.1,0l-0.1,0.1v0c-0.1,0.1-0.1,0-0.5-0.1
	l0.2,0.6c-0.4-0.1-0.7-0.1-1.1-0.2c0,0.2,0.1,0.5,0.1,0.7h-0.2V5.6l-0.4-0.1L27,5.9c-0.4-0.4-0.4-0.1-0.6,0.1L26,5.7l0.4,0.4
	c-0.3,0-0.7-0.1-1-0.1c-0.3,0.5-0.2,0.8-0.9,0.6c0,0.2,0.1,0.3,0.1,0.5L24,6.8L24,7.2c-0.3,0-0.6-0.1-0.8-0.1l0.4,0.4h-0.9l-0.2,0.1
	l0.3,0.2L22,8c0.2,0.3,0.1,0.1-0.2,0.2L22,8.4c-0.3,0.1-0.7,0.1-0.9-0.2c-0.2,0.4,0.1,0.3-0.4,0.3l0.5,0.3c-0.4,0.2-0.8,0.1-1.1-0.2
	c-0.1,0.2,0,0.4,0.1,0.6c-0.7,0.2-0.5,0-1,0.6L19,9.8l-0.2,0.1l0.3,0.3h-0.9L18,10.4l0.1,0.2l0.1,0.3c-0.5-0.2-0.5-0.4-0.7,0
	l-0.2-0.1c0.2,0.1,0.3,0.3,0.5,0.4l0.2,0.1L17.3,11l0.1,0.5l-0.5-0.4l-0.2,0.4l0.4,0.3l-0.8-0.2l0.3,0.5c-0.4,0.3-0.2,0-0.4,0.3
	c-0.3-0.3-0.3-0.1-0.8-0.3l-0.1,0.1c0.2,0.5,0.2,0.2,0,0.6l0.3,0.1c-0.1,0.3-0.5,0.4-0.7,0.3c0,0,0,0,0,0c-0.6,0.1-0.2,0.3-0.5,0.3
	l0.2,0.3l-0.6-0.3l0.2,0.5l-0.7-0.2c0.2,0.2,0.3,0.5,0.5,0.7l-0.4-0.3c0,0.3,0.1,0.5,0.1,0.8c-0.7,0.1-0.5-0.2-0.8,0.3l-0.2-0.3
	L12.2,15l0.3,0.4c-0.2,0-0.4-0.1-0.6-0.1l-0.1,0.1c0.2,0.3,0.3,0.3,0.2,0.6c-0.1-0.2,0,0.1-0.7-0.1l0.2,0.4l-0.6-0.2v0.7l-0.2-0.2
	c0.1,0.3,0.1,0.5,0.2,0.8c-0.6,0.3-0.9,0.6-1.6,0.6l0.5,0.4l-0.5-0.2c0.1,0.3,0.2,0.5,0.2,0.8l-0.2,0.2C9,19,8.8,18.9,8.6,18.8
	c-0.1,0.4-0.1,0.1,0.1,0.4c-0.2,0.2,0,0.2-0.5,0.2l0.2,0.2l-0.7,0.2c-0.1,0.5-0.1,0.7,0.2,1l-0.5-0.2c-0.1,0.2-0.1,0.5-0.2,0.7
	l-0.5-0.1l0.2,0.3l-0.6-0.2c-0.1,0.4,0.1,0.4,0.3,0.6c-0.2,0.2-0.1,0-0.1,0.3c-0.2,0-0.5-0.1-0.7-0.1l0.2,0.3H5.8l0.4,0.4L6.2,23
	C6,23.3,5.6,23.9,5,23.9l0.4,0.3v0.2l-0.5-0.2v0.1l0.2,0.6v0.1H4.3c0.1,0.2,0.2,0.4,0.3,0.6c-0.3,0.2-0.1,0.2-0.5,0.1l0.2,0.4
	l-0.6-0.2c0.2,0.2,0.3,0.3,0.5,0.5c-0.3,0.3-0.6,0.4-1,0.3L3.6,27c-0.2,0.1-0.3,0.3-0.6,0.2c0.1,0.2,0.3,0.4,0.4,0.6V28
	c-0.2-0.1-0.3-0.2-0.5-0.3c-0.1,0.3,0,0.4,0.3,0.6c-0.3,0.3-0.1,0-0.2,0.4l-0.5-0.2L2.8,29c-0.2,0-0.5-0.1-0.7-0.1l0.5,0.6l-0.5,0.1
	l0.4,0.3c-0.2,0.4-0.6,0.5-1,0.5c0.3,0.2,0.5,0.4,0.8,0.6C2,31.6,1.6,32,1.2,32.2c0.2,0,0.4,0.1,0.6,0.1l-0.5,0.3l0.4,0.2
	c-0.2,0.1-0.3,0.3-0.5,0.4c-0.2,0.2,0,0.1,0.2,0.2v0.2l-0.7,0.2l0.4,0.2L0.6,34l0.5,0.2c-0.2,0.4-0.3,0.6-0.6,0.5
	C0.4,35,0.6,35,0.8,35.2l-0.5,0.2h0.5c-0.2,0.1-0.3,0.3-0.5,0.4c0.4,0.9,0.2,1.9-0.3,2.7h0.4c-0.1,0.5-0.3,1-0.4,1.4l0.4-0.1
	c-0.1,0.2-0.3,0.4-0.4,0.6l0.5-0.1c-0.3,0.5-0.3,0.4,0,0.7c-0.2,0-0.4,0.1-0.5,0.1c0.1,0.3,0.2,0.5,0.5,0.7l-0.3,0.2h0.4
	c-0.2,0.9-0.2,1.4-0.3,1.9L0.6,44l-0.5,0.6l0.6,0.5l-0.3,0.3c0.5,0.1,0.7,1.7,0.6,2.1l0.4-0.1L1,47.8c0.3,0.3,0.2-0.1,0.2,0.5
	l0.5-0.1v0.1l-0.4,0.3l0.5,0.2l-0.3,0.3h0.4l-0.3,0.3c0.2,0,0.4-0.1,0.6-0.1l-0.5,0.6c0.4,0.3,0.3,0.1,0,0.6
	c0.2-0.1,0.3-0.1,0.5-0.2l0.2,0.1v0.1l-0.5,0.3h0.5l-0.3,0.6l0.5-0.2c-0.3,0.4-0.2,0.5,0.1,0.7c-0.3,0.3,0.3,0.1,0.4,0.1l-0.4,0.3
	h0.5c-0.1,0.2-0.2,0.3-0.3,0.5l0.6-0.1L3,53.2L3.5,53c-0.1,0.2-0.2,0.4-0.3,0.6l0.5-0.2V54c0.2,0.2,0.1,0.2,0.4,0.1l-0.2,0.5
	c0.2-0.1,0.4-0.1,0.5-0.2l-0.3,0.4V55c0.2-0.1,0.4-0.1,0.5-0.2l-0.2,0.6l0.4-0.2c0.1,0.8,0.1,0.8,0.7,0.5L5,56.2l0.6-0.2l-0.2,0.5
	c0.2,0,0.4-0.1,0.5-0.1c-0.1,0.2-0.2,0.3-0.3,0.5c0.2-0.1,0.3-0.1,0.5-0.2c-0.1,0.2-0.2,0.4-0.2,0.6c0.4-0.1,0.2-0.3,0.4,0.1
	l-0.1,0.2c0.4,0.1,0.3,0.1,0.6-0.2L6.6,58c0.5,0.2,0.3-0.1,0.3,0.4L7.2,58c0,0.2-0.1,0.3-0.2,0.5h0.5l-0.2,0.3
	c0.5,0,0.5-0.3,0.7-0.8c0.2,0.2,0,0.3,0.4,0.5L8,58.9c0.2,0,0.3-0.1,0.5-0.1l-0.2,0.4v0.1l0.4-0.2l-0.2,0.5l0.8-0.3L9,59.6l-0.1,0.3
	l0.5-0.2l-0.2,0.6l0.5-0.2h0.1c-0.1,0.2-0.2,0.4-0.3,0.6l0.8-0.3L9.7,61c0.3-0.2,0.5-0.3,0.8-0.5l-0.3,0.6l0.8-0.4l-0.6,0.7
	c0.3-0.1,0.5-0.2,0.8-0.3c0,0.2,0.1,0.4,0.1,0.6l0.4-0.2c-0.1,0.2-0.2,0.4-0.3,0.6l0.5-0.2c0,0.2,0.1,0.4,0.1,0.6
	c0.1-0.2,0.1-0.3,0.2-0.5l0.1-0.1c0,0.2,0.1,0.4,0.1,0.6c0.2-0.1,0.3-0.2,0.5-0.3l-0.2,0.6l0.5-0.3l-0.1,0.3l0.1,0.2
	c0.1-0.2,0.2-0.3,0.3-0.5c0.1,0.4,0,0.4-0.2,0.6l1-0.4c-0.1,0.3-0.1,0.5-0.2,0.8l0.7-0.4c0.1,0.5,0.1,0.3,0.4,0.2L14.6,64l0.4-0.2
	c0,0,0,0,0.1,0.4c0.2-0.2,0.1-0.1,0.2-0.3c0.4,0.3,0.2,0.3,0.3,0.5c0.3,0.1,0.3-0.1,0.8-0.2c-0.1,0.2-0.3,0.3-0.4,0.5l0.1,0.1
	l0.2-0.2c0.1,0.2,0.2,0.4,0.2,0.6l0.2-0.4c0.2,0.1,0,0.2,0.2,0.1v0.5l0.9-0.6l0.1,0.1l-0.3,0.4l0.1,0.1l0.3-0.2
	c0,0.2,0.1,0.4,0.1,0.6l0.2-0.4h0.2c0,0.2,0.1,0.4,0.2,0.6c0.2-0.2,0.4-0.4,0.5-0.6l0.2,0.2c-0.1,0.3-0.3,0.5-0.4,0.8l0.5-0.6
	c0.3,0,0,0.2,0.5,0L19.7,66l0.2,0.1c0,0.3,0.4-0.3,0.5-0.4L20,66.4c0.2-0.1,0.4-0.2,0.5-0.3c0.2,0.3,0,0.3,0.3,0.2
	c0,0.2-0.1,0.5-0.1,0.7l0.5-0.4c0,0,0.1,0,0.1,0.4c0.3-0.2,0.5-0.5,0.8-0.7l0.2-0.1c0,0.2,0.1,0.5,0.1,0.7l0.5-0.2
	c-0.1,0.2-0.2,0.3-0.3,0.5l0.3-0.2v0.6c0.2,0.2,0.2-0.3,0.5,0.2c0.1-0.2,0.2-0.3,0.3-0.5l0.3,0.1l-0.3,0.6c0.4-0.2,0.5-0.5,0.8-0.8
	l-0.3,0.6l0.6-0.5c0,0.2,0,0.4,0.1,0.6c0.2-0.2,0.1-0.2,0.5-0.2c-0.1,0.2-0.2,0.3-0.3,0.5l0.4-0.3c0,0.2,0.1,0.4,0.1,0.6l0.3-0.4
	c0.1,0.2,0.2,0.4,0.2,0.6c0-0.3,0.1-0.6,0.1-1h0.5L26.2,68l0.5-0.2v0.4l0.5-0.3c-0.1,0.3-0.1,0.5-0.2,0.8c0.2-0.2,0.4-0.3,0.5-0.5
	c-0.1,0.2-0.2,0.3-0.3,0.5l0.1,0.1l0.3-0.2c0,0.2,0.1,0.4,0.2,0.6l0.4-0.4v0.6l0.7-0.6v0.6l0.5-0.3v0.5l0.5-0.3
	c0.1,0.1,0.2,0,0.2,0.2l0.5-0.4v0.9l0.5-0.6v0.6l0.4-0.3l0.1-0.2V70l0.5-0.5v0.6c0.1-0.2,0.2-0.5,0.2-0.7l0.4-0.2l-0.2,0.4
	c0,0.2,0.1,0.4,0.2,0.6c0.2-0.2,0.1-0.2,0.1-0.6l0.5-0.2c-0.1,0.2-0.2,0.5-0.3,0.7c0.2-0.2,0.3-0.5,0.5-0.7c0.3,0.3,0.1,0,0.2,0.4
	l0.5-0.3c-0.1,0.2-0.2,0.3-0.2,0.5c0.4,0.2,0.2-0.1,0.4,0.4c0.1-0.2,0.3-0.4,0.4-0.6c0,0.2,0.1,0.5,0.1,0.7h0.1l0.2-1h0.1
	c0.1,0.2,0.1,0.4,0.2,0.6l0.5-0.2l-0.2,0.5l0.9-0.5l0.1,0.1c-0.1,0.2-0.2,0.5-0.3,0.7c0.4-0.3,0.4-0.3,0.5-0.8
	c0.5,0.4,0.4,0.4,1.2,0.2c-0.1,0.2-0.3,0.4-0.4,0.6l1.3-0.4c-0.1,0.2-0.3,0.5-0.4,0.7c0.4,0.1,0.9-0.1,1.2-0.4v0.6l0.1,0.2
	c0.1-0.3,0.3-0.5,0.4-0.8c-0.1,0.5-0.4,0.8,0,1.3l-0.3-0.1c0.2,0.1,0.4,0.2,0.5,0.3c-0.3,0.2-0.4,0-0.8-0.2v0.1l0.2,0.4l-0.7-0.1
	l0.3,0.3l-0.6-0.2c0.2,0.3-0.1,0.3-0.3,0.2c0.1,0.2,0.2,0.4,0.2,0.6h-0.1l-0.6-0.2l0.2,0.3l-0.5-0.2L37.3,73l0.2,0.4
	c-0.3,0.1-0.3,0.3-0.8,0.1c0.1,0.2,0.2,0.5,0.3,0.7c-0.2-0.1-0.4-0.2-0.5-0.3l0.3,0.6l-0.5-0.2l0.2,0.3c-0.2-0.1-0.4-0.2-0.6-0.3
	c0.1,0.1-0.2,0.2-0.4,0.2c0,0.2,0.1,0.4,0.1,0.6c-0.3-0.1-0.5-0.2-0.8-0.3c-0.1,0.4,0,0.3-0.1,0.4l0.2,0.4H34c0,0.2,0,0.3,0.1,0.5
	c-0.2-0.1-0.4-0.2-0.5-0.3l0.2,0.6L33.2,76c0.1,0.2,0.2,0.4,0.2,0.6l-0.2,0.2c-0.2-0.1-0.3-0.3-0.5-0.4l0.2,0.8
	c-0.6,0.2-1.1,0.5-1.7,0.7l0.4,0.6l-0.1,0.1h-0.3l-0.2-0.2c0.2,0.3,0,0.2,0.3,0.3c-0.2,0.3-0.5,0.6-0.8,0.8l0.4,0.3
	c0.3-0.3,0.3-0.1,0.7-0.6c0.5,1.1,1.6-1,2.5-0.5l-0.1-0.4l0.5-0.2c0.1,0.2,0.2,0.3,0.2,0.5c0.1-0.3,0.2-0.6,0.2-0.9l-0.1-0.2
	c0.5,0.3,0.6,0.2,0.8,0.5c0.3-0.3,0.2-0.4,0.4-0.8c0.1,0.2,0.2,0.3,0.3,0.5c0-0.2,0.1-0.5,0.1-0.7c0.4-0.3,1.1-0.1,1.6-1.2l0.5,0.2
	l-0.2-0.5c0.2-0.1,0.3-0.2,0.5-0.3l-0.1,0.6c0.2-0.2,0.4-0.5,0.6-0.7l0.4,0.3l-0.2-0.4l0.2-0.4h0.1c0,0.2,0.1,0.4,0.2,0.6
	c0.3-0.5,0.4-0.4,0.3-0.8c0.3-0.2,0.2-0.1,0.2,0.2l0.3-0.2c0,0,0.1-0.3,0.3-0.4c0.3,0,0.1-0.1,0.3,0.2c0-0.2-0.1-0.4-0.1-0.6
	l0.2-0.1c0,0.2,0.1,0.4,0.2,0.6c0-0.2,0.1-0.5,0.2-0.7c0.3,0.1,0.5,0.1,0.8,0.2c0-0.3,0.1-0.7,0.2-1l0.8,0.5l-0.5-0.8
	c0.4-0.3,0.2,0,0.4-0.4l1,0.3c-0.1-0.2-0.1-0.3-0.2-0.5c0.5-0.1,0.2,0.1,0.4-0.3c0,0.2,0.1,0.4,0.1,0.6l0.4-0.5c0,0.2,0,0.4,0.1,0.6
	l0.3-0.2c0.1-0.5,0.2-0.4,0.1-0.8l0.6-0.1L46,71.4l0.1,0.2l0.3-0.3v0.5c0.5-0.5,0.5-0.6,1.1-0.8l-0.8,0.9l0.9-0.8
	c0,0.2,0.1,0.3,0.1,0.5c0.1-0.2,0.1-0.4,0.2-0.6c0.2,0.4,0.1,0.4,0,0.8c0.1,0.1,0.5-0.2,0.7-0.3l0.2,0.7v-0.8l0.3,0.1L49,71.8
	l0.3-0.2l0-0.1l0.1,0.1l0.3-0.2c-0.1,1.3,1-0.1,1.2-0.3l0.1,0.4l0.3,0.1h0.2L51,71.8c0.5,0,0.4,0.2,0.8-0.2c0,0.3-0.1,0.5-0.1,0.8
	c0.4-0.2,0.3-0.7,0.8-0.8l0.2-0.1l-0.3,0.6l0.6-0.8h0.3c-0.1,0.2-0.2,0.4-0.2,0.6c0.3-0.2,0.3,0,0.3-0.5l0.2-0.1
	c0.1,0.2,0.2,0.4,0.3,0.6c0.3-0.3,0.1-0.1,0.1-0.5c0.3,0.1,0.6,0.2,1,0.2l0-0.1v0.1c1.2-0.1,2.5-0.7,3-0.5c0.1-0.4,0-0.9-0.3-1.2
	l0,0.1c-0.3,0-0.3-0.1-0.5-0.5l-0.4,0.2l0.1,0.2l0.1,0l-0.1,0v0c-0.2-0.1-0.3-0.3-0.5-0.6c0,0.2-0.1,0.4-0.1,0.6
	c-0.2-0.4-0.7-0.4-1-0.4c-1.1-0.1-2.3-0.2-3.4-0.2l0.3,0.2l0.2,0.1l-0.2,0.2c-0.1-0.2-0.2-0.3-0.3-0.5c-0.6,0-1.1-0.1-1.6-0.3
	l0.1,0.4c-0.9,0.2-1.5,0-1.6-0.4l-0.3,0.3l-0.4-0.6l0.1-0.4v0.4l0.2-0.2c0.4-0.2,0.1-0.3,0.5-0.5c0.3-0.2,0.3-0.1,0.6-0.1
	c-0.1-0.2-0.2-0.4-0.3-0.6l0.6,0.6h0.1c-0.2-0.2-0.4-0.5-0.5-0.7c0.3-0.2,0.2,0.1,0.2-0.3l0.7,0.5c-0.1-0.2-0.2-0.4-0.3-0.6l0.2,0.2
	c0.2-0.1,0,0,0.2,0.1L50,67.2c0.6-0.3,0.3-0.9,0.8-1.3l0.1-0.2L51,66L50.8,66v0.5h0.8l-0.2-1c0.3-0.1,0.5,0,0.7,0.2
	c0.2-0.2,0.9-1,0.8-1.4l0.5,0.3c0.1-0.3,0.2-0.5,0.2-0.8l0.2,0.4c0.4-0.7,1.1-1.1,1.8-1.2l-0.2-0.6c0.4,0.1,0.3,0.1,0.6-0.2
	c-0.3-0.2-0.2-0.1-0.3-0.5c0.2,0.2,0.3,0.3,0.5,0.5c0-0.2-0.1-0.4-0.2-0.6c0.5-0.3,0.6-0.3,1-0.1c0-0.2-0.1-0.3-0.2-0.5l0.5,0.1
	c-0.1-0.2-0.1-0.5-0.2-0.7l0.1-0.1c0.3,0.2,0.1,0.1,0.2,0.3l1.5-1.5l-0.3-0.2v-0.1c0.2,0,0.4,0.1,0.6,0.1l-0.5-0.6l0.8,0.4l-0.5-0.5
	L58.8,58c0.4-0.2,0.3-0.2,0.6,0.1l-0.1-0.4c0.2,0.2,0.3,0.4,0.5,0.6c0.1-0.2,0-0.6,0.3-0.9v-0.2l0.5,0.5c0-0.4,0-0.3,0.4-0.6
	c-0.5-0.3-0.4-0.3-0.5-0.8c0.5,0.3,0.9,0.4,1.1-0.2c0-0.2-0.1-0.4-0.2-0.6c0.4,0,0.6-0.2,1.1,0.2c0.1-0.4-0.1-0.2,0.3-0.4l-0.2-0.6
	c0.4-0.2,0.8-0.4,1.2-0.6l-0.4-0.6c0.5-0.1,0.1,0.1,0.3-0.4l0.9,0.3h0.1l-0.4-0.9l0.3-0.1c0.3-0.1,0.2,0,0.6,0.4L65,51.9
	c0.6-0.4,1.2-0.8,1.8-1.1c-0.2-0.3-0.3-0.7-0.5-1l0.7,0.4l0.7-0.4L67.1,49h0.2c0.3-0.2,0.2-0.1,0.5,0.2c0.1-0.2,0-0.3,0.3-0.6
	l-0.4-0.1l0.1-0.2l0.5,0.1c0-0.3,0-0.2,0.4-0.6l-0.4-0.1c0.3-0.4,0.2-0.3,0.6-0.2c-0.2-0.4-0.1-0.1,0-0.6c-0.3-0.3-0.2,0.1-0.3-0.2
	v-0.2l0.5,0.3l-0.3-0.3l0.1-0.2c0.3,0.1,0.3-0.1,0.7,0.3c0-0.4,0.1-0.8,0.1-1.2c0.6,0.2,0.6,0.2,1.2-0.1l-0.2-0.6l0.3,0.2l-0.2-0.5
	l0.3,0.2c0-0.3-0.1-0.6-0.2-0.9l1.1-0.4c-0.2-0.3-0.3-0.5-0.5-0.8L72,43c0.1-0.4-0.2-0.6,0.1-1.2c0.4,0.2,0.4,0.1,0.9-0.1
	c-0.2-0.3-0.3-0.5-0.5-0.8l0.3,0.4c-0.1-0.3-0.2-0.5-0.2-0.8h1c0-0.5,0.1-0.6-0.2-1.1l1.4-0.6v-0.1c-0.2,0-0.3-0.1-0.5-0.1
	c0-0.2-0.1-0.3-0.1-0.5l0.5,0.2c-0.2-0.3-0.3-0.5-0.4-0.8c0.4-0.3,0.9,0,1.2-0.6c-0.4-0.1-0.4-0.1-0.5-0.7l0.4,0.2L75.3,36l0.9-0.3
	v-0.1c-0.5-0.3-0.4-0.4-0.5-0.7c0.4,0.2,0.5,0.1,0.8-0.2c-0.2-0.1-0.4-0.2-0.5-0.3c0.1-0.5,0.3-0.1,0-0.5l0.8,0.3l-0.4-0.4l0.3-0.5
	l0.4,0.2l-0.4-0.4l0.8-0.8l-0.4-0.2v-0.2l0.8-0.4l-0.4-0.4l0.9-0.3v-0.1c-0.4-0.3-0.5-0.4-0.6-0.9c0.2-0.2,0.4-0.4,0.5-0.6
	c0.2-0.3-0.4-0.3-0.5-0.6l-0.2-0.1l0.8,0.3c-0.2-0.1-0.3-0.3-0.5-0.4l0.2-0.2c0.2-0.4,0.1-0.2,0.5-0.2l-0.2-1.1l0.7-0.5
	c0-0.4-0.2-1.2-0.5-1.4V25l0.5,0.2c-0.1-0.4,0.1-0.6,0.5-0.9c-0.3-0.4-0.3-0.3-0.1-0.8h-0.5c0.1-0.2,0.2-0.4-0.2-0.7l0.8-0.5
	l0.2-0.2L79.5,22L79.9,21.6z"/>
<g>
</g>
<g>
</g>
<g>
</g>
<g>
</g>
<g>
</g>
<g>
</g>
<g>
</g>
<g>
</g>
<g>
</g>
<g>
</g>
<g>
</g>
</svg>
