<?xml version="1.0" encoding="utf-8"?>
<!-- Generator: Adobe Illustrator 23.0.1, SVG Export Plug-In . SVG Version: 6.00 Build 0)  -->
<svg version="1.1" id="Layer_1" xmlns="http://www.w3.org/2000/svg" xmlns:xlink="http://www.w3.org/1999/xlink" x="0px" y="0px"
	 viewBox="0 0 50 10200" width="50px" height="10200px" style="enable-background:new 0 0 50 10200; fill:transparent;" xml:space="preserve">
<style type="text/css">
	.st0{fill:#CCCCCC;}
	.st1{fill:#FFD646;}
	.st2{fill:#E30613;}
	.st3{fill:#008D36;}
</style>
<rect x="2" y="2012" width="23" height="23"/>
<rect x="2" y="3012" width="23" height="23"/>
<rect x="2" y="4012" width="23" height="23"/>
<rect x="2" y="5012" width="23" height="23"/>
<rect x="2" y="6212" width="23" height="23"/>
<rect x="2" y="12" width="23" height="23"/>
<rect x="2" y="1012" width="23" height="23"/>
<path class="st0" d="M37,6249.5c0-5.1,0-4.5,0-9.4h-3.8c0-3.3,0.3-6.3-0.8-8.6c-1-1.8-2.8-3.5-4.8-4c-4-1-7.6,1.5-9.1,4
	c-1.3,2.3-0.8,5.3-0.8,8.3c-1.3,0-2.3,0-3.8,0c0,2,0,3.5,0,7.3c0,5.1-0.8,7.8,2.8,9.1c2.3,0.8,6.6,0.3,9.1,0.3
	c2.8,0,6.8,0.5,9.1-0.3C37.2,6255.6,37,6252.8,37,6249.5z M29.9,6240.2c-1.5,0-3.3,0-4.8,0c-1.3,0-2.5,0-4,0
	c-0.3-4.5-0.3-8.3,3.3-9.4c2.3-0.5,4.3,0.8,5.1,2.8C30.2,6235.4,29.7,6237.7,29.9,6240.2z"/>
<g>
	<path class="st1" d="M21.7,2058.5c-0.7,0-1.4-0.4-1.8-1.1c-2-3.8-10.2-10.5-13.2-12.8c-0.9-0.7-1.1-1.9-0.4-2.8s1.9-1.1,2.8-0.4
		c1,0.7,8.1,6.2,12.2,11.1c2.6-5,9-15,22.3-26.1c0.8-0.7,2.1-0.6,2.8,0.3c0.7,0.8,0.6,2.1-0.3,2.8c-17.7,14.7-22.6,27.5-22.6,27.6
		c-0.3,0.7-1,1.3-1.7,1.3C21.8,2058.5,21.7,2058.5,21.7,2058.5z"/>
</g>
<rect x="2" y="9012" width="23" height="23"/>
<g>
	<path class="st1" d="M21.7,9058.5c-0.7,0-1.4-0.4-1.8-1.1c-2-3.8-10.2-10.5-13.2-12.8c-0.9-0.7-1.1-1.9-0.4-2.8s1.9-1.1,2.8-0.4
		c1,0.7,8.1,6.2,12.2,11.1c2.6-5,9-15,22.3-26.1c0.8-0.7,2.1-0.6,2.8,0.3c0.7,0.8,0.6,2.1-0.3,2.8c-17.7,14.7-22.6,27.5-22.6,27.6
		C23.2,9057.8,22.5,9058.4,21.7,9058.5C21.8,9058.5,21.7,9058.5,21.7,9058.5z"/>
</g>
<g>
	<path class="st1" d="M21.7,3058.5c-0.7,0-1.4-0.4-1.8-1.1c-2-3.8-10.2-10.5-13.2-12.8c-0.9-0.7-1.1-1.9-0.4-2.8
		c0.7-0.9,1.9-1.1,2.8-0.4c1,0.7,8.1,6.2,12.2,11.1c2.6-5,9-15,22.3-26.1c0.8-0.7,2.1-0.6,2.8,0.3c0.7,0.8,0.6,2.1-0.3,2.8
		c-17.7,14.7-22.6,27.5-22.6,27.6C23.2,3057.8,22.5,3058.4,21.7,3058.5C21.8,3058.5,21.7,3058.5,21.7,3058.5z"/>
</g>
<g>
	<path class="st2" d="M21.7,4058.5c-0.7,0-1.4-0.4-1.8-1.1c-2-3.8-10.2-10.5-13.2-12.8c-0.9-0.7-1.1-1.9-0.4-2.8
		c0.7-0.9,1.9-1.1,2.8-0.4c1,0.7,8.1,6.2,12.2,11.1c2.6-5,9-15,22.3-26.1c0.8-0.7,2.1-0.6,2.8,0.3c0.7,0.8,0.6,2.1-0.3,2.8
		c-17.7,14.7-22.6,27.5-22.6,27.6C23.2,4057.8,22.5,4058.4,21.7,4058.5C21.8,4058.5,21.7,4058.5,21.7,4058.5z"/>
</g>
<g>
	<path class="st3" d="M21.7,5058.5c-0.7,0-1.4-0.4-1.8-1.1c-2-3.8-10.2-10.5-13.2-12.8c-0.9-0.7-1.1-1.9-0.4-2.8s1.9-1.1,2.8-0.4
		c1,0.7,8.1,6.2,12.2,11.1c2.6-5,9-15,22.3-26.1c0.8-0.7,2.1-0.6,2.8,0.3c0.7,0.8,0.6,2.1-0.3,2.8c-17.7,14.7-22.6,27.5-22.6,27.6
		c-0.3,0.7-1,1.3-1.7,1.3C21.8,5058.5,21.7,5058.5,21.7,5058.5z"/>
</g>
</svg>
