<?xml version="1.0" encoding="utf-8"?>
<!-- Generator: Adobe Illustrator 23.0.1, SVG Export Plug-In . SVG Version: 6.00 Build 0)  -->
<svg version="1.1" id="Layer_1" xmlns="http://www.w3.org/2000/svg" xmlns:xlink="http://www.w3.org/1999/xlink" x="0px" y="0px"
	 width="50px" height="10200px" viewBox="0 0 50 10200" style="enable-background:new 0 0 50 10200; fill:transparent;" xml:space="preserve">
<style type="text/css">
	.st0{fill:#CCCCCC;}
	.st1{fill:#7F7F7F;}
	.st2{fill:#E30613;}
	.st3{fill:#008D36;}
           .st4{fill:#000000;}
</style>
<rect x="2" y="2012" width="23" height="23"/>
<rect x="2" y="3012" width="23" height="23"/>
<rect x="2" y="4012" width="23" height="23"/>
<rect x="2" y="5012" width="23" height="23"/>
<rect x="2" y="6212" width="23" height="23"/>
<rect x="2" y="12" width="23" height="23"/>
<rect x="2" y="1012" width="23" height="23"/>
<rect x="2" y="9012" width="23" height="23"/>
<g>
	<polygon class="st0" points="21.6,1057.7 13.9,1050.3 16,1048.1 21.3,1053.3 30.3,1041.9 32.6,1043.8 	"/>
</g>
<g>
	<polygon class="st4" points="21.6,2057.7 13.9,2050.3 16,2048.1 21.3,2053.3 30.3,2041.9 32.6,2043.8 	"/>
</g>
<g>
	<polygon class="st4" points="21.6,9058 13.9,9050.6 16,9048.4 21.3,9053.6 30.3,9042.2 32.6,9044.1 	"/>
</g>
<g>
	<polygon class="st1" points="21.6,3057.7 13.9,3050.3 16,3048.1 21.3,3053.3 30.3,3041.9 32.6,3043.8 	"/>
</g>
<g>
	<polygon class="st2" points="21.6,4057.7 13.9,4050.3 16,4048.1 21.3,4053.3 30.3,4041.9 32.6,4043.8 	"/>
</g>
<g>
	<polygon class="st3" points="21.6,5057.7 13.9,5050.3 16,5048.1 21.3,5053.3 30.3,5041.9 32.6,5043.8 	"/>
</g>
<path class="st0" d="M27.9,6245.1c0-2,0-1.8,0-3.7h-1.5c0-1.3,0.1-2.5-0.3-3.4c-0.4-0.7-1.1-1.4-1.9-1.6c-1.6-0.4-3,0.6-3.6,1.6
	c-0.5,0.9-0.3,2.1-0.3,3.3c-0.5,0-0.9,0-1.5,0c0,0.8,0,1.4,0,2.9c0,2-0.3,3.1,1.1,3.6c0.9,0.3,2.6,0.1,3.6,0.1
	c1.1,0,2.7,0.2,3.6-0.1C28,6247.5,27.9,6246.4,27.9,6245.1z M25.1,6241.4c-0.6,0-1.3,0-1.9,0c-0.5,0-1,0-1.6,0
	c-0.1-1.8-0.1-3.3,1.3-3.7c0.9-0.2,1.7,0.3,2,1.1C25.2,6239.5,25,6240.4,25.1,6241.4z"/>
</svg>
