<?xml version="1.0" encoding="iso-8859-1"?>
<!-- Generator: Adobe Illustrator 23.0.4, SVG Export Plug-In . SVG Version: 6.00 Build 0)  -->
<svg version="1.1" id="Layer_1" xmlns="http://www.w3.org/2000/svg" xmlns:xlink="http://www.w3.org/1999/xlink" x="0px" y="0px"
	 viewBox="0 0 70 10200" width="70px" height="10200px" style="enable-background:new 0 0 70 10200; fill:transparent;" xml:space="preserve">
<rect x="2" y="1012" width="23" height="23"/>
<rect x="2" y="2012" width="23" height="23"/>
<rect x="2" y="3012" width="23" height="23"/>
<rect x="2" y="4012" width="23" height="23"/>
<rect x="2" y="5012" width="23" height="23"/>
<rect x="2" y="6012" width="23" height="23"/>
<rect x="2" y="12" width="23" height="23"/>
<path style="fill:#CCCCCC;" d="M56.8,6068.5c0-9.5,0-8.3,0-17.4h-7c0-6.1,0.6-11.7-1.5-16c-1.9-3.3-5.2-6.5-8.9-7.4
	c-7.4-1.9-14.1,2.8-16.9,7.4c-2.4,4.3-1.5,9.8-1.5,15.4c-2.4,0-4.3,0-7,0c0,3.7,0,6.5,0,13.5c0,9.5-1.5,14.5,5.2,16.9
	c4.3,1.5,12.2,0.6,16.9,0.6c5.2,0,12.6,0.9,16.9-0.6C57.2,6079.8,56.8,6074.6,56.8,6068.5z M43.6,6051.3c-2.8,0-6.1,0-8.9,0
	c-2.4,0-4.6,0-7.4,0c-0.6-8.3-0.6-15.4,6.1-17.4c4.3-0.9,8,1.5,9.5,5.2C44.2,6042.3,43.3,6046.6,43.6,6051.3z"/>
<g>
	<path style="fill:#FFD646;" d="M35.4,2026.5c14.1,0,25.5,11.4,25.5,25.5c0,14.1-11.4,25.5-25.5,25.5S9.9,2066.1,9.9,2052
		C9.9,2037.9,21.3,2026.5,35.4,2026.5 M35.4,2022c-16.5,0-30,13.5-30,30s13.5,30,30,30s30-13.5,30-30S51.9,2022,35.4,2022L35.4,2022
		z"/>
</g>
<g>
	<path style="fill:#FFD646;" d="M35.4,3026.5c14.1,0,25.5,11.4,25.5,25.5s-11.4,25.5-25.5,25.5S9.9,3066.1,9.9,3052
		S21.3,3026.5,35.4,3026.5 M35.4,3022c-16.5,0-30,13.5-30,30s13.5,30,30,30s30-13.5,30-30S51.9,3022,35.4,3022L35.4,3022z"/>
</g>
<g>
	<path style="fill:#E30613;" d="M35.4,4026.5c14.1,0,25.5,11.4,25.5,25.5s-11.4,25.5-25.5,25.5S9.9,4066.1,9.9,4052
		S21.3,4026.5,35.4,4026.5 M35.4,4022c-16.5,0-30,13.5-30,30s13.5,30,30,30s30-13.5,30-30S51.9,4022,35.4,4022L35.4,4022z"/>
</g>
<g>
	<path style="fill:#008D36;" d="M35.4,5026.5c14.1,0,25.5,11.4,25.5,25.5s-11.4,25.5-25.5,25.5S9.9,5066.1,9.9,5052
		S21.3,5026.5,35.4,5026.5 M35.4,5022c-16.5,0-30,13.5-30,30s13.5,30,30,30s30-13.5,30-30S51.9,5022,35.4,5022L35.4,5022z"/>
</g>
<rect x="2" y="9021" width="23" height="23"/>
<g>
	<path style="fill:#FFD646;" d="M35.4,9035.5c14.1,0,25.5,11.4,25.5,25.5s-11.4,25.5-25.5,25.5S9.9,9075.1,9.9,9061
		S21.3,9035.5,35.4,9035.5 M35.4,9031c-16.5,0-30,13.5-30,30s13.5,30,30,30s30-13.5,30-30S51.9,9031,35.4,9031L35.4,9031z"/>
</g>
</svg>
