<?xml version="1.0" encoding="iso-8859-1"?>
<!-- Generator: Adobe Illustrator 23.0.4, SVG Export Plug-In . SVG Version: 6.00 Build 0)  -->
<svg version="1.1" id="Layer_1" xmlns="http://www.w3.org/2000/svg" xmlns:xlink="http://www.w3.org/1999/xlink" x="0px" y="0px"
	 viewBox="0 0 110 10200" width="110px" height="10200px" style="enable-background:new 0 0 110 10200; fill:transparent;" xml:space="preserve">
<rect x="2" y="1012" width="23" height="23"/>
<rect x="2" y="2012" width="23" height="23"/>
<rect x="2" y="3012" width="23" height="23"/>
<rect x="2" y="4012" width="23" height="23"/>
<rect x="2" y="5012" width="23" height="23"/>
<rect x="2" y="6012" width="23" height="23"/>
<rect x="2" y="12" width="23" height="23"/>
<path style="fill:#CCCCCC;" d="M96.8,6106.9c0-18.3,0-16.1,0-33.7H83.2c0-11.8,1.1-22.6-2.9-30.8c-3.6-6.4-10-12.5-17.2-14.3
	c-14.3-3.6-27.2,5.4-32.6,14.3c-4.7,8.2-2.9,19-2.9,29.7c-4.7,0-8.2,0-13.6,0c0,7.2,0,12.5,0,26.1c0,18.3-2.9,27.9,10,32.6
	c8.2,2.9,23.6,1.1,32.6,1.1c10,0,24.3,1.8,32.6-1.1C97.5,6128.7,96.8,6118.7,96.8,6106.9z M71.4,6073.6c-5.4,0-11.8,0-17.2,0
	c-4.7,0-9,0-14.3,0c-1.1-16.1-1.1-29.7,11.8-33.7c8.2-1.8,15.4,2.9,18.3,10C72.5,6056.4,70.7,6064.6,71.4,6073.6z"/>
<g>
	<path style="fill:#FFD646;" d="M55.4,2029.5c23.5,0,42.5,19,42.5,42.5s-19,42.5-42.5,42.5s-42.5-19-42.5-42.5
		C12.9,2048.5,31.9,2029.5,55.4,2029.5 M55.4,2022c-27.5,0-50,22.5-50,50s22.5,50,50,50s50-22.5,50-50S82.9,2022,55.4,2022
		L55.4,2022z"/>
</g>
<g>
	<path style="fill:#FFD646;" d="M55.4,3029.5c23.5,0,42.5,19,42.5,42.5s-19,42.5-42.5,42.5s-42.5-19-42.5-42.5
		S31.9,3029.5,55.4,3029.5 M55.4,3022c-27.5,0-50,22.5-50,50s22.5,50,50,50s50-22.5,50-50S82.9,3022,55.4,3022L55.4,3022z"/>
</g>
<g>
	<path style="fill:#E30613;" d="M55.4,4029.5c23.5,0,42.5,19,42.5,42.5s-19,42.5-42.5,42.5s-42.5-19-42.5-42.5
		S31.9,4029.5,55.4,4029.5 M55.4,4022c-27.5,0-50,22.5-50,50s22.5,50,50,50s50-22.5,50-50S82.9,4022,55.4,4022L55.4,4022z"/>
</g>
<g>
	<path style="fill:#008D36;" d="M55.4,5029.5c23.5,0,42.5,19,42.5,42.5s-19,42.5-42.5,42.5s-42.5-19-42.5-42.5
		C12.9,5048.5,31.9,5029.5,55.4,5029.5 M55.4,5022c-27.5,0-50,22.5-50,50s22.5,50,50,50s50-22.5,50-50S82.9,5022,55.4,5022
		L55.4,5022z"/>
</g>
<rect x="2" y="9021" width="23" height="23"/>
<g>
	<path style="fill:#FFD646;" d="M55.4,9038.5c23.5,0,42.5,19,42.5,42.5s-19,42.5-42.5,42.5s-42.5-19-42.5-42.5
		C12.9,9057.5,31.9,9038.5,55.4,9038.5 M55.4,9031c-27.5,0-50,22.5-50,50s22.5,50,50,50s50-22.5,50-50S82.9,9031,55.4,9031
		L55.4,9031z"/>
</g>
</svg>
