<?xml version="1.0" encoding="iso-8859-1"?>
<!-- Generator: Adobe Illustrator 23.0.4, SVG Export Plug-In . SVG Version: 6.00 Build 0)  -->
<svg version="1.1" id="Layer_1" xmlns="http://www.w3.org/2000/svg" xmlns:xlink="http://www.w3.org/1999/xlink" x="0px" y="0px"
	 viewBox="0 0 130 10200" width="130px" height="10200px" style="enable-background:new 0 0 130 10200; fill:transparent;" xml:space="preserve">
<rect x="2" y="1012" width="23" height="23"/>
<rect x="2" y="2012" width="23" height="23"/>
<rect x="2" y="3012" width="23" height="23"/>
<rect x="2" y="4012" width="23" height="23"/>
<rect x="2" y="5012" width="23" height="23"/>
<rect x="2" y="6012" width="23" height="23"/>
<rect x="2" y="12" width="23" height="23"/>
<path style="fill:#CCCCCC;" d="M116.8,6126c0-22.7,0-20,0-41.8H99.9c0-14.7,1.3-28-3.6-38.2c-4.4-8-12.4-15.6-21.3-17.8
	c-17.8-4.4-33.8,6.7-40.4,17.8c-5.8,10.2-3.6,23.5-3.6,36.9c-5.8,0-10.2,0-16.9,0c0,8.9,0,15.6,0,32.4c0,22.7-3.6,34.7,12.4,40.4
	c10.2,3.6,29.3,1.3,40.4,1.3c12.4,0,30.2,2.2,40.4-1.3C117.7,6153.1,116.8,6140.7,116.8,6126z M85.3,6084.7c-6.7,0-14.7,0-21.3,0
	c-5.8,0-11.1,0-17.8,0c-1.3-20-1.3-36.9,14.7-41.8c10.2-2.2,19.1,3.6,22.7,12.4C86.6,6063.4,84.4,6073.6,85.3,6084.7z"/>
<g>
	<path style="fill:#FFD646;" d="M65.4,2031c28.2,0,51,22.8,51,51s-22.8,51-51,51s-51-22.8-51-51C14.4,2053.8,37.2,2031,65.4,2031
		 M65.4,2022c-33,0-60,27-60,60s27,60,60,60s60-27,60-60S98.4,2022,65.4,2022L65.4,2022z"/>
</g>
<g>
	<path style="fill:#FFD646;" d="M65.4,3031c28.2,0,51,22.8,51,51s-22.8,51-51,51s-51-22.8-51-51S37.2,3031,65.4,3031 M65.4,3022
		c-33,0-60,27-60,60s27,60,60,60s60-27,60-60S98.4,3022,65.4,3022L65.4,3022z"/>
</g>
<g>
	<path style="fill:#E30613;" d="M65.4,4031c28.2,0,51,22.8,51,51c0,28.2-22.8,51-51,51s-51-22.8-51-51S37.2,4031,65.4,4031
		 M65.4,4022c-33,0-60,27-60,60s27,60,60,60s60-27,60-60S98.4,4022,65.4,4022L65.4,4022z"/>
</g>
<g>
	<path style="fill:#008D36;" d="M65.4,5031c28.2,0,51,22.8,51,51s-22.8,51-51,51s-51-22.8-51-51S37.2,5031,65.4,5031 M65.4,5022
		c-33,0-60,27-60,60s27,60,60,60s60-27,60-60S98.4,5022,65.4,5022L65.4,5022z"/>
</g>
<rect x="2" y="9021" width="23" height="23"/>
<g>
	<path style="fill:#FFD646;" d="M65.4,9040c28.2,0,51,22.8,51,51s-22.8,51-51,51s-51-22.8-51-51S37.2,9040,65.4,9040 M65.4,9031
		c-33,0-60,27-60,60s27,60,60,60s60-27,60-60S98.4,9031,65.4,9031L65.4,9031z"/>
</g>
</svg>
