<?xml version="1.0" encoding="utf-8"?>
<!-- Generator: Adobe Illustrator 23.0.1, SVG Export Plug-In . SVG Version: 6.00 Build 0)  -->
<svg version="1.1" id="Layer_1" xmlns="http://www.w3.org/2000/svg" xmlns:xlink="http://www.w3.org/1999/xlink" x="0px" y="0px"
	 viewBox="0 0 50 10200" width="50px" height="10200px" style="enable-background:new 0 0 50 10200; fill:transparent;" xml:space="preserve">
<style type="text/css">
	.st0{fill:#CCCCCC;}
	.st1{fill:#FFD646;}
	.st2{fill:#E30613;}
	.st3{fill:#008D36;}
</style>
<rect x="2" y="1012" width="23" height="23"/>
<rect x="2" y="2012" width="23" height="23"/>
<rect x="2" y="3012" width="23" height="23"/>
<rect x="2" y="4012" width="23" height="23"/>
<rect x="2" y="5012" width="23" height="23"/>
<rect x="2" y="6012" width="23" height="23"/>
<rect x="2" y="12" width="23" height="23"/>
<path class="st0" d="M37,6049.5c0-5.1,0-4.5,0-9.4h-3.8c0-3.3,0.3-6.3-0.8-8.6c-1-1.8-2.8-3.5-4.8-4c-4-1-7.6,1.5-9.1,4
	c-1.3,2.3-0.8,5.3-0.8,8.3c-1.3,0-2.3,0-3.8,0c0,2,0,3.5,0,7.3c0,5.1-0.8,7.8,2.8,9.1c2.3,0.8,6.6,0.3,9.1,0.3
	c2.8,0,6.8,0.5,9.1-0.3C37.2,6055.6,37,6052.8,37,6049.5z M29.9,6040.2c-1.5,0-3.3,0-4.8,0c-1.3,0-2.5,0-4,0
	c-0.3-4.5-0.3-8.3,3.3-9.4c2.3-0.5,4.3,0.8,5.1,2.8C30.2,6035.4,29.7,6037.7,29.9,6040.2z"/>
<g>
	<path class="st1" d="M25.4,2025c9.4,0,17,7.6,17,17c0,9.4-7.6,17-17,17s-17-7.6-17-17C8.4,2032.6,16,2025,25.4,2025 M25.4,2022
		c-11,0-20,9-20,20s9,20,20,20s20-9,20-20S36.4,2022,25.4,2022L25.4,2022z"/>
</g>
<rect x="2" y="9021" width="23" height="23"/>
<g>
	<path class="st1" d="M25.4,9034c9.4,0,17,7.6,17,17s-7.6,17-17,17s-17-7.6-17-17C8.4,9041.6,16,9034,25.4,9034 M25.4,9031
		c-11,0-20,9-20,20s9,20,20,20s20-9,20-20S36.4,9031,25.4,9031L25.4,9031z"/>
</g>
<g>
	<path class="st1" d="M25.4,3025c9.4,0,17,7.6,17,17s-7.6,17-17,17s-17-7.6-17-17S16,3025,25.4,3025 M25.4,3022c-11,0-20,9-20,20
		s9,20,20,20s20-9,20-20S36.4,3022,25.4,3022L25.4,3022z"/>
</g>
<g>
	<path class="st2" d="M25.4,4025c9.4,0,17,7.6,17,17s-7.6,17-17,17s-17-7.6-17-17S16,4025,25.4,4025 M25.4,4022c-11,0-20,9-20,20
		s9,20,20,20s20-9,20-20S36.4,4022,25.4,4022L25.4,4022z"/>
</g>
<g>
	<path class="st3" d="M25.4,5025c9.4,0,17,7.6,17,17s-7.6,17-17,17s-17-7.6-17-17S16,5025,25.4,5025 M25.4,5022c-11,0-20,9-20,20
		s9,20,20,20s20-9,20-20S36.4,5022,25.4,5022L25.4,5022z"/>
</g>
</svg>
