<?xml version="1.0" encoding="iso-8859-1"?>
<!-- Generator: Adobe Illustrator 23.0.4, SVG Export Plug-In . SVG Version: 6.00 Build 0)  -->
<svg version="1.1" id="Layer_1" xmlns="http://www.w3.org/2000/svg" xmlns:xlink="http://www.w3.org/1999/xlink" x="0px" y="0px"
	 viewBox="0 0 120 10200" width="120px" height="10200px" style="enable-background:new 0 0 120 10200; fill:transparent;" xml:space="preserve">
<rect x="2" y="1012" width="23" height="23"/>
<rect x="2" y="2012" width="23" height="23"/>
<rect x="2" y="3012" width="23" height="23"/>
<rect x="2" y="4012" width="23" height="23"/>
<rect x="2" y="5012" width="23" height="23"/>
<rect x="2" y="6012" width="23" height="23"/>
<rect x="2" y="12" width="23" height="23"/>
<path style="fill:#CCCCCC;" d="M106.8,6116.4c0-20.5,0-18.1,0-37.7H91.6c0-13.2,1.2-25.3-3.2-34.5c-4-7.2-11.2-14-19.3-16
	c-16-4-30.5,6-36.5,16c-5.2,9.2-3.2,21.3-3.2,33.3c-5.2,0-9.2,0-15.2,0c0,8,0,14,0,29.3c0,20.5-3.2,31.3,11.2,36.5
	c9.2,3.2,26.5,1.2,36.5,1.2c11.2,0,27.3,2,36.5-1.2C107.6,6140.9,106.8,6129.7,106.8,6116.4z M78.3,6079.1c-6,0-13.2,0-19.3,0
	c-5.2,0-10,0-16,0c-1.2-18.1-1.2-33.3,13.2-37.7c9.2-2,17.3,3.2,20.5,11.2C79.5,6059.9,77.5,6069.1,78.3,6079.1z"/>
<g>
	<path style="fill:#FFD646;" d="M60.4,2030.3c25.8,0,46.8,20.9,46.8,46.8c0,25.8-20.9,46.8-46.8,46.8s-46.7-20.9-46.7-46.8
		C13.6,2051.1,34.5,2030.3,60.4,2030.3 M60.4,2022c-30.3,0-55,24.8-55,55s24.7,55,55,55s55-24.8,55-55S90.7,2022,60.4,2022
		L60.4,2022z"/>
</g>
<g>
	<path style="fill:#FFD646;" d="M60.4,3030.3c25.8,0,46.8,20.9,46.8,46.8c0,25.8-20.9,46.8-46.8,46.8s-46.7-20.9-46.7-46.8
		C13.7,3051.2,34.5,3030.3,60.4,3030.3 M60.4,3022c-30.3,0-55,24.8-55,55s24.7,55,55,55s55-24.8,55-55S90.7,3022,60.4,3022
		L60.4,3022z"/>
</g>
<g>
	<path style="fill:#E30613;" d="M60.4,4030.3c25.8,0,46.8,20.9,46.8,46.8c0,25.8-20.9,46.8-46.8,46.8s-46.7-20.9-46.7-46.8
		C13.7,4051.2,34.5,4030.3,60.4,4030.3 M60.4,4022c-30.3,0-55,24.8-55,55c0,30.2,24.7,55,55,55s55-24.8,55-55S90.7,4022,60.4,4022
		L60.4,4022z"/>
</g>
<g>
	<path style="fill:#008D36;" d="M60.4,5030.3c25.8,0,46.8,20.9,46.8,46.8s-20.9,46.8-46.8,46.8s-46.7-20.9-46.7-46.8
		S34.5,5030.3,60.4,5030.3 M60.4,5022c-30.3,0-55,24.8-55,55s24.7,55,55,55s55-24.8,55-55S90.7,5022,60.4,5022L60.4,5022z"/>
</g>
<rect x="2" y="9031" width="23" height="23"/>
<g>
	<path style="fill:#FFD646;" d="M60.4,9049.3c25.8,0,46.8,20.899,46.8,46.8s-20.9,46.8-46.8,46.8S13.7,9122,13.7,9096.1
		S34.5,9049.3,60.4,9049.3 M60.4,9041c-30.3,0-55,24.8-55,55s24.7,55,55,55s55-24.8,55-55S90.7,9041,60.4,9041L60.4,9041z"/>
</g>
</svg>
