<?xml version="1.0" encoding="iso-8859-1"?>
<!-- Generator: Adobe Illustrator 23.0.4, SVG Export Plug-In . SVG Version: 6.00 Build 0)  -->
<svg version="1.1" id="Layer_1" xmlns="http://www.w3.org/2000/svg" xmlns:xlink="http://www.w3.org/1999/xlink" x="0px" y="0px"
	 viewBox="0 0 100 10200" width="100px" height="10200px" style="enable-background:new 0 0 100 10200; fill:transparent;" xml:space="preserve">
<rect x="2" y="1012" width="23" height="23"/>
<rect x="2" y="2012" width="23" height="23"/>
<rect x="2" y="3012" width="23" height="23"/>
<rect x="2" y="4012" width="23" height="23"/>
<rect x="2" y="5012" width="23" height="23"/>
<rect x="2" y="6012" width="23" height="23"/>
<rect x="2" y="12" width="23" height="23"/>
<path style="fill:#CCCCCC;" d="M86.8,6097.3c0-16.1,0-14.2,0-29.6h-12c0-10.4,0.9-19.8-2.5-27.1c-3.1-5.7-8.8-11-15.1-12.6
	c-12.6-3.1-23.9,4.7-28.7,12.6c-4.1,7.2-2.5,16.7-2.5,26.1c-4.1,0-7.2,0-12,0c0,6.3,0,11,0,23c0,16.1-2.5,24.6,8.8,28.7
	c7.2,2.5,20.8,0.9,28.7,0.9c8.8,0,21.4,1.6,28.7-0.9C87.4,6116.5,86.8,6107.7,86.8,6097.3z M64.5,6068c-4.7,0-10.4,0-15.1,0
	c-4.1,0-7.9,0-12.6,0c-0.9-14.2-0.9-26.1,10.4-29.6c7.2-1.6,13.5,2.5,16.1,8.8C65.4,6052.9,63.8,6060.1,64.5,6068z"/>
<g>
	<path style="fill:#FFD646;" d="M50.4,2028.8c21.1,0,38.3,17.1,38.3,38.3c0,21.1-17.1,38.3-38.2,38.3s-38.3-17.1-38.3-38.3
		C12.1,2045.8,29.3,2028.8,50.4,2028.8 M50.4,2022c-24.8,0-45,20.3-45,45s20.3,45,45,45s45-20.3,45-45S75.2,2022,50.4,2022
		L50.4,2022z"/>
</g>
<g>
	<path style="fill:#FFD646;" d="M50.4,3028.8c21.1,0,38.3,17.1,38.3,38.3s-17.1,38.3-38.2,38.3s-38.3-17.1-38.3-38.3
		S29.3,3028.8,50.4,3028.8 M50.4,3022c-24.8,0-45,20.3-45,45s20.3,45,45,45s45-20.3,45-45S75.2,3022,50.4,3022L50.4,3022z"/>
</g>
<g>
	<path style="fill:#E30613;" d="M50.4,4028.8c21.1,0,38.3,17.1,38.3,38.3c0,21.1-17.1,38.3-38.2,38.3s-38.3-17.1-38.3-38.3
		C12.2,4045.9,29.3,4028.8,50.4,4028.8 M50.4,4022c-24.8,0-45,20.3-45,45s20.3,45,45,45s45-20.3,45-45S75.2,4022,50.4,4022
		L50.4,4022z"/>
</g>
<g>
	<path style="fill:#008D36;" d="M50.4,5028.8c21.1,0,38.3,17.1,38.3,38.3s-17.1,38.3-38.2,38.3s-38.3-17.1-38.3-38.3
		S29.3,5028.8,50.4,5028.8 M50.4,5022c-24.8,0-45,20.3-45,45s20.3,45,45,45s45-20.3,45-45S75.2,5022,50.4,5022L50.4,5022z"/>
</g>
<rect x="2" y="9021" width="23" height="23"/>
<g>
	<path style="fill:#FFD646;" d="M50.4,9037.8c21.1,0,38.3,17.101,38.3,38.3s-17.1,38.3-38.2,38.3s-38.3-17.101-38.3-38.3
		S29.3,9037.8,50.4,9037.8 M50.4,9031c-24.8,0-45,20.3-45,45s20.3,45,45,45s45-20.3,45-45S75.2,9031,50.4,9031L50.4,9031z"/>
</g>
</svg>
