<?xml version="1.0" encoding="iso-8859-1"?>
<!-- Generator: Adobe Illustrator 23.0.4, SVG Export Plug-In . SVG Version: 6.00 Build 0)  -->
<svg version="1.1" id="Layer_1" xmlns="http://www.w3.org/2000/svg" xmlns:xlink="http://www.w3.org/1999/xlink" x="0px" y="0px"
	 viewBox="0 0 60 10200" width="60px" height="10200px" style="enable-background:new 0 0 60 10200; fill:transparent;" xml:space="preserve">
<rect x="2" y="1012" width="23" height="23"/>
<rect x="2" y="2012" width="23" height="23"/>
<rect x="2" y="3012" width="23" height="23"/>
<rect x="2" y="4012" width="23" height="23"/>
<rect x="2" y="5012" width="23" height="23"/>
<rect x="2" y="6012" width="23" height="23"/>
<rect x="2" y="12" width="23" height="23"/>
<path style="fill:#CCCCCC;" d="M46.8,6058.9c0-7.3,0-6.4,0-13.4h-5.4c0-4.7,0.4-9-1.1-12.2c-1.4-2.6-4-5-6.8-5.7
	c-5.7-1.4-10.8,2.1-13,5.7c-1.9,3.3-1.1,7.5-1.1,11.8c-1.9,0-3.3,0-5.4,0c0,2.8,0,5,0,10.4c0,7.3-1.1,11.1,4,13
	c3.3,1.1,9.4,0.4,13,0.4c4,0,9.7,0.7,13-0.4C47.1,6067.6,46.8,6063.6,46.8,6058.9z M36.7,6045.7c-2.1,0-4.7,0-6.8,0
	c-1.9,0-3.6,0-5.7,0c-0.4-6.4-0.4-11.8,4.7-13.4c3.3-0.7,6.1,1.1,7.3,4C37.1,6038.8,36.4,6042.1,36.7,6045.7z"/>
<g>
	<path style="fill:#FFD646;" d="M30.4,2025.8c11.8,0,21.3,9.5,21.3,21.3c0,11.7-9.5,21.3-21.3,21.3s-21.3-9.5-21.3-21.3
		C9.1,2035.3,18.6,2025.8,30.4,2025.8 M30.4,2022c-13.7,0-25,11.3-25,25s11.3,25,25,25s25-11.3,25-25S44.2,2022,30.4,2022L30.4,2022
		z"/>
</g>
<g>
	<path style="fill:#FFD646;" d="M30.4,3025.8c11.8,0,21.3,9.5,21.3,21.3c0,11.7-9.5,21.3-21.3,21.3s-21.3-9.5-21.3-21.3
		C9.2,3035.3,18.6,3025.8,30.4,3025.8 M30.4,3022c-13.7,0-25,11.3-25,25s11.3,25,25,25s25-11.3,25-25S44.2,3022,30.4,3022L30.4,3022
		z"/>
</g>
<g>
	<path style="fill:#E30613;" d="M30.4,4025.8c11.8,0,21.3,9.5,21.3,21.3c0,11.7-9.5,21.3-21.3,21.3s-21.3-9.5-21.3-21.3
		C9.2,4035.3,18.6,4025.8,30.4,4025.8 M30.4,4022c-13.7,0-25,11.3-25,25s11.3,25,25,25s25-11.3,25-25S44.2,4022,30.4,4022L30.4,4022
		z"/>
</g>
<g>
	<path style="fill:#008D36;" d="M30.4,5025.8c11.8,0,21.3,9.5,21.3,21.3s-9.5,21.3-21.3,21.3s-21.3-9.5-21.3-21.3
		S18.6,5025.8,30.4,5025.8 M30.4,5022c-13.7,0-25,11.3-25,25s11.3,25,25,25s25-11.3,25-25S44.2,5022,30.4,5022L30.4,5022z"/>
</g>
<rect x="2" y="9021" width="23" height="23"/>
<g>
	<path style="fill:#FFD646;" d="M30.4,9034.8c11.8,0,21.3,9.5,21.3,21.3s-9.5,21.3-21.3,21.3s-21.3-9.5-21.3-21.3
		S18.6,9034.8,30.4,9034.8 M30.4,9031c-13.7,0-25,11.3-25,25s11.3,25,25,25s25-11.3,25-25S44.2,9031,30.4,9031L30.4,9031z"/>
</g>
</svg>
