<?xml version="1.0" encoding="utf-8"?>
<!-- Generator: Adobe Illustrator 23.0.1, SVG Export Plug-In . SVG Version: 6.00 Build 0)  -->
<svg version="1.1" id="Layer_1" xmlns="http://www.w3.org/2000/svg" xmlns:xlink="http://www.w3.org/1999/xlink" x="0px" y="0px"
	 viewBox="0 0 50 10200" width="50px" height="10200px" style="enable-background:new 0 0 50 10200; fill:transparent;" xml:space="preserve">
<style type="text/css">
	.st0{fill:#FFD646;}
	.st1{fill:#E30613;}
	.st2{fill:#008D36;}
	.st3{fill:#CCCCCC;}
</style>
<rect x="2" y="1012" width="23" height="23"/>
<rect x="2" y="2012" width="23" height="23"/>
<rect x="2" y="3012" width="23" height="23"/>
<rect x="2" y="4012" width="23" height="23"/>
<rect x="2" y="5012" width="23" height="23"/>
<rect x="2" y="6012" width="23" height="23"/>
<rect x="2" y="12" width="23" height="23"/>
<polygon class="st0" points="43.6,2026.4 41,2023.8 25.4,2039.4 9.8,2023.8 7.2,2026.4 22.8,2042 7.2,2057.6 9.8,2060.2 
	25.4,2044.6 41,2060.2 43.6,2057.6 28,2042 "/>
<rect x="2" y="9039" width="23" height="23"/>
<polygon class="st0" points="43.6,9053.4 41,9050.8 25.4,9066.4 9.8,9050.8 7.2,9053.4 22.8,9069 7.2,9084.6 9.8,9087.2 
	25.4,9071.6 41,9087.2 43.6,9084.6 28,9069 "/>
<polygon class="st0" points="43.6,3026.4 41,3023.8 25.4,3039.4 9.8,3023.8 7.2,3026.4 22.8,3042 7.2,3057.6 9.8,3060.2 
	25.4,3044.6 41,3060.2 43.6,3057.6 28,3042 "/>
<polygon class="st1" points="43.6,4026.4 41,4023.8 25.4,4039.4 9.8,4023.8 7.2,4026.4 22.8,4042 7.2,4057.6 9.8,4060.2 
	25.4,4044.6 41,4060.2 43.6,4057.6 28,4042 "/>
<polygon class="st2" points="43.6,5026.4 41,5023.8 25.4,5039.4 9.8,5023.8 7.2,5026.4 22.8,5042 7.2,5057.6 9.8,5060.2 
	25.4,5044.6 41,5060.2 43.6,5057.6 28,5042 "/>
<path class="st3" d="M37,6049.5c0-5.1,0-4.5,0-9.4h-3.8c0-3.3,0.3-6.3-0.8-8.6c-1-1.8-2.8-3.5-4.8-4c-4-1-7.6,1.5-9.1,4
	c-1.3,2.3-0.8,5.3-0.8,8.3c-1.3,0-2.3,0-3.8,0c0,2,0,3.5,0,7.3c0,5.1-0.8,7.8,2.8,9.1c2.3,0.8,6.6,0.3,9.1,0.3
	c2.8,0,6.8,0.5,9.1-0.3C37.2,6055.6,37,6052.8,37,6049.5z M29.9,6040.2c-1.5,0-3.3,0-4.8,0c-1.3,0-2.5,0-4,0
	c-0.3-4.5-0.3-8.3,3.3-9.4c2.3-0.5,4.3,0.8,5.1,2.8C30.2,6035.4,29.7,6037.7,29.9,6040.2z"/>
</svg>
