<?xml version="1.0" encoding="utf-8"?>
<!-- Generator: Adobe Illustrator 23.0.1, SVG Export Plug-In . SVG Version: 6.00 Build 0)  -->
<svg version="1.1" id="Layer_1" xmlns="http://www.w3.org/2000/svg" xmlns:xlink="http://www.w3.org/1999/xlink" x="0px" y="0px"
	 viewBox="0 0 50 10200" width="50px" height="10200px" style="enable-background:new 0 0 50 10200; fill:transparent;" xml:space="preserve">
<style type="text/css">
	.st0{fill:#363636;}
	.st1{fill:#CCCCCC;}
	.st2{fill:#7F7F7F;}
	.st3{fill:#E30613;}
	.st4{fill:#008D36;}
           .st5{fill:#000000;}
</style>
<rect x="2" y="12" width="23" height="23"/>
<rect x="2" y="1012" width="23" height="23"/>
<rect x="2" y="6212" width="23" height="23"/>
<rect x="2" y="2012" width="23" height="23"/>
<g>
	<polygon class="st5" points="13.2,2030.3 5.5,2022.9 7.6,2020.7 12.9,2025.9 21.9,2014.5 24.2,2016.4 	"/>
</g>
<rect x="2" y="3012" width="23" height="23"/>
<rect x="2" y="4012" width="23" height="23"/>
<rect x="2" y="5012" width="23" height="23"/>
<g>
	<path class="st0" d="M2.8,23.5c0-2.9,1-5.4,3.1-7.5s4.6-3.1,7.6-3.1s5.5,1,7.5,3.1c2.1,2.1,3.1,4.6,3.1,7.5S23,28.9,21,31
		s-4.6,3.1-7.5,3.1c-3,0-5.5-1-7.6-3.1S2.8,26.4,2.8,23.5z M23.2,23.5c0-2.7-1-5-2.8-7c-1.9-1.9-4.2-2.9-6.8-2.9
		c-2.7,0-4.9,1-6.8,2.9s-2.9,4.2-2.9,7s0.9,5.1,2.9,7c1.9,1.9,4.2,2.9,6.8,2.9s4.9-0.9,6.8-2.9C22.2,28.6,23.2,26.2,23.2,23.5z
		 M11.2,23.7L10.5,23c-0.4,0.7-1,1.4-1.7,2.2c-0.8,0.9-1.6,1.6-2.7,2.1c-0.4,0.2-0.7,0.3-0.8,0.2c-0.2-0.1-0.1-0.2,0.1-0.3
		c0.6-0.4,1.2-0.9,1.8-1.6c0.6-0.6,1.1-1.3,1.6-2.1c0.4-0.7,0.8-1.4,1.2-2.2c0.4-0.8,0.6-1.5,0.8-2.1c0-0.1,0-0.2,0-0.3
		c0-0.1-0.1-0.2-0.1-0.3c-0.1-0.1-0.2-0.2-0.3-0.3c-0.1-0.1-0.3-0.3-0.5-0.4l0,0c-0.3-0.2-0.4-0.3-0.2-0.3c0.1-0.1,0.4,0,0.9,0.1
		c0.2,0.1,0.5,0.2,0.8,0.3c0.3,0.2,0.6,0.3,0.9,0.5c0.1,0.2,0.2,0.3,0.3,0.5c0,0.2-0.1,0.5-0.3,0.8c-0.1,0.2-0.2,0.3-0.3,0.5
		s-0.2,0.4-0.3,0.7c-0.3,0.6-0.5,1.1-0.7,1.4c0.2,0.2,0.4,0.4,0.7,0.6c0.2,0.3,0.4,0.5,0.7,0.7l0.3,0.3c0.2,0.2,0.4,0.3,0.6,0.4
		c0.2,0.2,0.4,0.3,0.6,0.4l0,0c0.1,0.1,0.1,0.1,0.2,0.1c0.1,0.1,0.1,0.1,0.2,0.1c0.2,0.2,0.4,0.3,0.7,0.5c0.2,0.2,0.4,0.5,0.5,0.8
		s0.1,0.6,0.1,0.7c0,0.2-0.1,0.3-0.2,0.3c-0.1,0-0.3,0-0.5-0.2c-0.2-0.1-0.4-0.3-0.7-0.5l0,0c-0.4-0.3-0.8-0.8-1.3-1.2
		C12.3,24.9,11.8,24.3,11.2,23.7z M15.7,15.1c0.4,0,0.8,0.1,1.2,0.2c0.4,0.1,0.9,0.3,1.3,0.5c0.2,0.1,0.3,0.2,0.3,0.2
		c0.1,0.1,0.1,0.2,0.1,0.3c0,0.2,0,0.3-0.1,0.4s-0.1,0.2-0.1,0.2v6.3h0.1c0.3,0,0.4-0.1,0.5-0.1l0,0c0.1,0,0.2-0.1,0.3-0.1
		c0.1-0.1,0.3-0.1,0.5-0.2s0.4-0.1,0.6-0.1c0.5,0,0.9,0.1,1.3,0.1c0.4,0.1,0.5,0.3,0.5,0.5s-0.3,0.3-0.9,0.3h-2.9V29
		c0,0.4-0.1,0.8-0.1,1.1c-0.1,0.4-0.1,0.7-0.2,1s-0.2,0.6-0.3,0.8c-0.2,0.2-0.3,0.3-0.4,0.3s-0.2-0.1-0.3-0.4
		C17,31.6,17,31.3,17,30.9V17c0-0.1,0-0.2,0-0.3c0-0.1-0.1-0.2-0.2-0.3c-0.3-0.3-0.6-0.5-0.8-0.7c-0.3-0.1-0.4-0.2-0.6-0.3h0.1h-0.1
		c-0.1,0-0.1,0-0.1,0c-0.1-0.1-0.1-0.1-0.1-0.2c0,0,0-0.1,0.1-0.1L15.7,15.1z"/>
</g>
<g>
	<path class="st0" d="M2.8,1023.5c0-2.9,1-5.4,3.1-7.5s4.6-3.1,7.6-3.1s5.5,1,7.5,3.1c2.1,2.1,3.1,4.6,3.1,7.5s-1.1,5.4-3.1,7.5
		s-4.6,3.1-7.5,3.1c-3,0-5.5-1-7.6-3.1S2.8,1026.4,2.8,1023.5z M23.2,1023.5c0-2.7-1-5-2.8-7c-1.9-1.9-4.2-2.9-6.8-2.9
		c-2.7,0-4.9,1-6.8,2.9s-2.9,4.2-2.9,7c0,2.8,0.9,5.1,2.9,7c1.9,1.9,4.2,2.9,6.8,2.9s4.9-0.9,6.8-2.9
		C22.2,1028.6,23.2,1026.2,23.2,1023.5z M11.2,1023.7l-0.7-0.7c-0.4,0.7-1,1.4-1.7,2.2c-0.8,0.9-1.6,1.6-2.7,2.1
		c-0.4,0.2-0.7,0.3-0.8,0.2c-0.2-0.1-0.1-0.2,0.1-0.3c0.6-0.4,1.2-0.9,1.8-1.6c0.6-0.6,1.1-1.3,1.6-2.1c0.4-0.7,0.8-1.4,1.2-2.2
		s0.6-1.5,0.8-2.1c0-0.1,0-0.2,0-0.3s-0.1-0.2-0.1-0.3c-0.1-0.1-0.2-0.2-0.3-0.3s-0.3-0.3-0.5-0.4l0,0c-0.3-0.2-0.4-0.3-0.2-0.3
		c0.1-0.1,0.4,0,0.9,0.1c0.2,0.1,0.5,0.2,0.8,0.3c0.3,0.2,0.6,0.3,0.9,0.5c0.1,0.2,0.2,0.3,0.3,0.5c0,0.2-0.1,0.5-0.3,0.8
		c-0.1,0.2-0.2,0.3-0.3,0.5s-0.2,0.4-0.3,0.7c-0.3,0.6-0.5,1.1-0.7,1.4c0.2,0.2,0.4,0.4,0.7,0.6c0.2,0.3,0.4,0.5,0.7,0.7l0.3,0.3
		c0.2,0.2,0.4,0.3,0.6,0.4c0.2,0.2,0.4,0.3,0.6,0.4l0,0c0.1,0.1,0.1,0.1,0.2,0.1c0.1,0.1,0.1,0.1,0.2,0.1c0.2,0.2,0.4,0.3,0.7,0.5
		c0.2,0.2,0.4,0.5,0.5,0.8s0.1,0.6,0.1,0.7c0,0.2-0.1,0.3-0.2,0.3c-0.1,0-0.3,0-0.5-0.2c-0.2-0.1-0.4-0.3-0.7-0.5l0,0
		c-0.4-0.3-0.8-0.8-1.3-1.2C12.3,1024.9,11.8,1024.3,11.2,1023.7z M15.7,1015.1c0.4,0,0.8,0.1,1.2,0.2c0.4,0.1,0.9,0.3,1.3,0.5
		c0.2,0.1,0.3,0.2,0.3,0.2c0.1,0.1,0.1,0.2,0.1,0.3c0,0.2,0,0.3-0.1,0.4c-0.1,0.1-0.1,0.2-0.1,0.2v6.3h0.1c0.3,0,0.4-0.1,0.5-0.1
		l0,0c0.1,0,0.2-0.1,0.3-0.1c0.1-0.1,0.3-0.1,0.5-0.2c0.2-0.1,0.4-0.1,0.6-0.1c0.5,0,0.9,0.1,1.3,0.1c0.4,0.1,0.5,0.3,0.5,0.5
		s-0.3,0.3-0.9,0.3h-2.9v5.3c0,0.4-0.1,0.8-0.1,1.1c-0.1,0.4-0.1,0.7-0.2,1s-0.2,0.6-0.3,0.8c-0.2,0.2-0.3,0.3-0.4,0.3
		s-0.2-0.1-0.3-0.4c-0.1-0.2-0.1-0.5-0.1-0.9V1017c0-0.1,0-0.2,0-0.3s-0.1-0.2-0.2-0.3c-0.3-0.3-0.6-0.5-0.8-0.7
		c-0.3-0.1-0.4-0.2-0.6-0.3h0.1h-0.1c-0.1,0-0.1,0-0.1,0c-0.1-0.1-0.1-0.1-0.1-0.2c0,0,0-0.1,0.1-0.1L15.7,1015.1z"/>
</g>
<g>
	<path class="st0" d="M2.8,2023.5c0-2.9,1-5.4,3.1-7.5s4.6-3.1,7.6-3.1s5.5,1,7.5,3.1c2.1,2.1,3.1,4.6,3.1,7.5s-1.1,5.4-3.1,7.5
		s-4.6,3.1-7.5,3.1c-3,0-5.5-1-7.6-3.1S2.8,2026.4,2.8,2023.5z M23.2,2023.5c0-2.7-1-5-2.8-7c-1.9-1.9-4.2-2.9-6.8-2.9
		c-2.7,0-4.9,1-6.8,2.9s-2.9,4.2-2.9,7s0.9,5.1,2.9,7c1.9,1.9,4.2,2.9,6.8,2.9s4.9-0.9,6.8-2.9C22.2,2028.6,23.2,2026.2,23.2,2023.5
		z M11.2,2023.7l-0.7-0.7c-0.4,0.7-1,1.4-1.7,2.2c-0.8,0.9-1.6,1.6-2.7,2.1c-0.4,0.2-0.7,0.3-0.8,0.2c-0.2-0.1-0.1-0.2,0.1-0.3
		c0.6-0.4,1.2-0.9,1.8-1.6c0.6-0.6,1.1-1.3,1.6-2.1c0.4-0.7,0.8-1.4,1.2-2.2c0.4-0.8,0.6-1.5,0.8-2.1c0-0.1,0-0.2,0-0.3
		c0-0.1-0.1-0.2-0.1-0.3c-0.1-0.1-0.2-0.2-0.3-0.3c-0.1-0.1-0.3-0.3-0.5-0.4l0,0c-0.3-0.2-0.4-0.3-0.2-0.3c0.1-0.1,0.4,0,0.9,0.1
		c0.2,0.1,0.5,0.2,0.8,0.3c0.3,0.2,0.6,0.3,0.9,0.5c0.1,0.2,0.2,0.3,0.3,0.5c0,0.2-0.1,0.5-0.3,0.8c-0.1,0.2-0.2,0.3-0.3,0.5
		s-0.2,0.4-0.3,0.7c-0.3,0.6-0.5,1.1-0.7,1.4c0.2,0.2,0.4,0.4,0.7,0.6c0.2,0.3,0.4,0.5,0.7,0.7l0.3,0.3c0.2,0.2,0.4,0.3,0.6,0.4
		c0.2,0.2,0.4,0.3,0.6,0.4l0,0c0.1,0.1,0.1,0.1,0.2,0.1c0.1,0.1,0.1,0.1,0.2,0.1c0.2,0.2,0.4,0.3,0.7,0.5c0.2,0.2,0.4,0.5,0.5,0.8
		s0.1,0.6,0.1,0.7c0,0.2-0.1,0.3-0.2,0.3c-0.1,0-0.3,0-0.5-0.2c-0.2-0.1-0.4-0.3-0.7-0.5l0,0c-0.4-0.3-0.8-0.8-1.3-1.2
		C12.3,2024.9,11.8,2024.3,11.2,2023.7z M15.7,2015.1c0.4,0,0.8,0.1,1.2,0.2s0.9,0.3,1.3,0.5c0.2,0.1,0.3,0.2,0.3,0.2
		c0.1,0.1,0.1,0.2,0.1,0.3c0,0.2,0,0.3-0.1,0.4s-0.1,0.2-0.1,0.2v6.3h0.1c0.3,0,0.4-0.1,0.5-0.1l0,0c0.1,0,0.2-0.1,0.3-0.1
		c0.1-0.1,0.3-0.1,0.5-0.2s0.4-0.1,0.6-0.1c0.5,0,0.9,0.1,1.3,0.1c0.4,0.1,0.5,0.3,0.5,0.5s-0.3,0.3-0.9,0.3h-2.9v5.3
		c0,0.4-0.1,0.8-0.1,1.1c-0.1,0.4-0.1,0.7-0.2,1s-0.2,0.6-0.3,0.8c-0.2,0.2-0.3,0.3-0.4,0.3s-0.2-0.1-0.3-0.4
		c-0.1-0.2-0.1-0.5-0.1-0.9V2017c0-0.1,0-0.2,0-0.3c0-0.1-0.1-0.2-0.2-0.3c-0.3-0.3-0.6-0.5-0.8-0.7c-0.3-0.1-0.4-0.2-0.6-0.3h0.1
		h-0.1c-0.1,0-0.1,0-0.1,0c-0.1-0.1-0.1-0.1-0.1-0.2c0,0,0-0.1,0.1-0.1H15.7z"/>
</g>
<g>
	<path class="st0" d="M2.8,3023.5c0-2.9,1-5.4,3.1-7.5s4.6-3.1,7.6-3.1s5.5,1,7.5,3.1c2.1,2.1,3.1,4.6,3.1,7.5s-1.1,5.4-3.1,7.5
		s-4.6,3.1-7.5,3.1c-3,0-5.5-1-7.6-3.1S2.8,3026.4,2.8,3023.5z M23.2,3023.5c0-2.7-1-5-2.8-7c-1.9-1.9-4.2-2.9-6.8-2.9
		c-2.7,0-4.9,1-6.8,2.9s-2.9,4.2-2.9,7s0.9,5.1,2.9,7c1.9,1.9,4.2,2.9,6.8,2.9s4.9-0.9,6.8-2.9C22.2,3028.6,23.2,3026.2,23.2,3023.5
		z M11.2,3023.7l-0.7-0.7c-0.4,0.7-1,1.4-1.7,2.2c-0.8,0.9-1.6,1.6-2.7,2.1c-0.4,0.2-0.7,0.3-0.8,0.2c-0.2-0.1-0.1-0.2,0.1-0.3
		c0.6-0.4,1.2-0.9,1.8-1.6c0.6-0.6,1.1-1.3,1.6-2.1c0.4-0.7,0.8-1.4,1.2-2.2s0.6-1.5,0.8-2.1c0-0.1,0-0.2,0-0.3s-0.1-0.2-0.1-0.3
		c-0.1-0.1-0.2-0.2-0.3-0.3s-0.3-0.3-0.5-0.4l0,0c-0.3-0.2-0.4-0.3-0.2-0.3c0.1-0.1,0.4,0,0.9,0.1c0.2,0.1,0.5,0.2,0.8,0.3
		c0.3,0.2,0.6,0.3,0.9,0.5c0.1,0.2,0.2,0.3,0.3,0.5c0,0.2-0.1,0.5-0.3,0.8c-0.1,0.2-0.2,0.3-0.3,0.5s-0.2,0.4-0.3,0.7
		c-0.3,0.6-0.5,1.1-0.7,1.4c0.2,0.2,0.4,0.4,0.7,0.6c0.2,0.3,0.4,0.5,0.7,0.7l0.3,0.3c0.2,0.2,0.4,0.3,0.6,0.4
		c0.2,0.2,0.4,0.3,0.6,0.4l0,0c0.1,0.1,0.1,0.1,0.2,0.1c0.1,0.1,0.1,0.1,0.2,0.1c0.2,0.2,0.4,0.3,0.7,0.5c0.2,0.2,0.4,0.5,0.5,0.8
		s0.1,0.6,0.1,0.7c0,0.2-0.1,0.3-0.2,0.3c-0.1,0-0.3,0-0.5-0.2c-0.2-0.1-0.4-0.3-0.7-0.5l0,0c-0.4-0.3-0.8-0.8-1.3-1.2
		C12.3,3024.9,11.8,3024.3,11.2,3023.7z M15.7,3015.1c0.4,0,0.8,0.1,1.2,0.2c0.4,0.1,0.9,0.3,1.3,0.5c0.2,0.1,0.3,0.2,0.3,0.2
		c0.1,0.1,0.1,0.2,0.1,0.3c0,0.2,0,0.3-0.1,0.4c-0.1,0.1-0.1,0.2-0.1,0.2v6.3h0.1c0.3,0,0.4-0.1,0.5-0.1l0,0c0.1,0,0.2-0.1,0.3-0.1
		c0.1-0.1,0.3-0.1,0.5-0.2c0.2-0.1,0.4-0.1,0.6-0.1c0.5,0,0.9,0.1,1.3,0.1c0.4,0.1,0.5,0.3,0.5,0.5s-0.3,0.3-0.9,0.3h-2.9v5.3
		c0,0.4-0.1,0.8-0.1,1.1c-0.1,0.4-0.1,0.7-0.2,1s-0.2,0.6-0.3,0.8c-0.2,0.2-0.3,0.3-0.4,0.3s-0.2-0.1-0.3-0.4
		c-0.1-0.2-0.1-0.5-0.1-0.9V3017c0-0.1,0-0.2,0-0.3s-0.1-0.2-0.2-0.3c-0.3-0.3-0.6-0.5-0.8-0.7c-0.3-0.1-0.4-0.2-0.6-0.3h0.1h-0.1
		c-0.1,0-0.1,0-0.1,0c-0.1-0.1-0.1-0.1-0.1-0.2c0,0,0-0.1,0.1-0.1L15.7,3015.1z"/>
</g>
<g>
	<path class="st0" d="M2.8,4023.5c0-2.9,1-5.4,3.1-7.5s4.6-3.1,7.6-3.1s5.5,1,7.5,3.1c2.1,2.1,3.1,4.6,3.1,7.5s-1.1,5.4-3.1,7.5
		s-4.6,3.1-7.5,3.1c-3,0-5.5-1-7.6-3.1S2.8,4026.4,2.8,4023.5z M23.2,4023.5c0-2.7-1-5-2.8-7c-1.9-1.9-4.2-2.9-6.8-2.9
		c-2.7,0-4.9,1-6.8,2.9s-2.9,4.2-2.9,7s0.9,5.1,2.9,7c1.9,1.9,4.2,2.9,6.8,2.9s4.9-0.9,6.8-2.9C22.2,4028.6,23.2,4026.2,23.2,4023.5
		z M11.2,4023.7l-0.7-0.7c-0.4,0.7-1,1.4-1.7,2.2c-0.8,0.9-1.6,1.6-2.7,2.1c-0.4,0.2-0.7,0.3-0.8,0.2c-0.2-0.1-0.1-0.2,0.1-0.3
		c0.6-0.4,1.2-0.9,1.8-1.6c0.6-0.6,1.1-1.3,1.6-2.1c0.4-0.7,0.8-1.4,1.2-2.2s0.6-1.5,0.8-2.1c0-0.1,0-0.2,0-0.3s-0.1-0.2-0.1-0.3
		c-0.1-0.1-0.2-0.2-0.3-0.3s-0.3-0.3-0.5-0.4l0,0c-0.3-0.2-0.4-0.3-0.2-0.3c0.1-0.1,0.4,0,0.9,0.1c0.2,0.1,0.5,0.2,0.8,0.3
		c0.3,0.2,0.6,0.3,0.9,0.5c0.1,0.2,0.2,0.3,0.3,0.5c0,0.2-0.1,0.5-0.3,0.8c-0.1,0.2-0.2,0.3-0.3,0.5s-0.2,0.4-0.3,0.7
		c-0.3,0.6-0.5,1.1-0.7,1.4c0.2,0.2,0.4,0.4,0.7,0.6c0.2,0.3,0.4,0.5,0.7,0.7l0.3,0.3c0.2,0.2,0.4,0.3,0.6,0.4
		c0.2,0.2,0.4,0.3,0.6,0.4l0,0c0.1,0.1,0.1,0.1,0.2,0.1c0.1,0.1,0.1,0.1,0.2,0.1c0.2,0.2,0.4,0.3,0.7,0.5c0.2,0.2,0.4,0.5,0.5,0.8
		s0.1,0.6,0.1,0.7c0,0.2-0.1,0.3-0.2,0.3c-0.1,0-0.3,0-0.5-0.2c-0.2-0.1-0.4-0.3-0.7-0.5l0,0c-0.4-0.3-0.8-0.8-1.3-1.2
		C12.3,4024.9,11.8,4024.3,11.2,4023.7z M15.7,4015.1c0.4,0,0.8,0.1,1.2,0.2c0.4,0.1,0.9,0.3,1.3,0.5c0.2,0.1,0.3,0.2,0.3,0.2
		c0.1,0.1,0.1,0.2,0.1,0.3c0,0.2,0,0.3-0.1,0.4c-0.1,0.1-0.1,0.2-0.1,0.2v6.3h0.1c0.3,0,0.4-0.1,0.5-0.1l0,0c0.1,0,0.2-0.1,0.3-0.1
		c0.1-0.1,0.3-0.1,0.5-0.2c0.2-0.1,0.4-0.1,0.6-0.1c0.5,0,0.9,0.1,1.3,0.1c0.4,0.1,0.5,0.3,0.5,0.5s-0.3,0.3-0.9,0.3h-2.9v5.3
		c0,0.4-0.1,0.8-0.1,1.1c-0.1,0.4-0.1,0.7-0.2,1s-0.2,0.6-0.3,0.8c-0.2,0.2-0.3,0.3-0.4,0.3s-0.2-0.1-0.3-0.4
		c-0.1-0.2-0.1-0.5-0.1-0.9V4017c0-0.1,0-0.2,0-0.3s-0.1-0.2-0.2-0.3c-0.3-0.3-0.6-0.5-0.8-0.7c-0.3-0.1-0.4-0.2-0.6-0.3h0.1h-0.1
		c-0.1,0-0.1,0-0.1,0c-0.1-0.1-0.1-0.1-0.1-0.2c0,0,0-0.1,0.1-0.1L15.7,4015.1z"/>
</g>
<g>
	<path class="st0" d="M2.8,5023.5c0-2.9,1-5.4,3.1-7.5s4.6-3.1,7.6-3.1s5.5,1,7.5,3.1c2.1,2.1,3.1,4.6,3.1,7.5s-1.1,5.4-3.1,7.5
		s-4.6,3.1-7.5,3.1c-3,0-5.5-1-7.6-3.1S2.8,5026.4,2.8,5023.5z M23.2,5023.5c0-2.7-1-5-2.8-7c-1.9-1.9-4.2-2.9-6.8-2.9
		c-2.7,0-4.9,1-6.8,2.9s-2.9,4.2-2.9,7s0.9,5.1,2.9,7c1.9,1.9,4.2,2.9,6.8,2.9s4.9-0.9,6.8-2.9C22.2,5028.6,23.2,5026.2,23.2,5023.5
		z M11.2,5023.7l-0.7-0.7c-0.4,0.7-1,1.4-1.7,2.2c-0.8,0.9-1.6,1.6-2.7,2.1c-0.4,0.2-0.7,0.3-0.8,0.2c-0.2-0.1-0.1-0.2,0.1-0.3
		c0.6-0.4,1.2-0.9,1.8-1.6c0.6-0.6,1.1-1.3,1.6-2.1c0.4-0.7,0.8-1.4,1.2-2.2c0.4-0.8,0.6-1.5,0.8-2.1c0-0.1,0-0.2,0-0.3
		c0-0.1-0.1-0.2-0.1-0.3c-0.1-0.1-0.2-0.2-0.3-0.3c-0.1-0.1-0.3-0.3-0.5-0.4l0,0c-0.3-0.2-0.4-0.3-0.2-0.3c0.1-0.1,0.4,0,0.9,0.1
		c0.2,0.1,0.5,0.2,0.8,0.3c0.3,0.2,0.6,0.3,0.9,0.5c0.1,0.2,0.2,0.3,0.3,0.5c0,0.2-0.1,0.5-0.3,0.8c-0.1,0.2-0.2,0.3-0.3,0.5
		s-0.2,0.4-0.3,0.7c-0.3,0.6-0.5,1.1-0.7,1.4c0.2,0.2,0.4,0.4,0.7,0.6c0.2,0.3,0.4,0.5,0.7,0.7l0.3,0.3c0.2,0.2,0.4,0.3,0.6,0.4
		c0.2,0.2,0.4,0.3,0.6,0.4l0,0c0.1,0.1,0.1,0.1,0.2,0.1c0.1,0.1,0.1,0.1,0.2,0.1c0.2,0.2,0.4,0.3,0.7,0.5c0.2,0.2,0.4,0.5,0.5,0.8
		s0.1,0.6,0.1,0.7c0,0.2-0.1,0.3-0.2,0.3c-0.1,0-0.3,0-0.5-0.2c-0.2-0.1-0.4-0.3-0.7-0.5l0,0c-0.4-0.3-0.8-0.8-1.3-1.2
		C12.3,5024.9,11.8,5024.3,11.2,5023.7z M15.7,5015.1c0.4,0,0.8,0.1,1.2,0.2s0.9,0.3,1.3,0.5c0.2,0.1,0.3,0.2,0.3,0.2
		c0.1,0.1,0.1,0.2,0.1,0.3c0,0.2,0,0.3-0.1,0.4s-0.1,0.2-0.1,0.2v6.3h0.1c0.3,0,0.4-0.1,0.5-0.1l0,0c0.1,0,0.2-0.1,0.3-0.1
		c0.1-0.1,0.3-0.1,0.5-0.2s0.4-0.1,0.6-0.1c0.5,0,0.9,0.1,1.3,0.1c0.4,0.1,0.5,0.3,0.5,0.5s-0.3,0.3-0.9,0.3h-2.9v5.3
		c0,0.4-0.1,0.8-0.1,1.1c-0.1,0.4-0.1,0.7-0.2,1s-0.2,0.6-0.3,0.8c-0.2,0.2-0.3,0.3-0.4,0.3s-0.2-0.1-0.3-0.4
		c-0.1-0.2-0.1-0.5-0.1-0.9V5017c0-0.1,0-0.2,0-0.3c0-0.1-0.1-0.2-0.2-0.3c-0.3-0.3-0.6-0.5-0.8-0.7c-0.3-0.1-0.4-0.2-0.6-0.3h0.1
		h-0.1c-0.1,0-0.1,0-0.1,0c-0.1-0.1-0.1-0.1-0.1-0.2c0,0,0-0.1,0.1-0.1H15.7z"/>
</g>
<g>
	<path class="st0" d="M2.8,6223.5c0-2.9,1-5.4,3.1-7.5s4.6-3.1,7.6-3.1s5.5,1,7.5,3.1c2.1,2.1,3.1,4.6,3.1,7.5s-1.1,5.4-3.1,7.5
		s-4.6,3.1-7.5,3.1c-3,0-5.5-1-7.6-3.1S2.8,6226.4,2.8,6223.5z M23.2,6223.5c0-2.7-1-5-2.8-7c-1.9-1.9-4.2-2.9-6.8-2.9
		c-2.7,0-4.9,1-6.8,2.9s-2.9,4.2-2.9,7s0.9,5.1,2.9,7c1.9,1.9,4.2,2.9,6.8,2.9s4.9-0.9,6.8-2.9C22.2,6228.6,23.2,6226.2,23.2,6223.5
		z M11.2,6223.7l-0.7-0.7c-0.4,0.7-1,1.4-1.7,2.2c-0.8,0.9-1.6,1.6-2.7,2.1c-0.4,0.2-0.7,0.3-0.8,0.2c-0.2-0.1-0.1-0.2,0.1-0.3
		c0.6-0.4,1.2-0.9,1.8-1.6c0.6-0.6,1.1-1.3,1.6-2.1c0.4-0.7,0.8-1.4,1.2-2.2c0.4-0.8,0.6-1.5,0.8-2.1c0-0.1,0-0.2,0-0.3
		c0-0.1-0.1-0.2-0.1-0.3c-0.1-0.1-0.2-0.2-0.3-0.3c-0.1-0.1-0.3-0.3-0.5-0.4l0,0c-0.3-0.2-0.4-0.3-0.2-0.3c0.1-0.1,0.4,0,0.9,0.1
		c0.2,0.1,0.5,0.2,0.8,0.3c0.3,0.2,0.6,0.3,0.9,0.5c0.1,0.2,0.2,0.3,0.3,0.5c0,0.2-0.1,0.5-0.3,0.8c-0.1,0.2-0.2,0.3-0.3,0.5
		s-0.2,0.4-0.3,0.7c-0.3,0.6-0.5,1.1-0.7,1.4c0.2,0.2,0.4,0.4,0.7,0.6c0.2,0.3,0.4,0.5,0.7,0.7l0.3,0.3c0.2,0.2,0.4,0.3,0.6,0.4
		c0.2,0.2,0.4,0.3,0.6,0.4l0,0c0.1,0.1,0.1,0.1,0.2,0.1c0.1,0.1,0.1,0.1,0.2,0.1c0.2,0.2,0.4,0.3,0.7,0.5c0.2,0.2,0.4,0.5,0.5,0.8
		s0.1,0.6,0.1,0.7c0,0.2-0.1,0.3-0.2,0.3c-0.1,0-0.3,0-0.5-0.2c-0.2-0.1-0.4-0.3-0.7-0.5l0,0c-0.4-0.3-0.8-0.8-1.3-1.2
		C12.3,6224.9,11.8,6224.3,11.2,6223.7z M15.7,6215.1c0.4,0,0.8,0.1,1.2,0.2s0.9,0.3,1.3,0.5c0.2,0.1,0.3,0.2,0.3,0.2
		c0.1,0.1,0.1,0.2,0.1,0.3c0,0.2,0,0.3-0.1,0.4s-0.1,0.2-0.1,0.2v6.3h0.1c0.3,0,0.4-0.1,0.5-0.1l0,0c0.1,0,0.2-0.1,0.3-0.1
		c0.1-0.1,0.3-0.1,0.5-0.2s0.4-0.1,0.6-0.1c0.5,0,0.9,0.1,1.3,0.1c0.4,0.1,0.5,0.3,0.5,0.5s-0.3,0.3-0.9,0.3h-2.9v5.3
		c0,0.4-0.1,0.8-0.1,1.1c-0.1,0.4-0.1,0.7-0.2,1s-0.2,0.6-0.3,0.8c-0.2,0.2-0.3,0.3-0.4,0.3s-0.2-0.1-0.3-0.4
		c-0.1-0.2-0.1-0.5-0.1-0.9V6217c0-0.1,0-0.2,0-0.3c0-0.1-0.1-0.2-0.2-0.3c-0.3-0.3-0.6-0.5-0.8-0.7c-0.3-0.1-0.4-0.2-0.6-0.3h0.1
		h-0.1c-0.1,0-0.1,0-0.1,0c-0.1-0.1-0.1-0.1-0.1-0.2c0,0,0-0.1,0.1-0.1H15.7z"/>
</g>
<g>
	<polygon class="st1" points="13.2,1030.3 5.5,1022.9 7.6,1020.7 12.9,1025.9 21.9,1014.5 24.2,1016.4 	"/>
</g>
<g>
	<polygon points="13.2,2030.3 5.5,2022.9 7.6,2020.7 12.9,2025.9 21.9,2014.5 24.2,2016.4 	"/>
</g>
<rect x="2" y="9034" width="23" height="23"/>
<g>
	<polygon points="13.2,9052.3 5.5,9044.9 7.6,9042.7 12.9,9047.9 21.9,9036.5 24.2,9038.4 	"/>
</g>
<g>
	<path class="st0" d="M2.8,9045.5c0-2.9,1-5.4,3.1-7.5s4.6-3.1,7.6-3.1s5.5,1,7.5,3.1c2.1,2.1,3.1,4.6,3.1,7.5s-1.1,5.4-3.1,7.5
		s-4.6,3.1-7.5,3.1c-3,0-5.5-1-7.6-3.1S2.8,9048.4,2.8,9045.5z M23.2,9045.5c0-2.7-1-5-2.8-7c-1.9-1.9-4.2-2.9-6.8-2.9
		c-2.7,0-4.9,1-6.8,2.9s-2.9,4.2-2.9,7s0.9,5.1,2.9,7c1.9,1.9,4.2,2.9,6.8,2.9s4.9-0.9,6.8-2.9C22.2,9050.6,23.2,9048.2,23.2,9045.5
		z M11.2,9045.7l-0.7-0.7c-0.4,0.7-1,1.4-1.7,2.2c-0.8,0.9-1.6,1.6-2.7,2.1c-0.4,0.2-0.7,0.3-0.8,0.2c-0.2-0.1-0.1-0.2,0.1-0.3
		c0.6-0.4,1.2-0.9,1.8-1.6c0.6-0.6,1.1-1.3,1.6-2.1c0.4-0.7,0.8-1.4,1.2-2.2s0.6-1.5,0.8-2.1c0-0.1,0-0.2,0-0.3
		c0-0.1-0.1-0.2-0.1-0.3c-0.1-0.1-0.2-0.2-0.3-0.3c-0.1-0.1-0.3-0.3-0.5-0.4l0,0c-0.3-0.2-0.4-0.3-0.2-0.3c0.1-0.1,0.4,0,0.9,0.1
		c0.2,0.1,0.5,0.2,0.8,0.3c0.3,0.2,0.6,0.3,0.9,0.5c0.1,0.2,0.2,0.3,0.3,0.5c0,0.2-0.1,0.5-0.3,0.8c-0.1,0.2-0.2,0.3-0.3,0.5
		s-0.2,0.4-0.3,0.7c-0.3,0.6-0.5,1.1-0.7,1.4c0.2,0.2,0.4,0.4,0.7,0.6c0.2,0.3,0.4,0.5,0.7,0.7l0.3,0.3c0.2,0.2,0.4,0.3,0.6,0.4
		c0.2,0.2,0.4,0.3,0.6,0.4l0,0c0.1,0.1,0.1,0.1,0.2,0.1c0.1,0.1,0.1,0.1,0.2,0.1c0.2,0.2,0.4,0.3,0.7,0.5c0.2,0.2,0.4,0.5,0.5,0.8
		s0.1,0.6,0.1,0.7c0,0.2-0.1,0.3-0.2,0.3c-0.1,0-0.3,0-0.5-0.2c-0.2-0.1-0.4-0.3-0.7-0.5l0,0c-0.4-0.3-0.8-0.8-1.3-1.2
		C12.3,9046.9,11.8,9046.3,11.2,9045.7z M15.7,9037.1c0.4,0,0.8,0.1,1.2,0.2c0.4,0.1,0.9,0.3,1.3,0.5c0.2,0.1,0.3,0.2,0.3,0.2
		c0.1,0.1,0.1,0.2,0.1,0.3c0,0.2,0,0.3-0.1,0.4c-0.1,0.1-0.1,0.2-0.1,0.2v6.3h0.1c0.3,0,0.4-0.1,0.5-0.1l0,0c0.1,0,0.2-0.1,0.3-0.1
		c0.1-0.1,0.3-0.1,0.5-0.2c0.2-0.1,0.4-0.1,0.6-0.1c0.5,0,0.9,0.1,1.3,0.1c0.4,0.1,0.5,0.3,0.5,0.5s-0.3,0.3-0.9,0.3h-2.9v5.3
		c0,0.4-0.1,0.8-0.1,1.1c-0.1,0.4-0.1,0.7-0.2,1s-0.2,0.6-0.3,0.8c-0.2,0.2-0.3,0.3-0.4,0.3s-0.2-0.1-0.3-0.4
		c-0.1-0.2-0.1-0.5-0.1-0.9V9039c0-0.1,0-0.2,0-0.3c0-0.1-0.1-0.2-0.2-0.3c-0.3-0.3-0.6-0.5-0.8-0.7c-0.3-0.1-0.4-0.2-0.6-0.3h0.1
		h-0.1c-0.1,0-0.1,0-0.1,0c-0.1-0.1-0.1-0.1-0.1-0.2c0,0,0-0.1,0.1-0.1H15.7z"/>
</g>
<g>
	<polygon class="st5" points="13.2,9052.3 5.5,9044.9 7.6,9042.7 12.9,9047.9 21.9,9036.5 24.2,9038.4 	"/>
</g>
<g>
	<polygon class="st2" points="13.2,3030.3 5.5,3022.9 7.6,3020.7 12.9,3025.9 21.9,3014.5 24.2,3016.4 	"/>
</g>
<g>
	<polygon class="st3" points="13.2,4030.3 5.5,4022.9 7.6,4020.7 12.9,4025.9 21.9,4014.5 24.2,4016.4 	"/>
</g>
<g>
	<polygon class="st4" points="13.2,5030.3 5.5,5022.9 7.6,5020.7 12.9,5025.9 21.9,5014.5 24.2,5016.4 	"/>
</g>
<path class="st1" d="M18.1,6226.5c0-2,0-1.8,0-3.7h-1.5c0-1.3,0.1-2.5-0.3-3.4c-0.4-0.7-1.1-1.4-1.9-1.6c-1.6-0.4-3,0.6-3.6,1.6
	c-0.5,0.9-0.3,2.1-0.3,3.3c-0.5,0-0.9,0-1.5,0c0,0.8,0,1.4,0,2.9c0,2-0.3,3.1,1.1,3.6c0.9,0.3,2.6,0.1,3.6,0.1
	c1.1,0,2.7,0.2,3.6-0.1C18.2,6228.9,18.1,6227.8,18.1,6226.5z M15.3,6222.8c-0.6,0-1.3,0-1.9,0c-0.5,0-1,0-1.6,0
	c-0.1-1.8-0.1-3.3,1.3-3.7c0.9-0.2,1.7,0.3,2,1.1C15.4,6220.9,15.2,6221.8,15.3,6222.8z"/>
</svg>
