<?xml version="1.0" encoding="utf-8"?>
<!-- Generator: Adobe Illustrator 23.0.1, SVG Export Plug-In . SVG Version: 6.00 Build 0)  -->
<svg version="1.1" id="Layer_1" xmlns="http://www.w3.org/2000/svg" xmlns:xlink="http://www.w3.org/1999/xlink" x="0px" y="0px"
	 viewBox="0 0 50 10200" width="50px" height="10200px" style="enable-background:new 0 0 50 10200; fill:transparent;" xml:space="preserve">
<style type="text/css">
	.st0{fill:#363636;}
	.st1{fill:#CCCCCC;}
	.st2{fill:#7F7F7F;}
	.st3{fill:#E30613;}
	.st4{fill:#008D36;}
           .st5{fill:#000000;}
</style>
<rect x="2" y="12" width="23" height="23"/>
<rect x="2" y="1012" width="23" height="23"/>
<rect x="2" y="6212" width="23" height="23"/>
<rect x="2" y="2012" width="23" height="23"/>
<g>
	<polygon class="st5" points="13.2,2030.3 5.5,2022.9 7.6,2020.7 12.9,2025.9 21.9,2014.5 24.2,2016.4 	"/>
</g>
<rect x="2" y="3012" width="23" height="23"/>
<rect x="2" y="4012" width="23" height="23"/>
<rect x="2" y="5012" width="23" height="23"/>
<g>
	<path class="st0" d="M2.8,23.5c0-2.9,1-5.4,3.1-7.5s4.6-3.1,7.6-3.1s5.5,1,7.5,3.1c2.1,2.1,3.1,4.6,3.1,7.5S23,28.9,21,31
		s-4.6,3.1-7.5,3.1c-3,0-5.5-1-7.6-3.1S2.8,26.4,2.8,23.5z M23.2,23.5c0-2.7-1-5-2.8-7c-1.9-1.9-4.2-2.9-6.8-2.9
		c-2.7,0-4.9,1-6.8,2.9s-2.9,4.2-2.9,7s0.9,5.1,2.9,7c1.9,1.9,4.2,2.9,6.8,2.9s4.9-0.9,6.8-2.9C22.2,28.6,23.2,26.2,23.2,23.5z
		 M5.5,28.5c1-0.6,1.8-1.2,2.7-1.8c0.8-0.6,1.5-1.3,2.1-2c0.6-0.6,1.1-1.3,1.6-2c0.4-0.7,0.8-1.3,1.1-2c-0.2,0-0.3,0-0.5,0
		s-0.3,0-0.4,0c-0.2,0-0.3,0-0.4,0c-0.1,0-0.2,0-0.3,0c-0.2,0-0.4,0.1-0.5,0.1c-0.2,0-0.4,0.1-0.6,0.1C10.1,21,9.9,21,9.8,21
		c-0.2,0-0.3,0.1-0.4,0.1C9.1,21,9,21,8.9,21s-0.2,0-0.3,0c-0.3,0-0.6,0-0.8-0.1c-0.2-0.1-0.4-0.1-0.6-0.2s-0.3-0.2-0.4-0.3
		c-0.1-0.1-0.2-0.1-0.2-0.2S6.7,20,6.9,20c0.5,0.1,1.1,0.1,1.6,0.2s1.1,0.1,1.7,0c0.3,0,0.6,0,0.9-0.1c0.3,0,0.6-0.1,0.8-0.1
		s0.5-0.1,0.8-0.1s0.6-0.1,0.9-0.2c0.1,0,0.1,0,0.2,0c0.1,0,0.1,0,0.2,0c0.4,0,0.6,0.1,0.6,0.4c0,0.2-0.1,0.3-0.2,0.4l0,0
		c-0.1,0.1-0.1,0.1-0.1,0.1c0,0.1-0.1,0.1-0.1,0.1l-0.1,0.1C14,20.9,14,20.9,14,20.9c-0.5,1-1.2,2-2.2,3.1l0.5,0.5l0.8,0.7l0,0
		c0.2,0.2,0.3,0.3,0.5,0.3c0.2,0.1,0.3,0.2,0.4,0.3c0.1,0,0.1,0,0.1,0s0,0,0.1,0c0,0,0.1,0.1,0.2,0.1c0.1,0.1,0.2,0.2,0.4,0.3
		c0.1,0.1,0.3,0.3,0.5,0.5s0.3,0.5,0.4,0.8c0.2,0.6,0.1,0.9-0.2,0.9s-0.7-0.2-1.1-0.7c-0.2-0.2-0.4-0.4-0.6-0.7
		c-0.3-0.2-0.5-0.5-0.7-0.8c-0.3-0.2-0.5-0.5-0.8-0.8s-0.5-0.6-0.9-0.9L11,24.9c-1.3,1.3-2.5,2.3-3.6,2.9s-1.8,0.9-2.1,0.9
		c-0.1,0-0.2,0-0.2-0.1C5,28.6,5,28.5,5,28.5C5.3,28.6,5.4,28.6,5.5,28.5L5.5,28.5z M11,18.1c-0.3,0-0.5,0-0.6-0.1
		c-0.1,0-0.3,0-0.4-0.1c-0.3-0.1-0.6-0.3-0.9-0.6C8.8,17.1,8.7,17,8.8,17c0.2,0,0.3-0.1,0.5-0.1s0.3,0,0.4,0.1
		c0.7,0.2,1.2,0.3,1.5,0.3c0.1,0,0.2,0,0.3,0s0.2,0,0.3,0s0.2,0,0.3,0s0.2,0,0.3,0c0.7,0.1,1,0.2,1,0.5s-0.3,0.4-0.8,0.4
		c-0.2,0-0.4,0-0.5,0c-0.2,0-0.3,0-0.3,0L11,18.1L11,18.1z M18.7,28.9c0,0.8-0.1,1.5-0.3,2.2c-0.2,0.7-0.4,1.1-0.7,1.1
		c-0.1,0-0.2-0.1-0.3-0.4c-0.1-0.2-0.1-0.5-0.1-0.9V17c0-0.1,0-0.1,0-0.2s-0.1-0.2-0.2-0.3c-0.3-0.3-0.6-0.5-0.8-0.7
		c-0.2-0.1-0.4-0.2-0.5-0.3h0.1h-0.1c-0.1,0-0.1,0-0.1,0c-0.1-0.1-0.1-0.1-0.1-0.2c0,0,0.1-0.1,0.2-0.2h0.1c0.4,0,0.8,0.1,1.2,0.2
		c0.4,0.1,0.9,0.3,1.3,0.5c0.2,0.1,0.3,0.2,0.3,0.2c0,0.1,0.1,0.2,0.1,0.3c0,0.2,0,0.3-0.1,0.4c0,0.1,0,0.2,0,0.3v6.3h0.2
		c0.1,0,0.2,0,0.3-0.1c0.1,0,0.2,0,0.2,0l0,0c0,0,0.1,0,0.1-0.1c0,0,0.1,0,0.2-0.1s0.3-0.1,0.5-0.2s0.4-0.1,0.6-0.1
		c0.5,0,0.9,0.1,1.3,0.1c0.4,0.1,0.5,0.3,0.5,0.5s-0.3,0.3-0.9,0.3h-2.9v5.3H18.7z"/>
</g>
<g>
	<path class="st0" d="M2.8,1023.5c0-2.9,1-5.4,3.1-7.5s4.6-3.1,7.6-3.1s5.5,1,7.5,3.1c2.1,2.1,3.1,4.6,3.1,7.5s-1.1,5.4-3.1,7.5
		s-4.6,3.1-7.5,3.1c-3,0-5.5-1-7.6-3.1S2.8,1026.4,2.8,1023.5z M23.2,1023.5c0-2.7-1-5-2.8-7c-1.9-1.9-4.2-2.9-6.8-2.9
		c-2.7,0-4.9,1-6.8,2.9s-2.9,4.2-2.9,7c0,2.8,0.9,5.1,2.9,7c1.9,1.9,4.2,2.9,6.8,2.9s4.9-0.9,6.8-2.9
		C22.2,1028.6,23.2,1026.2,23.2,1023.5z M5.5,1028.5c1-0.6,1.8-1.2,2.7-1.8c0.8-0.6,1.5-1.3,2.1-2c0.6-0.6,1.1-1.3,1.6-2
		c0.4-0.7,0.8-1.3,1.1-2c-0.2,0-0.3,0-0.5,0s-0.3,0-0.4,0c-0.2,0-0.3,0-0.4,0c-0.1,0-0.2,0-0.3,0c-0.2,0-0.4,0.1-0.5,0.1
		c-0.2,0-0.4,0.1-0.6,0.1c-0.2,0.1-0.4,0.1-0.5,0.1c-0.2,0-0.3,0.1-0.4,0.1c-0.2,0.1-0.3,0.1-0.4,0.1c-0.1,0-0.2,0-0.3,0
		c-0.3,0-0.6,0-0.8-0.1s-0.4-0.1-0.6-0.2c-0.2-0.1-0.3-0.2-0.4-0.3s-0.2-0.1-0.2-0.2c0-0.1,0.1-0.2,0.3-0.2c0.5,0.1,1.1,0.1,1.6,0.2
		c0.5,0.1,1.1,0.1,1.7,0c0.3,0,0.6,0,0.9-0.1c0.3,0,0.6-0.1,0.8-0.1s0.5-0.1,0.8-0.1s0.6-0.1,0.9-0.2c0.1,0,0.1,0,0.2,0
		c0.1,0,0.1,0,0.2,0c0.4,0,0.6,0.1,0.6,0.4c0,0.2-0.1,0.3-0.2,0.4l0,0c-0.1,0.1-0.1,0.1-0.1,0.1c0,0.1-0.1,0.1-0.1,0.1l-0.1,0.1
		c-0.1,0.1-0.1,0.1-0.1,0.1c-0.5,1-1.2,2-2.2,3.1l0.5,0.5l0.8,0.7l0,0c0.2,0.2,0.3,0.3,0.5,0.3c0.2,0.1,0.3,0.2,0.4,0.3
		c0.1,0,0.1,0,0.1,0s0,0,0.1,0c0,0,0.1,0.1,0.2,0.1c0.1,0.1,0.2,0.2,0.4,0.3c0.1,0.1,0.3,0.3,0.5,0.5s0.3,0.5,0.4,0.8
		c0.2,0.6,0.1,0.9-0.2,0.9s-0.7-0.2-1.1-0.7c-0.2-0.2-0.4-0.4-0.6-0.7c-0.3-0.2-0.5-0.5-0.7-0.8c-0.3-0.2-0.5-0.5-0.8-0.8
		s-0.5-0.6-0.9-0.9l-0.4,0.4c-1.3,1.3-2.5,2.3-3.6,2.9s-1.8,0.9-2.1,0.9c-0.1,0-0.2,0-0.2-0.1c-0.1,0-0.1-0.1-0.1-0.1
		C5.3,1028.6,5.4,1028.6,5.5,1028.5L5.5,1028.5z M11,1018.1c-0.3,0-0.5,0-0.6-0.1c-0.1,0-0.3,0-0.4-0.1c-0.3-0.1-0.6-0.3-0.9-0.6
		c-0.3-0.2-0.4-0.3-0.3-0.3c0.1-0.1,0.3-0.2,0.4-0.2c0.2,0,0.3,0,0.4,0.1c0.7,0.2,1.2,0.3,1.5,0.3c0.1,0,0.2,0,0.3,0s0.2,0,0.3,0
		s0.2,0,0.3,0s0.2,0,0.3,0c0.7,0.1,1,0.2,1,0.5s-0.3,0.4-0.8,0.4c-0.2,0-0.4,0-0.5,0c-0.2,0-0.3,0-0.3,0L11,1018.1L11,1018.1z
		 M18.7,1028.9c0,0.8-0.1,1.5-0.3,2.2c-0.2,0.7-0.4,1.1-0.7,1.1c-0.1,0-0.2-0.1-0.3-0.4c-0.1-0.2-0.1-0.5-0.1-0.9V1017
		c0-0.1,0-0.1,0-0.2c0-0.1-0.1-0.2-0.2-0.3c-0.3-0.3-0.6-0.5-0.8-0.7c-0.2-0.1-0.4-0.2-0.5-0.3h0.1h-0.1c-0.1,0-0.1,0-0.1,0
		c-0.1-0.1-0.1-0.1-0.1-0.2c0,0,0.1-0.1,0.2-0.2h0.1c0.4,0,0.8,0.1,1.2,0.2c0.4,0.1,0.9,0.3,1.3,0.5c0.2,0.1,0.3,0.2,0.3,0.2
		c0,0.1,0.1,0.2,0.1,0.3c0,0.2,0,0.3-0.1,0.4c0,0.1,0,0.2,0,0.3v6.3h0.2c0.1,0,0.2,0,0.3-0.1c0.1,0,0.2,0,0.2,0l0,0
		c0,0,0.1,0,0.1-0.1c0,0,0.1,0,0.2-0.1s0.3-0.1,0.5-0.2c0.2-0.1,0.4-0.1,0.6-0.1c0.5,0,0.9,0.1,1.3,0.1c0.4,0.1,0.5,0.3,0.5,0.5
		s-0.3,0.3-0.9,0.3h-2.9v5.3H18.7z"/>
</g>
<g>
	<path class="st0" d="M2.8,2023.5c0-2.9,1-5.4,3.1-7.5s4.6-3.1,7.6-3.1s5.5,1,7.5,3.1c2.1,2.1,3.1,4.6,3.1,7.5s-1.1,5.4-3.1,7.5
		s-4.6,3.1-7.5,3.1c-3,0-5.5-1-7.6-3.1S2.8,2026.4,2.8,2023.5z M23.2,2023.5c0-2.7-1-5-2.8-7c-1.9-1.9-4.2-2.9-6.8-2.9
		c-2.7,0-4.9,1-6.8,2.9s-2.9,4.2-2.9,7s0.9,5.1,2.9,7c1.9,1.9,4.2,2.9,6.8,2.9s4.9-0.9,6.8-2.9C22.2,2028.6,23.2,2026.2,23.2,2023.5
		z M5.5,2028.5c1-0.6,1.8-1.2,2.7-1.8c0.8-0.6,1.5-1.3,2.1-2c0.6-0.6,1.1-1.3,1.6-2c0.4-0.7,0.8-1.3,1.1-2c-0.2,0-0.3,0-0.5,0
		s-0.3,0-0.4,0c-0.2,0-0.3,0-0.4,0c-0.1,0-0.2,0-0.3,0c-0.2,0-0.4,0.1-0.5,0.1c-0.2,0-0.4,0.1-0.6,0.1c-0.2,0.1-0.4,0.1-0.5,0.1
		c-0.2,0-0.3,0.1-0.4,0.1c-0.2,0.1-0.3,0.1-0.4,0.1c-0.1,0-0.2,0-0.3,0c-0.3,0-0.6,0-0.8-0.1s-0.4-0.1-0.6-0.2s-0.3-0.2-0.4-0.3
		c-0.1-0.1-0.2-0.1-0.2-0.2s0.1-0.2,0.3-0.2c0.5,0.1,1.1,0.1,1.6,0.2s1.1,0.1,1.7,0c0.3,0,0.6,0,0.9-0.1c0.3,0,0.6-0.1,0.8-0.1
		s0.5-0.1,0.8-0.1s0.6-0.1,0.9-0.2c0.1,0,0.1,0,0.2,0c0.1,0,0.1,0,0.2,0c0.4,0,0.6,0.1,0.6,0.4c0,0.2-0.1,0.3-0.2,0.4l0,0
		c-0.1,0.1-0.1,0.1-0.1,0.1c0,0.1-0.1,0.1-0.1,0.1l-0.1,0.1c-0.1,0.1-0.1,0.1-0.1,0.1c-0.5,1-1.2,2-2.2,3.1l0.5,0.5l0.8,0.7l0,0
		c0.2,0.2,0.3,0.3,0.5,0.3c0.2,0.1,0.3,0.2,0.4,0.3c0.1,0,0.1,0,0.1,0s0,0,0.1,0c0,0,0.1,0.1,0.2,0.1c0.1,0.1,0.2,0.2,0.4,0.3
		c0.1,0.1,0.3,0.3,0.5,0.5s0.3,0.5,0.4,0.8c0.2,0.6,0.1,0.9-0.2,0.9s-0.7-0.2-1.1-0.7c-0.2-0.2-0.4-0.4-0.6-0.7
		c-0.3-0.2-0.5-0.5-0.7-0.8c-0.3-0.2-0.5-0.5-0.8-0.8s-0.5-0.6-0.9-0.9l-0.4,0.4c-1.3,1.3-2.5,2.3-3.6,2.9s-1.8,0.9-2.1,0.9
		c-0.1,0-0.2,0-0.2-0.1c-0.1,0-0.1-0.1-0.1-0.1C5.3,2028.6,5.4,2028.6,5.5,2028.5L5.5,2028.5z M11,2018.1c-0.3,0-0.5,0-0.6-0.1
		c-0.1,0-0.3,0-0.4-0.1c-0.3-0.1-0.6-0.3-0.9-0.6c-0.3-0.2-0.4-0.3-0.3-0.3c0.1-0.1,0.3-0.2,0.4-0.2c0.2,0,0.3,0,0.4,0.1
		c0.7,0.2,1.2,0.3,1.5,0.3c0.1,0,0.2,0,0.3,0s0.2,0,0.3,0s0.2,0,0.3,0s0.2,0,0.3,0c0.7,0.1,1,0.2,1,0.5s-0.3,0.4-0.8,0.4
		c-0.2,0-0.4,0-0.5,0c-0.2,0-0.3,0-0.3,0L11,2018.1L11,2018.1z M18.7,2028.9c0,0.8-0.1,1.5-0.3,2.2c-0.2,0.7-0.4,1.1-0.7,1.1
		c-0.1,0-0.2-0.1-0.3-0.4c-0.1-0.2-0.1-0.5-0.1-0.9V2017c0-0.1,0-0.1,0-0.2s-0.1-0.2-0.2-0.3c-0.3-0.3-0.6-0.5-0.8-0.7
		c-0.2-0.1-0.4-0.2-0.5-0.3h0.1h-0.1c-0.1,0-0.1,0-0.1,0c-0.1-0.1-0.1-0.1-0.1-0.2c0,0,0.1-0.1,0.2-0.2h0.1c0.4,0,0.8,0.1,1.2,0.2
		s0.9,0.3,1.3,0.5c0.2,0.1,0.3,0.2,0.3,0.2c0,0.1,0.1,0.2,0.1,0.3c0,0.2,0,0.3-0.1,0.4c0,0.1,0,0.2,0,0.3v6.3h0.2
		c0.1,0,0.2,0,0.3-0.1c0.1,0,0.2,0,0.2,0l0,0c0,0,0.1,0,0.1-0.1c0,0,0.1,0,0.2-0.1s0.3-0.1,0.5-0.2s0.4-0.1,0.6-0.1
		c0.5,0,0.9,0.1,1.3,0.1c0.4,0.1,0.5,0.3,0.5,0.5s-0.3,0.3-0.9,0.3h-2.9v5.3H18.7z"/>
</g>
<g>
	<path class="st0" d="M2.8,3023.5c0-2.9,1-5.4,3.1-7.5s4.6-3.1,7.6-3.1s5.5,1,7.5,3.1c2.1,2.1,3.1,4.6,3.1,7.5s-1.1,5.4-3.1,7.5
		s-4.6,3.1-7.5,3.1c-3,0-5.5-1-7.6-3.1S2.8,3026.4,2.8,3023.5z M23.2,3023.5c0-2.7-1-5-2.8-7c-1.9-1.9-4.2-2.9-6.8-2.9
		c-2.7,0-4.9,1-6.8,2.9s-2.9,4.2-2.9,7s0.9,5.1,2.9,7c1.9,1.9,4.2,2.9,6.8,2.9s4.9-0.9,6.8-2.9C22.2,3028.6,23.2,3026.2,23.2,3023.5
		z M5.5,3028.5c1-0.6,1.8-1.2,2.7-1.8c0.8-0.6,1.5-1.3,2.1-2c0.6-0.6,1.1-1.3,1.6-2c0.4-0.7,0.8-1.3,1.1-2c-0.2,0-0.3,0-0.5,0
		s-0.3,0-0.4,0c-0.2,0-0.3,0-0.4,0c-0.1,0-0.2,0-0.3,0c-0.2,0-0.4,0.1-0.5,0.1c-0.2,0-0.4,0.1-0.6,0.1c-0.2,0.1-0.4,0.1-0.5,0.1
		c-0.2,0-0.3,0.1-0.4,0.1c-0.2,0.1-0.3,0.1-0.4,0.1c-0.1,0-0.2,0-0.3,0c-0.3,0-0.6,0-0.8-0.1s-0.4-0.1-0.6-0.2
		c-0.2-0.1-0.3-0.2-0.4-0.3s-0.2-0.1-0.2-0.2c0-0.1,0.1-0.2,0.3-0.2c0.5,0.1,1.1,0.1,1.6,0.2c0.5,0.1,1.1,0.1,1.7,0
		c0.3,0,0.6,0,0.9-0.1c0.3,0,0.6-0.1,0.8-0.1s0.5-0.1,0.8-0.1s0.6-0.1,0.9-0.2c0.1,0,0.1,0,0.2,0c0.1,0,0.1,0,0.2,0
		c0.4,0,0.6,0.1,0.6,0.4c0,0.2-0.1,0.3-0.2,0.4l0,0c-0.1,0.1-0.1,0.1-0.1,0.1c0,0.1-0.1,0.1-0.1,0.1l-0.1,0.1
		c-0.1,0.1-0.1,0.1-0.1,0.1c-0.5,1-1.2,2-2.2,3.1l0.5,0.5l0.8,0.7l0,0c0.2,0.2,0.3,0.3,0.5,0.3c0.2,0.1,0.3,0.2,0.4,0.3
		c0.1,0,0.1,0,0.1,0s0,0,0.1,0c0,0,0.1,0.1,0.2,0.1c0.1,0.1,0.2,0.2,0.4,0.3c0.1,0.1,0.3,0.3,0.5,0.5s0.3,0.5,0.4,0.8
		c0.2,0.6,0.1,0.9-0.2,0.9s-0.7-0.2-1.1-0.7c-0.2-0.2-0.4-0.4-0.6-0.7c-0.3-0.2-0.5-0.5-0.7-0.8c-0.3-0.2-0.5-0.5-0.8-0.8
		s-0.5-0.6-0.9-0.9l-0.4,0.4c-1.3,1.3-2.5,2.3-3.6,2.9s-1.8,0.9-2.1,0.9c-0.1,0-0.2,0-0.2-0.1c-0.1,0-0.1-0.1-0.1-0.1
		C5.3,3028.6,5.4,3028.6,5.5,3028.5L5.5,3028.5z M11,3018.1c-0.3,0-0.5,0-0.6-0.1c-0.1,0-0.3,0-0.4-0.1c-0.3-0.1-0.6-0.3-0.9-0.6
		c-0.3-0.2-0.4-0.3-0.3-0.3c0.1-0.1,0.3-0.2,0.4-0.2c0.2,0,0.3,0,0.4,0.1c0.7,0.2,1.2,0.3,1.5,0.3c0.1,0,0.2,0,0.3,0s0.2,0,0.3,0
		s0.2,0,0.3,0s0.2,0,0.3,0c0.7,0.1,1,0.2,1,0.5s-0.3,0.4-0.8,0.4c-0.2,0-0.4,0-0.5,0c-0.2,0-0.3,0-0.3,0L11,3018.1L11,3018.1z
		 M18.7,3028.9c0,0.8-0.1,1.5-0.3,2.2c-0.2,0.7-0.4,1.1-0.7,1.1c-0.1,0-0.2-0.1-0.3-0.4c-0.1-0.2-0.1-0.5-0.1-0.9V3017
		c0-0.1,0-0.1,0-0.2c0-0.1-0.1-0.2-0.2-0.3c-0.3-0.3-0.6-0.5-0.8-0.7c-0.2-0.1-0.4-0.2-0.5-0.3h0.1h-0.1c-0.1,0-0.1,0-0.1,0
		c-0.1-0.1-0.1-0.1-0.1-0.2c0,0,0.1-0.1,0.2-0.2h0.1c0.4,0,0.8,0.1,1.2,0.2c0.4,0.1,0.9,0.3,1.3,0.5c0.2,0.1,0.3,0.2,0.3,0.2
		c0,0.1,0.1,0.2,0.1,0.3c0,0.2,0,0.3-0.1,0.4c0,0.1,0,0.2,0,0.3v6.3h0.2c0.1,0,0.2,0,0.3-0.1c0.1,0,0.2,0,0.2,0l0,0
		c0,0,0.1,0,0.1-0.1c0,0,0.1,0,0.2-0.1s0.3-0.1,0.5-0.2c0.2-0.1,0.4-0.1,0.6-0.1c0.5,0,0.9,0.1,1.3,0.1c0.4,0.1,0.5,0.3,0.5,0.5
		s-0.3,0.3-0.9,0.3h-2.9v5.3H18.7z"/>
</g>
<g>
	<path class="st0" d="M2.8,4023.5c0-2.9,1-5.4,3.1-7.5s4.6-3.1,7.6-3.1s5.5,1,7.5,3.1c2.1,2.1,3.1,4.6,3.1,7.5s-1.1,5.4-3.1,7.5
		s-4.6,3.1-7.5,3.1c-3,0-5.5-1-7.6-3.1S2.8,4026.4,2.8,4023.5z M23.2,4023.5c0-2.7-1-5-2.8-7c-1.9-1.9-4.2-2.9-6.8-2.9
		c-2.7,0-4.9,1-6.8,2.9s-2.9,4.2-2.9,7s0.9,5.1,2.9,7c1.9,1.9,4.2,2.9,6.8,2.9s4.9-0.9,6.8-2.9C22.2,4028.6,23.2,4026.2,23.2,4023.5
		z M5.5,4028.5c1-0.6,1.8-1.2,2.7-1.8c0.8-0.6,1.5-1.3,2.1-2c0.6-0.6,1.1-1.3,1.6-2c0.4-0.7,0.8-1.3,1.1-2c-0.2,0-0.3,0-0.5,0
		s-0.3,0-0.4,0c-0.2,0-0.3,0-0.4,0c-0.1,0-0.2,0-0.3,0c-0.2,0-0.4,0.1-0.5,0.1c-0.2,0-0.4,0.1-0.6,0.1c-0.2,0.1-0.4,0.1-0.5,0.1
		c-0.2,0-0.3,0.1-0.4,0.1c-0.2,0.1-0.3,0.1-0.4,0.1c-0.1,0-0.2,0-0.3,0c-0.3,0-0.6,0-0.8-0.1s-0.4-0.1-0.6-0.2
		c-0.2-0.1-0.3-0.2-0.4-0.3s-0.2-0.1-0.2-0.2c0-0.1,0.1-0.2,0.3-0.2c0.5,0.1,1.1,0.1,1.6,0.2c0.5,0.1,1.1,0.1,1.7,0
		c0.3,0,0.6,0,0.9-0.1c0.3,0,0.6-0.1,0.8-0.1s0.5-0.1,0.8-0.1s0.6-0.1,0.9-0.2c0.1,0,0.1,0,0.2,0c0.1,0,0.1,0,0.2,0
		c0.4,0,0.6,0.1,0.6,0.4c0,0.2-0.1,0.3-0.2,0.4l0,0c-0.1,0.1-0.1,0.1-0.1,0.1c0,0.1-0.1,0.1-0.1,0.1l-0.1,0.1
		c-0.1,0.1-0.1,0.1-0.1,0.1c-0.5,1-1.2,2-2.2,3.1l0.5,0.5l0.8,0.7l0,0c0.2,0.2,0.3,0.3,0.5,0.3c0.2,0.1,0.3,0.2,0.4,0.3
		c0.1,0,0.1,0,0.1,0s0,0,0.1,0c0,0,0.1,0.1,0.2,0.1c0.1,0.1,0.2,0.2,0.4,0.3c0.1,0.1,0.3,0.3,0.5,0.5s0.3,0.5,0.4,0.8
		c0.2,0.6,0.1,0.9-0.2,0.9s-0.7-0.2-1.1-0.7c-0.2-0.2-0.4-0.4-0.6-0.7c-0.3-0.2-0.5-0.5-0.7-0.8c-0.3-0.2-0.5-0.5-0.8-0.8
		s-0.5-0.6-0.9-0.9l-0.4,0.4c-1.3,1.3-2.5,2.3-3.6,2.9s-1.8,0.9-2.1,0.9c-0.1,0-0.2,0-0.2-0.1c-0.1,0-0.1-0.1-0.1-0.1
		C5.3,4028.6,5.4,4028.6,5.5,4028.5L5.5,4028.5z M11,4018.1c-0.3,0-0.5,0-0.6-0.1c-0.1,0-0.3,0-0.4-0.1c-0.3-0.1-0.6-0.3-0.9-0.6
		c-0.3-0.2-0.4-0.3-0.3-0.3c0.1-0.1,0.3-0.2,0.4-0.2c0.2,0,0.3,0,0.4,0.1c0.7,0.2,1.2,0.3,1.5,0.3c0.1,0,0.2,0,0.3,0s0.2,0,0.3,0
		s0.2,0,0.3,0s0.2,0,0.3,0c0.7,0.1,1,0.2,1,0.5s-0.3,0.4-0.8,0.4c-0.2,0-0.4,0-0.5,0c-0.2,0-0.3,0-0.3,0L11,4018.1L11,4018.1z
		 M18.7,4028.9c0,0.8-0.1,1.5-0.3,2.2c-0.2,0.7-0.4,1.1-0.7,1.1c-0.1,0-0.2-0.1-0.3-0.4c-0.1-0.2-0.1-0.5-0.1-0.9V4017
		c0-0.1,0-0.1,0-0.2c0-0.1-0.1-0.2-0.2-0.3c-0.3-0.3-0.6-0.5-0.8-0.7c-0.2-0.1-0.4-0.2-0.5-0.3h0.1h-0.1c-0.1,0-0.1,0-0.1,0
		c-0.1-0.1-0.1-0.1-0.1-0.2c0,0,0.1-0.1,0.2-0.2h0.1c0.4,0,0.8,0.1,1.2,0.2c0.4,0.1,0.9,0.3,1.3,0.5c0.2,0.1,0.3,0.2,0.3,0.2
		c0,0.1,0.1,0.2,0.1,0.3c0,0.2,0,0.3-0.1,0.4c0,0.1,0,0.2,0,0.3v6.3h0.2c0.1,0,0.2,0,0.3-0.1c0.1,0,0.2,0,0.2,0l0,0
		c0,0,0.1,0,0.1-0.1c0,0,0.1,0,0.2-0.1s0.3-0.1,0.5-0.2c0.2-0.1,0.4-0.1,0.6-0.1c0.5,0,0.9,0.1,1.3,0.1c0.4,0.1,0.5,0.3,0.5,0.5
		s-0.3,0.3-0.9,0.3h-2.9v5.3H18.7z"/>
</g>
<g>
	<path class="st0" d="M2.8,5023.5c0-2.9,1-5.4,3.1-7.5s4.6-3.1,7.6-3.1s5.5,1,7.5,3.1c2.1,2.1,3.1,4.6,3.1,7.5s-1.1,5.4-3.1,7.5
		s-4.6,3.1-7.5,3.1c-3,0-5.5-1-7.6-3.1S2.8,5026.4,2.8,5023.5z M23.2,5023.5c0-2.7-1-5-2.8-7c-1.9-1.9-4.2-2.9-6.8-2.9
		c-2.7,0-4.9,1-6.8,2.9s-2.9,4.2-2.9,7s0.9,5.1,2.9,7c1.9,1.9,4.2,2.9,6.8,2.9s4.9-0.9,6.8-2.9C22.2,5028.6,23.2,5026.2,23.2,5023.5
		z M5.5,5028.5c1-0.6,1.8-1.2,2.7-1.8c0.8-0.6,1.5-1.3,2.1-2c0.6-0.6,1.1-1.3,1.6-2c0.4-0.7,0.8-1.3,1.1-2c-0.2,0-0.3,0-0.5,0
		s-0.3,0-0.4,0c-0.2,0-0.3,0-0.4,0c-0.1,0-0.2,0-0.3,0c-0.2,0-0.4,0.1-0.5,0.1c-0.2,0-0.4,0.1-0.6,0.1c-0.2,0.1-0.4,0.1-0.5,0.1
		c-0.2,0-0.3,0.1-0.4,0.1c-0.2,0.1-0.3,0.1-0.4,0.1c-0.1,0-0.2,0-0.3,0c-0.3,0-0.6,0-0.8-0.1s-0.4-0.1-0.6-0.2s-0.3-0.2-0.4-0.3
		c-0.1-0.1-0.2-0.1-0.2-0.2s0.1-0.2,0.3-0.2c0.5,0.1,1.1,0.1,1.6,0.2s1.1,0.1,1.7,0c0.3,0,0.6,0,0.9-0.1c0.3,0,0.6-0.1,0.8-0.1
		s0.5-0.1,0.8-0.1s0.6-0.1,0.9-0.2c0.1,0,0.1,0,0.2,0c0.1,0,0.1,0,0.2,0c0.4,0,0.6,0.1,0.6,0.4c0,0.2-0.1,0.3-0.2,0.4l0,0
		c-0.1,0.1-0.1,0.1-0.1,0.1c0,0.1-0.1,0.1-0.1,0.1l-0.1,0.1c-0.1,0.1-0.1,0.1-0.1,0.1c-0.5,1-1.2,2-2.2,3.1l0.5,0.5l0.8,0.7l0,0
		c0.2,0.2,0.3,0.3,0.5,0.3c0.2,0.1,0.3,0.2,0.4,0.3c0.1,0,0.1,0,0.1,0s0,0,0.1,0c0,0,0.1,0.1,0.2,0.1c0.1,0.1,0.2,0.2,0.4,0.3
		c0.1,0.1,0.3,0.3,0.5,0.5s0.3,0.5,0.4,0.8c0.2,0.6,0.1,0.9-0.2,0.9s-0.7-0.2-1.1-0.7c-0.2-0.2-0.4-0.4-0.6-0.7
		c-0.3-0.2-0.5-0.5-0.7-0.8c-0.3-0.2-0.5-0.5-0.8-0.8s-0.5-0.6-0.9-0.9l-0.4,0.4c-1.3,1.3-2.5,2.3-3.6,2.9s-1.8,0.9-2.1,0.9
		c-0.1,0-0.2,0-0.2-0.1c-0.1,0-0.1-0.1-0.1-0.1C5.3,5028.6,5.4,5028.6,5.5,5028.5L5.5,5028.5z M11,5018.1c-0.3,0-0.5,0-0.6-0.1
		c-0.1,0-0.3,0-0.4-0.1c-0.3-0.1-0.6-0.3-0.9-0.6c-0.3-0.2-0.4-0.3-0.3-0.3c0.1-0.1,0.3-0.2,0.4-0.2c0.2,0,0.3,0,0.4,0.1
		c0.7,0.2,1.2,0.3,1.5,0.3c0.1,0,0.2,0,0.3,0s0.2,0,0.3,0s0.2,0,0.3,0s0.2,0,0.3,0c0.7,0.1,1,0.2,1,0.5s-0.3,0.4-0.8,0.4
		c-0.2,0-0.4,0-0.5,0c-0.2,0-0.3,0-0.3,0L11,5018.1L11,5018.1z M18.7,5028.9c0,0.8-0.1,1.5-0.3,2.2c-0.2,0.7-0.4,1.1-0.7,1.1
		c-0.1,0-0.2-0.1-0.3-0.4c-0.1-0.2-0.1-0.5-0.1-0.9V5017c0-0.1,0-0.1,0-0.2s-0.1-0.2-0.2-0.3c-0.3-0.3-0.6-0.5-0.8-0.7
		c-0.2-0.1-0.4-0.2-0.5-0.3h0.1h-0.1c-0.1,0-0.1,0-0.1,0c-0.1-0.1-0.1-0.1-0.1-0.2c0,0,0.1-0.1,0.2-0.2h0.1c0.4,0,0.8,0.1,1.2,0.2
		s0.9,0.3,1.3,0.5c0.2,0.1,0.3,0.2,0.3,0.2c0,0.1,0.1,0.2,0.1,0.3c0,0.2,0,0.3-0.1,0.4c0,0.1,0,0.2,0,0.3v6.3h0.2
		c0.1,0,0.2,0,0.3-0.1c0.1,0,0.2,0,0.2,0l0,0c0,0,0.1,0,0.1-0.1c0,0,0.1,0,0.2-0.1s0.3-0.1,0.5-0.2s0.4-0.1,0.6-0.1
		c0.5,0,0.9,0.1,1.3,0.1c0.4,0.1,0.5,0.3,0.5,0.5s-0.3,0.3-0.9,0.3h-2.9v5.3H18.7z"/>
</g>
<g>
	<path class="st0" d="M2.8,6223.5c0-2.9,1-5.4,3.1-7.5s4.6-3.1,7.6-3.1s5.5,1,7.5,3.1c2.1,2.1,3.1,4.6,3.1,7.5s-1.1,5.4-3.1,7.5
		s-4.6,3.1-7.5,3.1c-3,0-5.5-1-7.6-3.1S2.8,6226.4,2.8,6223.5z M23.2,6223.5c0-2.7-1-5-2.8-7c-1.9-1.9-4.2-2.9-6.8-2.9
		c-2.7,0-4.9,1-6.8,2.9s-2.9,4.2-2.9,7s0.9,5.1,2.9,7c1.9,1.9,4.2,2.9,6.8,2.9s4.9-0.9,6.8-2.9C22.2,6228.6,23.2,6226.2,23.2,6223.5
		z M5.5,6228.5c1-0.6,1.8-1.2,2.7-1.8c0.8-0.6,1.5-1.3,2.1-2c0.6-0.6,1.1-1.3,1.6-2c0.4-0.7,0.8-1.3,1.1-2c-0.2,0-0.3,0-0.5,0
		s-0.3,0-0.4,0c-0.2,0-0.3,0-0.4,0c-0.1,0-0.2,0-0.3,0c-0.2,0-0.4,0.1-0.5,0.1c-0.2,0-0.4,0.1-0.6,0.1c-0.2,0.1-0.4,0.1-0.5,0.1
		c-0.2,0-0.3,0.1-0.4,0.1c-0.2,0.1-0.3,0.1-0.4,0.1c-0.1,0-0.2,0-0.3,0c-0.3,0-0.6,0-0.8-0.1s-0.4-0.1-0.6-0.2s-0.3-0.2-0.4-0.3
		c-0.1-0.1-0.2-0.1-0.2-0.2s0.1-0.2,0.3-0.2c0.5,0.1,1.1,0.1,1.6,0.2s1.1,0.1,1.7,0c0.3,0,0.6,0,0.9-0.1c0.3,0,0.6-0.1,0.8-0.1
		s0.5-0.1,0.8-0.1s0.6-0.1,0.9-0.2c0.1,0,0.1,0,0.2,0c0.1,0,0.1,0,0.2,0c0.4,0,0.6,0.1,0.6,0.4c0,0.2-0.1,0.3-0.2,0.4l0,0
		c-0.1,0.1-0.1,0.1-0.1,0.1c0,0.1-0.1,0.1-0.1,0.1l-0.1,0.1c-0.1,0.1-0.1,0.1-0.1,0.1c-0.5,1-1.2,2-2.2,3.1l0.5,0.5l0.8,0.7l0,0
		c0.2,0.2,0.3,0.3,0.5,0.3c0.2,0.1,0.3,0.2,0.4,0.3c0.1,0,0.1,0,0.1,0s0,0,0.1,0c0,0,0.1,0.1,0.2,0.1c0.1,0.1,0.2,0.2,0.4,0.3
		c0.1,0.1,0.3,0.3,0.5,0.5s0.3,0.5,0.4,0.8c0.2,0.6,0.1,0.9-0.2,0.9s-0.7-0.2-1.1-0.7c-0.2-0.2-0.4-0.4-0.6-0.7
		c-0.3-0.2-0.5-0.5-0.7-0.8c-0.3-0.2-0.5-0.5-0.8-0.8s-0.5-0.6-0.9-0.9l-0.4,0.4c-1.3,1.3-2.5,2.3-3.6,2.9s-1.8,0.9-2.1,0.9
		c-0.1,0-0.2,0-0.2-0.1c-0.1,0-0.1-0.1-0.1-0.1C5.3,6228.6,5.4,6228.6,5.5,6228.5L5.5,6228.5z M11,6218.1c-0.3,0-0.5,0-0.6-0.1
		c-0.1,0-0.3,0-0.4-0.1c-0.3-0.1-0.6-0.3-0.9-0.6c-0.3-0.2-0.4-0.3-0.3-0.3c0.1-0.1,0.3-0.2,0.4-0.2c0.2,0,0.3,0,0.4,0.1
		c0.7,0.2,1.2,0.3,1.5,0.3c0.1,0,0.2,0,0.3,0s0.2,0,0.3,0s0.2,0,0.3,0s0.2,0,0.3,0c0.7,0.1,1,0.2,1,0.5s-0.3,0.4-0.8,0.4
		c-0.2,0-0.4,0-0.5,0c-0.2,0-0.3,0-0.3,0L11,6218.1L11,6218.1z M18.7,6228.9c0,0.8-0.1,1.5-0.3,2.2c-0.2,0.7-0.4,1.1-0.7,1.1
		c-0.1,0-0.2-0.1-0.3-0.4c-0.1-0.2-0.1-0.5-0.1-0.9V6217c0-0.1,0-0.1,0-0.2s-0.1-0.2-0.2-0.3c-0.3-0.3-0.6-0.5-0.8-0.7
		c-0.2-0.1-0.4-0.2-0.5-0.3h0.1h-0.1c-0.1,0-0.1,0-0.1,0c-0.1-0.1-0.1-0.1-0.1-0.2c0,0,0.1-0.1,0.2-0.2h0.1c0.4,0,0.8,0.1,1.2,0.2
		s0.9,0.3,1.3,0.5c0.2,0.1,0.3,0.2,0.3,0.2c0,0.1,0.1,0.2,0.1,0.3c0,0.2,0,0.3-0.1,0.4c0,0.1,0,0.2,0,0.3v6.3h0.2
		c0.1,0,0.2,0,0.3-0.1c0.1,0,0.2,0,0.2,0l0,0c0,0,0.1,0,0.1-0.1c0,0,0.1,0,0.2-0.1s0.3-0.1,0.5-0.2s0.4-0.1,0.6-0.1
		c0.5,0,0.9,0.1,1.3,0.1c0.4,0.1,0.5,0.3,0.5,0.5s-0.3,0.3-0.9,0.3h-2.9v5.3H18.7z"/>
</g>
<g>
	<polygon class="st1" points="13.2,1030.3 5.5,1022.9 7.6,1020.7 12.9,1025.9 21.9,1014.5 24.2,1016.4 	"/>
</g>
<g>
	<polygon points="13.2,2030.3 5.5,2022.9 7.6,2020.7 12.9,2025.9 21.9,2014.5 24.2,2016.4 	"/>
</g>
<rect x="2" y="9034" width="23" height="23"/>
<g>
	<polygon points="13.2,9052.3 5.5,9044.9 7.6,9042.7 12.9,9047.9 21.9,9036.5 24.2,9038.4 	"/>
</g>
<g>
	<path class="st0" d="M2.8,9045.5c0-2.9,1-5.4,3.1-7.5s4.6-3.1,7.6-3.1s5.5,1,7.5,3.1c2.1,2.1,3.1,4.6,3.1,7.5s-1.1,5.4-3.1,7.5
		s-4.6,3.1-7.5,3.1c-3,0-5.5-1-7.6-3.1S2.8,9048.4,2.8,9045.5z M23.2,9045.5c0-2.7-1-5-2.8-7c-1.9-1.9-4.2-2.9-6.8-2.9
		c-2.7,0-4.9,1-6.8,2.9s-2.9,4.2-2.9,7s0.9,5.1,2.9,7c1.9,1.9,4.2,2.9,6.8,2.9s4.9-0.9,6.8-2.9C22.2,9050.6,23.2,9048.2,23.2,9045.5
		z M5.5,9050.5c1-0.6,1.8-1.2,2.7-1.8c0.8-0.6,1.5-1.3,2.1-2c0.6-0.6,1.1-1.3,1.6-2c0.4-0.7,0.8-1.3,1.1-2c-0.2,0-0.3,0-0.5,0
		s-0.3,0-0.4,0c-0.2,0-0.3,0-0.4,0c-0.1,0-0.2,0-0.3,0c-0.2,0-0.4,0.1-0.5,0.1c-0.2,0-0.4,0.1-0.6,0.1c-0.2,0.1-0.4,0.1-0.5,0.1
		c-0.2,0-0.3,0.1-0.4,0.1c-0.2,0.1-0.3,0.1-0.4,0.1c-0.1,0-0.2,0-0.3,0c-0.3,0-0.6,0-0.8-0.1c-0.2-0.1-0.4-0.1-0.6-0.2
		c-0.2-0.1-0.3-0.2-0.4-0.3c-0.1-0.1-0.2-0.1-0.2-0.2c0-0.1,0.1-0.2,0.3-0.2c0.5,0.1,1.1,0.1,1.6,0.2c0.5,0.1,1.1,0.1,1.7,0
		c0.3,0,0.6,0,0.9-0.1c0.3,0,0.6-0.1,0.8-0.1s0.5-0.1,0.8-0.1s0.6-0.1,0.9-0.2c0.1,0,0.1,0,0.2,0c0.1,0,0.1,0,0.2,0
		c0.4,0,0.6,0.1,0.6,0.4c0,0.2-0.1,0.3-0.2,0.4l0,0c-0.1,0.1-0.1,0.1-0.1,0.1c0,0.1-0.1,0.1-0.1,0.1l-0.1,0.1
		c-0.1,0.1-0.1,0.1-0.1,0.1c-0.5,1-1.2,2-2.2,3.1l0.5,0.5l0.8,0.7l0,0c0.2,0.2,0.3,0.3,0.5,0.3c0.2,0.1,0.3,0.2,0.4,0.3
		c0.1,0,0.1,0,0.1,0s0,0,0.1,0c0,0,0.1,0.1,0.2,0.1c0.1,0.1,0.2,0.2,0.4,0.3c0.1,0.1,0.3,0.3,0.5,0.5c0.2,0.2,0.3,0.5,0.4,0.8
		c0.2,0.6,0.1,0.9-0.2,0.9s-0.7-0.2-1.1-0.7c-0.2-0.2-0.4-0.4-0.6-0.7c-0.3-0.2-0.5-0.5-0.7-0.8c-0.3-0.2-0.5-0.5-0.8-0.8
		c-0.3-0.3-0.5-0.6-0.9-0.9l-0.4,0.4c-1.3,1.3-2.5,2.3-3.6,2.9s-1.8,0.9-2.1,0.9c-0.1,0-0.2,0-0.2-0.1c-0.1,0-0.1-0.1-0.1-0.1
		C5.3,9050.6,5.4,9050.6,5.5,9050.5L5.5,9050.5z M11,9040.1c-0.3,0-0.5,0-0.6-0.1c-0.1,0-0.3,0-0.4-0.1c-0.3-0.1-0.6-0.3-0.9-0.6
		c-0.3-0.2-0.4-0.3-0.3-0.3c0.1-0.1,0.3-0.2,0.4-0.2c0.2,0,0.3,0,0.4,0.1c0.7,0.2,1.2,0.3,1.5,0.3c0.1,0,0.2,0,0.3,0s0.2,0,0.3,0
		s0.2,0,0.3,0s0.2,0,0.3,0c0.7,0.1,1,0.2,1,0.5s-0.3,0.4-0.8,0.4c-0.2,0-0.4,0-0.5,0c-0.2,0-0.3,0-0.3,0H11L11,9040.1z M18.7,9050.9
		c0,0.8-0.1,1.5-0.3,2.2c-0.2,0.7-0.4,1.1-0.7,1.1c-0.1,0-0.2-0.1-0.3-0.4c-0.1-0.2-0.1-0.5-0.1-0.9V9039c0-0.1,0-0.1,0-0.2
		c0-0.1-0.1-0.2-0.2-0.3c-0.3-0.3-0.6-0.5-0.8-0.7c-0.2-0.1-0.4-0.2-0.5-0.3h0.1h-0.1c-0.1,0-0.1,0-0.1,0c-0.1-0.1-0.1-0.1-0.1-0.2
		c0,0,0.1-0.1,0.2-0.2h0.1c0.4,0,0.8,0.1,1.2,0.2c0.4,0.1,0.9,0.3,1.3,0.5c0.2,0.1,0.3,0.2,0.3,0.2c0,0.1,0.1,0.2,0.1,0.3
		c0,0.2,0,0.3-0.1,0.4c0,0.1,0,0.2,0,0.3v6.3h0.2c0.1,0,0.2,0,0.3-0.1c0.1,0,0.2,0,0.2,0l0,0c0,0,0.1,0,0.1-0.1c0,0,0.1,0,0.2-0.1
		c0.1-0.1,0.3-0.1,0.5-0.2c0.2-0.1,0.4-0.1,0.6-0.1c0.5,0,0.9,0.1,1.3,0.1c0.4,0.1,0.5,0.3,0.5,0.5c0,0.2-0.3,0.3-0.9,0.3h-2.9v5.3
		H18.7z"/>
</g>
<g>
	<polygon class="st5" points="13.2,9052.3 5.5,9044.9 7.6,9042.7 12.9,9047.9 21.9,9036.5 24.2,9038.4 	"/>
</g>
<g>
	<polygon class="st2" points="13.2,3030.3 5.5,3022.9 7.6,3020.7 12.9,3025.9 21.9,3014.5 24.2,3016.4 	"/>
</g>
<g>
	<polygon class="st3" points="13.2,4030.3 5.5,4022.9 7.6,4020.7 12.9,4025.9 21.9,4014.5 24.2,4016.4 	"/>
</g>
<g>
	<polygon class="st4" points="13.2,5030.3 5.5,5022.9 7.6,5020.7 12.9,5025.9 21.9,5014.5 24.2,5016.4 	"/>
</g>
<path class="st1" d="M18.1,6226.5c0-2,0-1.8,0-3.7h-1.5c0-1.3,0.1-2.5-0.3-3.4c-0.4-0.7-1.1-1.4-1.9-1.6c-1.6-0.4-3,0.6-3.6,1.6
	c-0.5,0.9-0.3,2.1-0.3,3.3c-0.5,0-0.9,0-1.5,0c0,0.8,0,1.4,0,2.9c0,2-0.3,3.1,1.1,3.6c0.9,0.3,2.6,0.1,3.6,0.1
	c1.1,0,2.7,0.2,3.6-0.1C18.2,6228.9,18.1,6227.8,18.1,6226.5z M15.3,6222.8c-0.6,0-1.3,0-1.9,0c-0.5,0-1,0-1.6,0
	c-0.1-1.8-0.1-3.3,1.3-3.7c0.9-0.2,1.7,0.3,2,1.1C15.4,6220.9,15.2,6221.8,15.3,6222.8z"/>
</svg>
