<?xml version="1.0" encoding="utf-8"?>
<!-- Generator: Adobe Illustrator 23.0.1, SVG Export Plug-In . SVG Version: 6.00 Build 0)  -->
<svg version="1.1" id="Layer_1" xmlns="http://www.w3.org/2000/svg" xmlns:xlink="http://www.w3.org/1999/xlink" x="0px" y="0px"
	 viewBox="0 0 50 10200" width="50px" height="10200px" style="enable-background:new 0 0 50 10200; fill:transparent;" xml:space="preserve">
<style type="text/css">
	.st0{fill:#363636;}
	.st1{fill:#CCCCCC;}
	.st2{fill:#7F7F7F;}
	.st3{fill:#E30613;}
	.st4{fill:#008D36;}
	.st5{fill:#000000;}
</style>
<rect x="2" y="12" width="23" height="23"/>
<rect x="2" y="1012" width="23" height="23"/>
<rect x="2" y="6212" width="23" height="23"/>
<rect x="2" y="2012" width="23" height="23"/>
<g>
	<polygon class="st5" points="13.2,2030.3 5.5,2022.9 7.6,2020.7 12.9,2025.9 21.9,2014.5 24.2,2016.4 	"/>
</g>
<rect x="2" y="3012" width="23" height="23"/>
<rect x="2" y="4012" width="23" height="23"/>
<rect x="2" y="5012" width="23" height="23"/>
<g>
	<path class="st0" d="M3.2,23.5c0-2.8,1-5.2,3-7.2s4.4-3,7.3-3s5.2,1,7.2,3s3,4.4,3,7.2s-1,5.2-3,7.2s-4.4,3-7.2,3s-5.3-1-7.3-3
		S3.2,26.3,3.2,23.5z M22.8,23.5c0-2.6-0.9-4.8-2.7-6.7c-1.8-1.8-4-2.7-6.5-2.7S8.9,15,7.1,16.8s-2.7,4.1-2.7,6.7s0.9,4.9,2.7,6.7
		c1.8,1.8,4,2.7,6.5,2.7s4.7-0.9,6.5-2.7C21.8,28.4,22.8,26.1,22.8,23.5z M12.9,18.8c0.3,0,0.5,0,0.7,0c0.2,0.1,0.3,0.1,0.5,0.2
		c0.1,0.1,0.3,0.1,0.4,0.2c0.1,0.1,0.1,0.2,0.1,0.4c0,0.1,0,0.2,0,0.2c0,0.1-0.1,0.1-0.1,0.2c1.1,0.1,2,0.6,2.7,1.3
		c0.8,0.8,1.2,1.7,1.2,2.6c0,1.1-0.4,2.1-1.3,2.9S15,28,13.6,28c-1.3,0-2.5-0.4-3.4-1.2c-1-0.8-1.4-1.8-1.4-2.9
		c0-0.9,0.4-1.8,1.1-2.5c0.7-0.7,1.6-1.2,2.7-1.4c0.1,0,0.2,0,0.3-0.1c0.1,0,0.2-0.1,0.3-0.3c0-0.1-0.1-0.1-0.2-0.2
		c-0.1,0-0.2-0.1-0.2-0.1c-0.1,0-0.1,0-0.1-0.1c0,0,0-0.1,0-0.2c0,0,0,0,0-0.1C12.7,18.8,12.7,18.8,12.9,18.8z M16.7,23.9
		c0-0.9-0.3-1.6-0.9-2.2s-1.3-0.9-2.1-0.9s-1.5,0.3-2.1,0.9s-0.9,1.4-0.9,2.2c0,1,0.3,1.8,0.9,2.3c0.6,0.6,1.3,0.9,2.1,0.9
		s1.5-0.3,2.1-0.9C16.4,25.7,16.7,24.9,16.7,23.9z"/>
</g>
<g>
	<path class="st0" d="M3.2,1023.5c0-2.8,1-5.2,3-7.2s4.4-3,7.3-3s5.2,1,7.2,3s3,4.4,3,7.2c0,2.8-1,5.2-3,7.2s-4.4,3-7.2,3
		s-5.3-1-7.3-3S3.2,1026.3,3.2,1023.5z M22.8,1023.5c0-2.6-0.9-4.8-2.7-6.7c-1.8-1.8-4-2.7-6.5-2.7s-4.7,0.9-6.5,2.7
		s-2.7,4.1-2.7,6.7c0,2.6,0.9,4.9,2.7,6.7c1.8,1.8,4,2.7,6.5,2.7s4.7-0.9,6.5-2.7C21.8,1028.4,22.8,1026.1,22.8,1023.5z
		 M12.9,1018.8c0.3,0,0.5,0,0.7,0c0.2,0.1,0.3,0.1,0.5,0.2c0.1,0.1,0.3,0.1,0.4,0.2c0.1,0.1,0.1,0.2,0.1,0.4c0,0.1,0,0.2,0,0.2
		c0,0.1-0.1,0.1-0.1,0.2c1.1,0.1,2,0.6,2.7,1.3c0.8,0.8,1.2,1.7,1.2,2.6c0,1.1-0.4,2.1-1.3,2.9s-2.1,1.2-3.5,1.2
		c-1.3,0-2.5-0.4-3.4-1.2c-1-0.8-1.4-1.8-1.4-2.9c0-0.9,0.4-1.8,1.1-2.5c0.7-0.7,1.6-1.2,2.7-1.4c0.1,0,0.2,0,0.3-0.1
		c0.1,0,0.2-0.1,0.3-0.3c0-0.1-0.1-0.1-0.2-0.2c-0.1,0-0.2-0.1-0.2-0.1c-0.1,0-0.1,0-0.1-0.1c0,0,0-0.1,0-0.2c0,0,0,0,0-0.1
		C12.7,1018.8,12.7,1018.8,12.9,1018.8z M16.7,1023.9c0-0.9-0.3-1.6-0.9-2.2c-0.6-0.6-1.3-0.9-2.1-0.9s-1.5,0.3-2.1,0.9
		c-0.6,0.6-0.9,1.4-0.9,2.2c0,1,0.3,1.8,0.9,2.3c0.6,0.6,1.3,0.9,2.1,0.9s1.5-0.3,2.1-0.9C16.4,1025.7,16.7,1024.9,16.7,1023.9z"/>
</g>
<g>
	<path class="st0" d="M3.2,2023.5c0-2.8,1-5.2,3-7.2s4.4-3,7.3-3s5.2,1,7.2,3s3,4.4,3,7.2c0,2.8-1,5.2-3,7.2s-4.4,3-7.2,3
		s-5.3-1-7.3-3S3.2,2026.3,3.2,2023.5z M22.8,2023.5c0-2.6-0.9-4.8-2.7-6.7c-1.8-1.8-4-2.7-6.5-2.7s-4.7,0.9-6.5,2.7
		c-1.8,1.8-2.7,4.1-2.7,6.7s0.9,4.9,2.7,6.7c1.8,1.8,4,2.7,6.5,2.7s4.7-0.9,6.5-2.7C21.8,2028.4,22.8,2026.1,22.8,2023.5z
		 M12.9,2018.8c0.3,0,0.5,0,0.7,0c0.2,0.1,0.3,0.1,0.5,0.2c0.1,0.1,0.3,0.1,0.4,0.2c0.1,0.1,0.1,0.2,0.1,0.4c0,0.1,0,0.2,0,0.2
		c0,0.1-0.1,0.1-0.1,0.2c1.1,0.1,2,0.6,2.7,1.3c0.8,0.8,1.2,1.7,1.2,2.6c0,1.1-0.4,2.1-1.3,2.9s-2.1,1.2-3.5,1.2
		c-1.3,0-2.5-0.4-3.4-1.2c-1-0.8-1.4-1.8-1.4-2.9c0-0.9,0.4-1.8,1.1-2.5c0.7-0.7,1.6-1.2,2.7-1.4c0.1,0,0.2,0,0.3-0.1
		c0.1,0,0.2-0.1,0.3-0.3c0-0.1-0.1-0.1-0.2-0.2c-0.1,0-0.2-0.1-0.2-0.1c-0.1,0-0.1,0-0.1-0.1c0,0,0-0.1,0-0.2c0,0,0,0,0-0.1
		C12.7,2018.8,12.7,2018.8,12.9,2018.8z M16.7,2023.9c0-0.9-0.3-1.6-0.9-2.2s-1.3-0.9-2.1-0.9s-1.5,0.3-2.1,0.9s-0.9,1.4-0.9,2.2
		c0,1,0.3,1.8,0.9,2.3c0.6,0.6,1.3,0.9,2.1,0.9s1.5-0.3,2.1-0.9C16.4,2025.7,16.7,2024.9,16.7,2023.9z"/>
</g>
<g>
	<path class="st0" d="M3.2,3023.5c0-2.8,1-5.2,3-7.2s4.4-3,7.3-3s5.2,1,7.2,3s3,4.4,3,7.2s-1,5.2-3,7.2s-4.4,3-7.2,3s-5.3-1-7.3-3
		S3.2,3026.3,3.2,3023.5z M22.8,3023.5c0-2.6-0.9-4.8-2.7-6.7c-1.8-1.8-4-2.7-6.5-2.7s-4.7,0.9-6.5,2.7s-2.7,4.1-2.7,6.7
		c0,2.6,0.9,4.9,2.7,6.7s4,2.7,6.5,2.7s4.7-0.9,6.5-2.7C21.8,3028.4,22.8,3026.1,22.8,3023.5z M12.9,3018.8c0.3,0,0.5,0,0.7,0
		c0.2,0.1,0.3,0.1,0.5,0.2c0.1,0.1,0.3,0.1,0.4,0.2c0.1,0.1,0.1,0.2,0.1,0.4c0,0.1,0,0.2,0,0.2c0,0.1-0.1,0.1-0.1,0.2
		c1.1,0.1,2,0.6,2.7,1.3c0.8,0.8,1.2,1.7,1.2,2.6c0,1.1-0.4,2.1-1.3,2.9c-0.9,0.8-2.1,1.2-3.5,1.2c-1.3,0-2.5-0.4-3.4-1.2
		c-1-0.8-1.4-1.8-1.4-2.9c0-0.9,0.4-1.8,1.1-2.5c0.7-0.7,1.6-1.2,2.7-1.4c0.1,0,0.2,0,0.3-0.1c0.1,0,0.2-0.1,0.3-0.3
		c0-0.1-0.1-0.1-0.2-0.2c-0.1,0-0.2-0.1-0.2-0.1c-0.1,0-0.1,0-0.1-0.1c0,0,0-0.1,0-0.2c0,0,0,0,0-0.1
		C12.7,3018.8,12.7,3018.8,12.9,3018.8z M16.7,3023.9c0-0.9-0.3-1.6-0.9-2.2c-0.6-0.6-1.3-0.9-2.1-0.9s-1.5,0.3-2.1,0.9
		c-0.6,0.6-0.9,1.4-0.9,2.2c0,1,0.3,1.8,0.9,2.3c0.6,0.6,1.3,0.9,2.1,0.9s1.5-0.3,2.1-0.9C16.4,3025.7,16.7,3024.9,16.7,3023.9z"/>
</g>
<g>
	<path class="st0" d="M3.2,4023.5c0-2.8,1-5.2,3-7.2s4.4-3,7.3-3s5.2,1,7.2,3s3,4.4,3,7.2s-1,5.2-3,7.2s-4.4,3-7.2,3s-5.3-1-7.3-3
		S3.2,4026.3,3.2,4023.5z M22.8,4023.5c0-2.6-0.9-4.8-2.7-6.7c-1.8-1.8-4-2.7-6.5-2.7s-4.7,0.9-6.5,2.7s-2.7,4.1-2.7,6.7
		c0,2.6,0.9,4.9,2.7,6.7s4,2.7,6.5,2.7s4.7-0.9,6.5-2.7C21.8,4028.4,22.8,4026.1,22.8,4023.5z M12.9,4018.8c0.3,0,0.5,0,0.7,0
		c0.2,0.1,0.3,0.1,0.5,0.2c0.1,0.1,0.3,0.1,0.4,0.2c0.1,0.1,0.1,0.2,0.1,0.4c0,0.1,0,0.2,0,0.2c0,0.1-0.1,0.1-0.1,0.2
		c1.1,0.1,2,0.6,2.7,1.3c0.8,0.8,1.2,1.7,1.2,2.6c0,1.1-0.4,2.1-1.3,2.9c-0.9,0.8-2.1,1.2-3.5,1.2c-1.3,0-2.5-0.4-3.4-1.2
		c-1-0.8-1.4-1.8-1.4-2.9c0-0.9,0.4-1.8,1.1-2.5c0.7-0.7,1.6-1.2,2.7-1.4c0.1,0,0.2,0,0.3-0.1c0.1,0,0.2-0.1,0.3-0.3
		c0-0.1-0.1-0.1-0.2-0.2c-0.1,0-0.2-0.1-0.2-0.1c-0.1,0-0.1,0-0.1-0.1c0,0,0-0.1,0-0.2c0,0,0,0,0-0.1
		C12.7,4018.8,12.7,4018.8,12.9,4018.8z M16.7,4023.9c0-0.9-0.3-1.6-0.9-2.2c-0.6-0.6-1.3-0.9-2.1-0.9s-1.5,0.3-2.1,0.9
		c-0.6,0.6-0.9,1.4-0.9,2.2c0,1,0.3,1.8,0.9,2.3c0.6,0.6,1.3,0.9,2.1,0.9s1.5-0.3,2.1-0.9C16.4,4025.7,16.7,4024.9,16.7,4023.9z"/>
</g>
<g>
	<path class="st0" d="M3.2,5023.5c0-2.8,1-5.2,3-7.2s4.4-3,7.3-3s5.2,1,7.2,3s3,4.4,3,7.2c0,2.8-1,5.2-3,7.2s-4.4,3-7.2,3
		s-5.3-1-7.3-3S3.2,5026.3,3.2,5023.5z M22.8,5023.5c0-2.6-0.9-4.8-2.7-6.7c-1.8-1.8-4-2.7-6.5-2.7s-4.7,0.9-6.5,2.7
		c-1.8,1.8-2.7,4.1-2.7,6.7s0.9,4.9,2.7,6.7c1.8,1.8,4,2.7,6.5,2.7s4.7-0.9,6.5-2.7C21.8,5028.4,22.8,5026.1,22.8,5023.5z
		 M12.9,5018.8c0.3,0,0.5,0,0.7,0c0.2,0.1,0.3,0.1,0.5,0.2c0.1,0.1,0.3,0.1,0.4,0.2c0.1,0.1,0.1,0.2,0.1,0.4c0,0.1,0,0.2,0,0.2
		c0,0.1-0.1,0.1-0.1,0.2c1.1,0.1,2,0.6,2.7,1.3c0.8,0.8,1.2,1.7,1.2,2.6c0,1.1-0.4,2.1-1.3,2.9s-2.1,1.2-3.5,1.2
		c-1.3,0-2.5-0.4-3.4-1.2c-1-0.8-1.4-1.8-1.4-2.9c0-0.9,0.4-1.8,1.1-2.5c0.7-0.7,1.6-1.2,2.7-1.4c0.1,0,0.2,0,0.3-0.1
		c0.1,0,0.2-0.1,0.3-0.3c0-0.1-0.1-0.1-0.2-0.2c-0.1,0-0.2-0.1-0.2-0.1c-0.1,0-0.1,0-0.1-0.1c0,0,0-0.1,0-0.2c0,0,0,0,0-0.1
		C12.7,5018.8,12.7,5018.8,12.9,5018.8z M16.7,5023.9c0-0.9-0.3-1.6-0.9-2.2s-1.3-0.9-2.1-0.9s-1.5,0.3-2.1,0.9s-0.9,1.4-0.9,2.2
		c0,1,0.3,1.8,0.9,2.3c0.6,0.6,1.3,0.9,2.1,0.9s1.5-0.3,2.1-0.9C16.4,5025.7,16.7,5024.9,16.7,5023.9z"/>
</g>
<g>
	<path class="st0" d="M3.2,6223.5c0-2.8,1-5.2,3-7.2s4.4-3,7.3-3s5.2,1,7.2,3s3,4.4,3,7.2c0,2.8-1,5.2-3,7.2s-4.4,3-7.2,3
		s-5.3-1-7.3-3S3.2,6226.3,3.2,6223.5z M22.8,6223.5c0-2.6-0.9-4.8-2.7-6.7c-1.8-1.8-4-2.7-6.5-2.7s-4.7,0.9-6.5,2.7
		c-1.8,1.8-2.7,4.1-2.7,6.7s0.9,4.9,2.7,6.7c1.8,1.8,4,2.7,6.5,2.7s4.7-0.9,6.5-2.7C21.8,6228.4,22.8,6226.1,22.8,6223.5z
		 M12.9,6218.8c0.3,0,0.5,0,0.7,0c0.2,0.1,0.3,0.1,0.5,0.2c0.1,0.1,0.3,0.1,0.4,0.2c0.1,0.1,0.1,0.2,0.1,0.4c0,0.1,0,0.2,0,0.2
		c0,0.1-0.1,0.1-0.1,0.2c1.1,0.1,2,0.6,2.7,1.3c0.8,0.8,1.2,1.7,1.2,2.6c0,1.1-0.4,2.1-1.3,2.9s-2.1,1.2-3.5,1.2
		c-1.3,0-2.5-0.4-3.4-1.2c-1-0.8-1.4-1.8-1.4-2.9c0-0.9,0.4-1.8,1.1-2.5c0.7-0.7,1.6-1.2,2.7-1.4c0.1,0,0.2,0,0.3-0.1
		c0.1,0,0.2-0.1,0.3-0.3c0-0.1-0.1-0.1-0.2-0.2c-0.1,0-0.2-0.1-0.2-0.1c-0.1,0-0.1,0-0.1-0.1c0,0,0-0.1,0-0.2c0,0,0,0,0-0.1
		C12.7,6218.8,12.7,6218.8,12.9,6218.8z M16.7,6223.9c0-0.9-0.3-1.6-0.9-2.2s-1.3-0.9-2.1-0.9s-1.5,0.3-2.1,0.9s-0.9,1.4-0.9,2.2
		c0,1,0.3,1.8,0.9,2.3c0.6,0.6,1.3,0.9,2.1,0.9s1.5-0.3,2.1-0.9C16.4,6225.7,16.7,6224.9,16.7,6223.9z"/>
</g>
<g>
	<polygon class="st1" points="13.2,1030.3 5.5,1022.9 7.6,1020.7 12.9,1025.9 21.9,1014.5 24.2,1016.4 	"/>
</g>
<g>
	<polygon points="13.2,2030.3 5.5,2022.9 7.6,2020.7 12.9,2025.9 21.9,2014.5 24.2,2016.4 	"/>
</g>
<rect x="2" y="9034" width="23" height="23"/>
<g>
	<polygon points="13.2,9052.3 5.5,9044.9 7.6,9042.7 12.9,9047.9 21.9,9036.5 24.2,9038.4 	"/>
</g>
<g>
	<path class="st0" d="M3.2,9045.5c0-2.8,1-5.2,3-7.2s4.4-3,7.3-3s5.2,1,7.2,3s3,4.4,3,7.2s-1,5.2-3,7.2s-4.4,3-7.2,3s-5.3-1-7.3-3
		S3.2,9048.3,3.2,9045.5z M22.8,9045.5c0-2.6-0.9-4.8-2.7-6.7c-1.8-1.8-4-2.7-6.5-2.7s-4.7,0.9-6.5,2.7s-2.7,4.1-2.7,6.7
		s0.9,4.9,2.7,6.7s4,2.7,6.5,2.7s4.7-0.9,6.5-2.7C21.8,9050.4,22.8,9048.1,22.8,9045.5z M12.9,9040.8c0.3,0,0.5,0,0.7,0
		c0.2,0.1,0.3,0.1,0.5,0.2c0.1,0.1,0.3,0.1,0.4,0.2c0.1,0.1,0.1,0.2,0.1,0.4c0,0.1,0,0.2,0,0.2c0,0.1-0.1,0.1-0.1,0.2
		c1.1,0.1,2,0.6,2.7,1.3c0.8,0.8,1.2,1.7,1.2,2.6c0,1.1-0.4,2.1-1.3,2.9s-2.1,1.2-3.5,1.2c-1.3,0-2.5-0.4-3.4-1.2
		c-1-0.8-1.4-1.8-1.4-2.9c0-0.9,0.4-1.8,1.1-2.5c0.7-0.7,1.6-1.2,2.7-1.4c0.1,0,0.2,0,0.3-0.1c0.1,0,0.2-0.1,0.3-0.3
		c0-0.1-0.1-0.1-0.2-0.2c-0.1,0-0.2-0.1-0.2-0.1c-0.1,0-0.1,0-0.1-0.1c0,0,0-0.1,0-0.2c0,0,0,0,0-0.1
		C12.7,9040.8,12.7,9040.8,12.9,9040.8z M16.7,9045.9c0-0.9-0.3-1.6-0.9-2.2c-0.6-0.6-1.3-0.9-2.1-0.9s-1.5,0.3-2.1,0.9
		c-0.6,0.6-0.9,1.4-0.9,2.2c0,1,0.3,1.8,0.9,2.3c0.6,0.6,1.3,0.9,2.1,0.9s1.5-0.3,2.1-0.9C16.4,9047.7,16.7,9046.9,16.7,9045.9z"/>
</g>
<g>
	<polygon class="st5" points="13.2,9052.3 5.5,9044.9 7.6,9042.7 12.9,9047.9 21.9,9036.5 24.2,9038.4 	"/>
</g>
<g>
	<polygon class="st2" points="13.2,3030.3 5.5,3022.9 7.6,3020.7 12.9,3025.9 21.9,3014.5 24.2,3016.4 	"/>
</g>
<g>
	<polygon class="st3" points="13.2,4030.3 5.5,4022.9 7.6,4020.7 12.9,4025.9 21.9,4014.5 24.2,4016.4 	"/>
</g>
<g>
	<polygon class="st4" points="13.2,5030.3 5.5,5022.9 7.6,5020.7 12.9,5025.9 21.9,5014.5 24.2,5016.4 	"/>
</g>
<path class="st1" d="M18.1,6226.5c0-2,0-1.8,0-3.7h-1.5c0-1.3,0.1-2.5-0.3-3.4c-0.4-0.7-1.1-1.4-1.9-1.6c-1.6-0.4-3,0.6-3.6,1.6
	c-0.5,0.9-0.3,2.1-0.3,3.3c-0.5,0-0.9,0-1.5,0c0,0.8,0,1.4,0,2.9c0,2-0.3,3.1,1.1,3.6c0.9,0.3,2.6,0.1,3.6,0.1
	c1.1,0,2.7,0.2,3.6-0.1C18.2,6228.9,18.1,6227.8,18.1,6226.5z M15.3,6222.8c-0.6,0-1.3,0-1.9,0c-0.5,0-1,0-1.6,0
	c-0.1-1.8-0.1-3.3,1.3-3.7c0.9-0.2,1.7,0.3,2,1.1C15.4,6220.9,15.2,6221.8,15.3,6222.8z"/>
</svg>
