<?xml version="1.0" encoding="utf-8"?>
<!-- Generator: Adobe Illustrator 23.0.1, SVG Export Plug-In . SVG Version: 6.00 Build 0)  -->
<svg version="1.1" id="Layer_1" xmlns="http://www.w3.org/2000/svg" xmlns:xlink="http://www.w3.org/1999/xlink" x="0px" y="0px"
	 viewBox="0 0 50 10200" width="50px" height="10200px" style="enable-background:new 0 0 50 10200; fill:transparent;" xml:space="preserve">
<style type="text/css">
	.st0{fill:#363636;}
	.st1{fill:#CCCCCC;}
	.st2{fill:#7F7F7F;}
	.st3{fill:#E30613;}
	.st4{fill:#008D36;}
	.st5{fill:#000000;}
</style>
<rect x="2" y="12" width="23" height="23"/>
<rect x="2" y="1012" width="23" height="23"/>
<rect x="2" y="6212" width="23" height="23"/>
<rect x="2" y="2012" width="23" height="23"/>
<g>
	<polygon class="st5" points="13.2,2030.3 5.5,2022.9 7.6,2020.7 12.9,2025.9 21.9,2014.5 24.2,2016.4 	"/>
</g>
<rect x="2" y="3012" width="23" height="23"/>
<rect x="2" y="4012" width="23" height="23"/>
<rect x="2" y="5012" width="23" height="23"/>
<g>
	<path class="st0" d="M3.2,23.5c0-2.8,1-5.2,3-7.2s4.4-3,7.3-3s5.2,1,7.2,3s3,4.4,3,7.2s-1,5.2-3,7.2s-4.4,3-7.2,3s-5.3-1-7.3-3
		S3.2,26.3,3.2,23.5z M22.8,23.5c0-2.6-0.9-4.8-2.7-6.7c-1.8-1.8-4-2.7-6.5-2.7S8.9,15,7.1,16.8s-2.7,4.1-2.7,6.7s0.9,4.9,2.7,6.7
		c1.8,1.8,4,2.7,6.5,2.7s4.7-0.9,6.5-2.7C21.8,28.4,22.8,26.1,22.8,23.5z M11.4,19.4c0.8,0,1.3,0,1.5-0.1l0,0c0.1,0,0.3-0.1,0.3-0.1
		c0.1,0,0.2,0,0.3,0c0.3,0,0.5,0,0.6,0.1c0.2,0.1,0.2,0.2,0.2,0.3c0,0,0,0,0,0.1l-0.1,0.1c-0.1,0.1-0.1,0.4-0.1,0.6
		c-0.1,0.9-0.1,1.8-0.2,2.7c-0.1,0.9-0.2,1.8-0.2,2.7c0.2,0,0.4,0,0.5,0s0.1,0.1,0.1,0.3c0,0.1-0.1,0.2-0.3,0.2s-0.5,0-1.1,0H8.5
		c-0.1,0.2-0.1,0.4-0.2,0.5C8.2,27,8,27.1,7.9,27.1c-0.2,0-0.3-0.1-0.4-0.3c-0.1-0.2-0.2-0.5-0.2-0.8C7.2,22.4,7,20.5,7,20.3
		c-0.1-0.3-0.3-0.5-0.6-0.7l0,0C6.1,19.4,6,19.3,6,19.2c0,0,0.1-0.1,0.3-0.2c0.4,0,0.7,0,1,0.1l0,0c0.2,0,0.3,0,0.5,0.1
		c0.1,0.1,0.2,0.1,0.3,0.1L11.4,19.4L11.4,19.4z M12.7,25.7c0-1,0-1.9,0.1-2.9c0-0.9,0-1.9,0-2.9c-0.8,0-1.5,0-2.3,0
		C9.8,20,9,20,8.2,20c0,1,0.1,1.9,0.1,2.8s0.1,1.9,0.1,2.9C8.4,25.7,12.7,25.7,12.7,25.7z M18.2,28.7c0,0.7-0.1,1.4-0.2,2.1
		c-0.2,0.7-0.4,1-0.7,1c-0.1,0-0.2-0.1-0.3-0.4c-0.1-0.2-0.1-0.5-0.1-0.8V17.3c0-0.1,0-0.2,0-0.3c0-0.1-0.1-0.1-0.2-0.3
		c-0.3-0.3-0.5-0.5-0.8-0.6s-0.4-0.2-0.5-0.2l0,0c0,0,0,0-0.1,0l0,0c0-0.1-0.1-0.1-0.1-0.2c0,0,0-0.1,0.1-0.1h0.1
		c0.3,0,0.8,0.1,1.2,0.2c0.4,0.1,0.8,0.3,1.3,0.4c0.1,0.1,0.2,0.2,0.3,0.2c0,0.1,0,0.1,0,0.3c0,0.1,0,0.2,0,0.3c0,0.1,0,0.2,0,0.3v6
		h0.1c0.3,0,0.4,0,0.5-0.1l0,0h0.1c0,0,0.1,0,0.1-0.1c0.1,0,0.3-0.1,0.5-0.2s0.3-0.1,0.5-0.1c0.5,0,0.9,0.1,1.3,0.1
		c0.4,0.1,0.5,0.3,0.5,0.5s-0.3,0.3-0.9,0.3h-2.8v5H18.2z"/>
</g>
<g>
	<path class="st0" d="M3.2,1023.5c0-2.8,1-5.2,3-7.2s4.4-3,7.3-3s5.2,1,7.2,3s3,4.4,3,7.2c0,2.8-1,5.2-3,7.2s-4.4,3-7.2,3
		s-5.3-1-7.3-3S3.2,1026.3,3.2,1023.5z M22.8,1023.5c0-2.6-0.9-4.8-2.7-6.7c-1.8-1.8-4-2.7-6.5-2.7s-4.7,0.9-6.5,2.7
		s-2.7,4.1-2.7,6.7c0,2.6,0.9,4.9,2.7,6.7c1.8,1.8,4,2.7,6.5,2.7s4.7-0.9,6.5-2.7C21.8,1028.4,22.8,1026.1,22.8,1023.5z
		 M11.4,1019.4c0.8,0,1.3,0,1.5-0.1l0,0c0.1,0,0.3-0.1,0.3-0.1c0.1,0,0.2,0,0.3,0c0.3,0,0.5,0,0.6,0.1c0.2,0.1,0.2,0.2,0.2,0.3
		c0,0,0,0,0,0.1l-0.1,0.1c-0.1,0.1-0.1,0.4-0.1,0.6c-0.1,0.9-0.1,1.8-0.2,2.7c-0.1,0.9-0.2,1.8-0.2,2.7c0.2,0,0.4,0,0.5,0
		s0.1,0.1,0.1,0.3c0,0.1-0.1,0.2-0.3,0.2s-0.5,0-1.1,0H8.5c-0.1,0.2-0.1,0.4-0.2,0.5c-0.1,0.2-0.3,0.3-0.4,0.3
		c-0.2,0-0.3-0.1-0.4-0.3c-0.1-0.2-0.2-0.5-0.2-0.8c-0.1-3.6-0.3-5.5-0.3-5.7c-0.1-0.3-0.3-0.5-0.6-0.7l0,0
		c-0.1-0.1-0.2-0.2-0.2-0.3c0,0,0.1-0.1,0.3-0.2c0.4,0,0.7,0,1,0.1l0,0c0.2,0,0.3,0,0.5,0.1c0.1,0.1,0.2,0.1,0.3,0.1L11.4,1019.4
		L11.4,1019.4z M12.7,1025.7c0-1,0-1.9,0.1-2.9c0-0.9,0-1.9,0-2.9c-0.8,0-1.5,0-2.3,0S9,1020,8.2,1020c0,1,0.1,1.9,0.1,2.8
		c0,0.9,0.1,1.9,0.1,2.9L12.7,1025.7L12.7,1025.7z M18.2,1028.7c0,0.7-0.1,1.4-0.2,2.1c-0.2,0.7-0.4,1-0.7,1c-0.1,0-0.2-0.1-0.3-0.4
		c-0.1-0.2-0.1-0.5-0.1-0.8v-13.3c0-0.1,0-0.2,0-0.3s-0.1-0.1-0.2-0.3c-0.3-0.3-0.5-0.5-0.8-0.6s-0.4-0.2-0.5-0.3l0,0c0,0,0,0-0.1,0
		l0,0c0-0.1-0.1-0.1-0.1-0.2c0,0,0-0.1,0.1-0.1h0.1c0.3,0,0.8,0.1,1.2,0.2c0.4,0.1,0.8,0.3,1.3,0.4c0.1,0.1,0.2,0.2,0.3,0.2
		c0,0.1,0,0.1,0,0.3c0,0.1,0,0.2,0,0.3s0,0.2,0,0.3v6h0.1c0.3,0,0.4,0,0.5-0.1l0,0h0.1c0,0,0.1,0,0.1-0.1c0.1,0,0.3-0.1,0.5-0.2
		c0.2-0.1,0.3-0.1,0.5-0.1c0.5,0,0.9,0.1,1.3,0.1c0.4,0.1,0.5,0.3,0.5,0.5s-0.3,0.3-0.9,0.3h-2.8v5.1H18.2z"/>
</g>
<g>
	<path class="st0" d="M3.2,2023.5c0-2.8,1-5.2,3-7.2s4.4-3,7.3-3s5.2,1,7.2,3s3,4.4,3,7.2c0,2.8-1,5.2-3,7.2s-4.4,3-7.2,3
		s-5.3-1-7.3-3S3.2,2026.3,3.2,2023.5z M22.8,2023.5c0-2.6-0.9-4.8-2.7-6.7c-1.8-1.8-4-2.7-6.5-2.7s-4.7,0.9-6.5,2.7
		c-1.8,1.8-2.7,4.1-2.7,6.7s0.9,4.9,2.7,6.7c1.8,1.8,4,2.7,6.5,2.7s4.7-0.9,6.5-2.7C21.8,2028.4,22.8,2026.1,22.8,2023.5z
		 M11.4,2019.4c0.8,0,1.3,0,1.5-0.1l0,0c0.1,0,0.3-0.1,0.3-0.1c0.1,0,0.2,0,0.3,0c0.3,0,0.5,0,0.6,0.1c0.2,0.1,0.2,0.2,0.2,0.3
		c0,0,0,0,0,0.1l-0.1,0.1c-0.1,0.1-0.1,0.4-0.1,0.6c-0.1,0.9-0.1,1.8-0.2,2.7c-0.1,0.9-0.2,1.8-0.2,2.7c0.2,0,0.4,0,0.5,0
		s0.1,0.1,0.1,0.3c0,0.1-0.1,0.2-0.3,0.2s-0.5,0-1.1,0H8.5c-0.1,0.2-0.1,0.4-0.2,0.5c-0.1,0.2-0.3,0.3-0.4,0.3
		c-0.2,0-0.3-0.1-0.4-0.3c-0.1-0.2-0.2-0.5-0.2-0.8c-0.1-3.6-0.3-5.5-0.3-5.7c-0.1-0.3-0.3-0.5-0.6-0.7l0,0
		c-0.1-0.1-0.2-0.2-0.2-0.3c0,0,0.1-0.1,0.3-0.2c0.4,0,0.7,0,1,0.1l0,0c0.2,0,0.3,0,0.5,0.1c0.1,0.1,0.2,0.1,0.3,0.1L11.4,2019.4
		L11.4,2019.4z M12.7,2025.7c0-1,0-1.9,0.1-2.9c0-0.9,0-1.9,0-2.9c-0.8,0-1.5,0-2.3,0S9,2020,8.2,2020c0,1,0.1,1.9,0.1,2.8
		s0.1,1.9,0.1,2.9H12.7z M18.2,2028.7c0,0.7-0.1,1.4-0.2,2.1c-0.2,0.7-0.4,1-0.7,1c-0.1,0-0.2-0.1-0.3-0.4c-0.1-0.2-0.1-0.5-0.1-0.8
		v-13.3c0-0.1,0-0.2,0-0.3c0-0.1-0.1-0.1-0.2-0.3c-0.3-0.3-0.5-0.5-0.8-0.6s-0.4-0.2-0.5-0.3l0,0c0,0,0,0-0.1,0l0,0
		c0-0.1-0.1-0.1-0.1-0.2c0,0,0-0.1,0.1-0.1h0.1c0.3,0,0.8,0.1,1.2,0.2s0.8,0.3,1.3,0.4c0.1,0.1,0.2,0.2,0.3,0.2c0,0.1,0,0.1,0,0.3
		c0,0.1,0,0.2,0,0.3c0,0.1,0,0.2,0,0.3v6h0.1c0.3,0,0.4,0,0.5-0.1l0,0h0.1c0,0,0.1,0,0.1-0.1c0.1,0,0.3-0.1,0.5-0.2s0.3-0.1,0.5-0.1
		c0.5,0,0.9,0.1,1.3,0.1c0.4,0.1,0.5,0.3,0.5,0.5s-0.3,0.3-0.9,0.3h-2.8v5.1H18.2z"/>
</g>
<g>
	<path class="st0" d="M3.2,3023.5c0-2.8,1-5.2,3-7.2s4.4-3,7.3-3s5.2,1,7.2,3s3,4.4,3,7.2s-1,5.2-3,7.2s-4.4,3-7.2,3s-5.3-1-7.3-3
		S3.2,3026.3,3.2,3023.5z M22.8,3023.5c0-2.6-0.9-4.8-2.7-6.7c-1.8-1.8-4-2.7-6.5-2.7s-4.7,0.9-6.5,2.7s-2.7,4.1-2.7,6.7
		c0,2.6,0.9,4.9,2.7,6.7s4,2.7,6.5,2.7s4.7-0.9,6.5-2.7C21.8,3028.4,22.8,3026.1,22.8,3023.5z M11.4,3019.4c0.8,0,1.3,0,1.5-0.1l0,0
		c0.1,0,0.3-0.1,0.3-0.1c0.1,0,0.2,0,0.3,0c0.3,0,0.5,0,0.6,0.1c0.2,0.1,0.2,0.2,0.2,0.3c0,0,0,0,0,0.1l-0.1,0.1
		c-0.1,0.1-0.1,0.4-0.1,0.6c-0.1,0.9-0.1,1.8-0.2,2.7c-0.1,0.9-0.2,1.8-0.2,2.7c0.2,0,0.4,0,0.5,0s0.1,0.1,0.1,0.3
		c0,0.1-0.1,0.2-0.3,0.2s-0.5,0-1.1,0H8.5c-0.1,0.2-0.1,0.4-0.2,0.5c-0.1,0.2-0.3,0.3-0.4,0.3c-0.2,0-0.3-0.1-0.4-0.3
		s-0.2-0.5-0.2-0.8c-0.1-3.6-0.3-5.5-0.3-5.7c-0.1-0.3-0.3-0.5-0.6-0.7l0,0c-0.1-0.1-0.2-0.2-0.2-0.3c0,0,0.1-0.1,0.3-0.2
		c0.4,0,0.7,0,1,0.1l0,0c0.2,0,0.3,0,0.5,0.1c0.1,0.1,0.2,0.1,0.3,0.1L11.4,3019.4L11.4,3019.4z M12.7,3025.7c0-1,0-1.9,0.1-2.9
		c0-0.9,0-1.9,0-2.9c-0.8,0-1.5,0-2.3,0S9,3020,8.2,3020c0,1,0.1,1.9,0.1,2.8c0,0.9,0.1,1.9,0.1,2.9L12.7,3025.7L12.7,3025.7z
		 M18.2,3028.7c0,0.7-0.1,1.4-0.2,2.1c-0.2,0.7-0.4,1-0.7,1c-0.1,0-0.2-0.1-0.3-0.4c-0.1-0.2-0.1-0.5-0.1-0.8v-13.3
		c0-0.1,0-0.2,0-0.3s-0.1-0.1-0.2-0.3c-0.3-0.3-0.5-0.5-0.8-0.6s-0.4-0.2-0.5-0.3l0,0c0,0,0,0-0.1,0l0,0c0-0.1-0.1-0.1-0.1-0.2
		c0,0,0-0.1,0.1-0.1h0.1c0.3,0,0.8,0.1,1.2,0.2c0.4,0.1,0.8,0.3,1.3,0.4c0.1,0.1,0.2,0.2,0.3,0.2c0,0.1,0,0.1,0,0.3
		c0,0.1,0,0.2,0,0.3s0,0.2,0,0.3v6h0.1c0.3,0,0.4,0,0.5-0.1l0,0h0.1c0,0,0.1,0,0.1-0.1c0.1,0,0.3-0.1,0.5-0.2
		c0.2-0.1,0.3-0.1,0.5-0.1c0.5,0,0.9,0.1,1.3,0.1c0.4,0.1,0.5,0.3,0.5,0.5s-0.3,0.3-0.9,0.3h-2.8v5.1H18.2z"/>
</g>
<g>
	<path class="st0" d="M3.2,4023.5c0-2.8,1-5.2,3-7.2s4.4-3,7.3-3s5.2,1,7.2,3s3,4.4,3,7.2s-1,5.2-3,7.2s-4.4,3-7.2,3s-5.3-1-7.3-3
		S3.2,4026.3,3.2,4023.5z M22.8,4023.5c0-2.6-0.9-4.8-2.7-6.7c-1.8-1.8-4-2.7-6.5-2.7s-4.7,0.9-6.5,2.7s-2.7,4.1-2.7,6.7
		c0,2.6,0.9,4.9,2.7,6.7s4,2.7,6.5,2.7s4.7-0.9,6.5-2.7C21.8,4028.4,22.8,4026.1,22.8,4023.5z M11.4,4019.4c0.8,0,1.3,0,1.5-0.1l0,0
		c0.1,0,0.3-0.1,0.3-0.1c0.1,0,0.2,0,0.3,0c0.3,0,0.5,0,0.6,0.1c0.2,0.1,0.2,0.2,0.2,0.3c0,0,0,0,0,0.1l-0.1,0.1
		c-0.1,0.1-0.1,0.4-0.1,0.6c-0.1,0.9-0.1,1.8-0.2,2.7c-0.1,0.9-0.2,1.8-0.2,2.7c0.2,0,0.4,0,0.5,0s0.1,0.1,0.1,0.3
		c0,0.1-0.1,0.2-0.3,0.2s-0.5,0-1.1,0H8.5c-0.1,0.2-0.1,0.4-0.2,0.5c-0.1,0.2-0.3,0.3-0.4,0.3c-0.2,0-0.3-0.1-0.4-0.3
		s-0.2-0.5-0.2-0.8c-0.1-3.6-0.3-5.5-0.3-5.7c-0.1-0.3-0.3-0.5-0.6-0.7l0,0c-0.1-0.1-0.2-0.2-0.2-0.3c0,0,0.1-0.1,0.3-0.2
		c0.4,0,0.7,0,1,0.1l0,0c0.2,0,0.3,0,0.5,0.1c0.1,0.1,0.2,0.1,0.3,0.1L11.4,4019.4L11.4,4019.4z M12.7,4025.7c0-1,0-1.9,0.1-2.9
		c0-0.9,0-1.9,0-2.9c-0.8,0-1.5,0-2.3,0S9,4020,8.2,4020c0,1,0.1,1.9,0.1,2.8c0,0.9,0.1,1.9,0.1,2.9L12.7,4025.7L12.7,4025.7z
		 M18.2,4028.7c0,0.7-0.1,1.4-0.2,2.1c-0.2,0.7-0.4,1-0.7,1c-0.1,0-0.2-0.1-0.3-0.4c-0.1-0.2-0.1-0.5-0.1-0.8v-13.3
		c0-0.1,0-0.2,0-0.3s-0.1-0.1-0.2-0.3c-0.3-0.3-0.5-0.5-0.8-0.6s-0.4-0.2-0.5-0.3l0,0c0,0,0,0-0.1,0l0,0c0-0.1-0.1-0.1-0.1-0.2
		c0,0,0-0.1,0.1-0.1h0.1c0.3,0,0.8,0.1,1.2,0.2c0.4,0.1,0.8,0.3,1.3,0.4c0.1,0.1,0.2,0.2,0.3,0.2c0,0.1,0,0.1,0,0.3
		c0,0.1,0,0.2,0,0.3s0,0.2,0,0.3v6h0.1c0.3,0,0.4,0,0.5-0.1l0,0h0.1c0,0,0.1,0,0.1-0.1c0.1,0,0.3-0.1,0.5-0.2
		c0.2-0.1,0.3-0.1,0.5-0.1c0.5,0,0.9,0.1,1.3,0.1c0.4,0.1,0.5,0.3,0.5,0.5s-0.3,0.3-0.9,0.3h-2.8v5.1H18.2z"/>
</g>
<g>
	<path class="st0" d="M3.2,5023.5c0-2.8,1-5.2,3-7.2s4.4-3,7.3-3s5.2,1,7.2,3s3,4.4,3,7.2c0,2.8-1,5.2-3,7.2s-4.4,3-7.2,3
		s-5.3-1-7.3-3S3.2,5026.3,3.2,5023.5z M22.8,5023.5c0-2.6-0.9-4.8-2.7-6.7c-1.8-1.8-4-2.7-6.5-2.7s-4.7,0.9-6.5,2.7
		c-1.8,1.8-2.7,4.1-2.7,6.7s0.9,4.9,2.7,6.7c1.8,1.8,4,2.7,6.5,2.7s4.7-0.9,6.5-2.7C21.8,5028.4,22.8,5026.1,22.8,5023.5z
		 M11.4,5019.4c0.8,0,1.3,0,1.5-0.1l0,0c0.1,0,0.3-0.1,0.3-0.1c0.1,0,0.2,0,0.3,0c0.3,0,0.5,0,0.6,0.1c0.2,0.1,0.2,0.2,0.2,0.3
		c0,0,0,0,0,0.1l-0.1,0.1c-0.1,0.1-0.1,0.4-0.1,0.6c-0.1,0.9-0.1,1.8-0.2,2.7c-0.1,0.9-0.2,1.8-0.2,2.7c0.2,0,0.4,0,0.5,0
		s0.1,0.1,0.1,0.3c0,0.1-0.1,0.2-0.3,0.2s-0.5,0-1.1,0H8.5c-0.1,0.2-0.1,0.4-0.2,0.5c-0.1,0.2-0.3,0.3-0.4,0.3
		c-0.2,0-0.3-0.1-0.4-0.3c-0.1-0.2-0.2-0.5-0.2-0.8c-0.1-3.6-0.3-5.5-0.3-5.7c-0.1-0.3-0.3-0.5-0.6-0.7l0,0
		c-0.1-0.1-0.2-0.2-0.2-0.3c0,0,0.1-0.1,0.3-0.2c0.4,0,0.7,0,1,0.1l0,0c0.2,0,0.3,0,0.5,0.1c0.1,0.1,0.2,0.1,0.3,0.1L11.4,5019.4
		L11.4,5019.4z M12.7,5025.7c0-1,0-1.9,0.1-2.9c0-0.9,0-1.9,0-2.9c-0.8,0-1.5,0-2.3,0S9,5020,8.2,5020c0,1,0.1,1.9,0.1,2.8
		s0.1,1.9,0.1,2.9H12.7z M18.2,5028.7c0,0.7-0.1,1.4-0.2,2.1c-0.2,0.7-0.4,1-0.7,1c-0.1,0-0.2-0.1-0.3-0.4c-0.1-0.2-0.1-0.5-0.1-0.8
		v-13.3c0-0.1,0-0.2,0-0.3c0-0.1-0.1-0.1-0.2-0.3c-0.3-0.3-0.5-0.5-0.8-0.6s-0.4-0.2-0.5-0.3l0,0c0,0,0,0-0.1,0l0,0
		c0-0.1-0.1-0.1-0.1-0.2c0,0,0-0.1,0.1-0.1h0.1c0.3,0,0.8,0.1,1.2,0.2s0.8,0.3,1.3,0.4c0.1,0.1,0.2,0.2,0.3,0.2c0,0.1,0,0.1,0,0.3
		c0,0.1,0,0.2,0,0.3c0,0.1,0,0.2,0,0.3v6h0.1c0.3,0,0.4,0,0.5-0.1l0,0h0.1c0,0,0.1,0,0.1-0.1c0.1,0,0.3-0.1,0.5-0.2s0.3-0.1,0.5-0.1
		c0.5,0,0.9,0.1,1.3,0.1c0.4,0.1,0.5,0.3,0.5,0.5s-0.3,0.3-0.9,0.3h-2.8v5.1H18.2z"/>
</g>
<g>
	<path class="st0" d="M3.2,6223.5c0-2.8,1-5.2,3-7.2s4.4-3,7.3-3s5.2,1,7.2,3s3,4.4,3,7.2c0,2.8-1,5.2-3,7.2s-4.4,3-7.2,3
		s-5.3-1-7.3-3S3.2,6226.3,3.2,6223.5z M22.8,6223.5c0-2.6-0.9-4.8-2.7-6.7c-1.8-1.8-4-2.7-6.5-2.7s-4.7,0.9-6.5,2.7
		c-1.8,1.8-2.7,4.1-2.7,6.7s0.9,4.9,2.7,6.7c1.8,1.8,4,2.7,6.5,2.7s4.7-0.9,6.5-2.7C21.8,6228.4,22.8,6226.1,22.8,6223.5z
		 M11.4,6219.4c0.8,0,1.3,0,1.5-0.1l0,0c0.1,0,0.3-0.1,0.3-0.1c0.1,0,0.2,0,0.3,0c0.3,0,0.5,0,0.6,0.1c0.2,0.1,0.2,0.2,0.2,0.3
		c0,0,0,0,0,0.1l-0.1,0.1c-0.1,0.1-0.1,0.4-0.1,0.6c-0.1,0.9-0.1,1.8-0.2,2.7c-0.1,0.9-0.2,1.8-0.2,2.7c0.2,0,0.4,0,0.5,0
		s0.1,0.1,0.1,0.3c0,0.1-0.1,0.2-0.3,0.2s-0.5,0-1.1,0H8.5c-0.1,0.2-0.1,0.4-0.2,0.5c-0.1,0.2-0.3,0.3-0.4,0.3
		c-0.2,0-0.3-0.1-0.4-0.3c-0.1-0.2-0.2-0.5-0.2-0.8c-0.1-3.6-0.3-5.5-0.3-5.7c-0.1-0.3-0.3-0.5-0.6-0.7l0,0
		c-0.1-0.1-0.2-0.2-0.2-0.3c0,0,0.1-0.1,0.3-0.2c0.4,0,0.7,0,1,0.1l0,0c0.2,0,0.3,0,0.5,0.1c0.1,0.1,0.2,0.1,0.3,0.1L11.4,6219.4
		L11.4,6219.4z M12.7,6225.7c0-1,0-1.9,0.1-2.9c0-0.9,0-1.9,0-2.9c-0.8,0-1.5,0-2.3,0S9,6220,8.2,6220c0,1,0.1,1.9,0.1,2.8
		s0.1,1.9,0.1,2.9H12.7z M18.2,6228.7c0,0.7-0.1,1.4-0.2,2.1c-0.2,0.7-0.4,1-0.7,1c-0.1,0-0.2-0.1-0.3-0.4c-0.1-0.2-0.1-0.5-0.1-0.8
		v-13.3c0-0.1,0-0.2,0-0.3c0-0.1-0.1-0.1-0.2-0.3c-0.3-0.3-0.5-0.5-0.8-0.6s-0.4-0.2-0.5-0.3l0,0c0,0,0,0-0.1,0l0,0
		c0-0.1-0.1-0.1-0.1-0.2c0,0,0-0.1,0.1-0.1h0.1c0.3,0,0.8,0.1,1.2,0.2s0.8,0.3,1.3,0.4c0.1,0.1,0.2,0.2,0.3,0.2c0,0.1,0,0.1,0,0.3
		c0,0.1,0,0.2,0,0.3c0,0.1,0,0.2,0,0.3v6h0.1c0.3,0,0.4,0,0.5-0.1l0,0h0.1c0,0,0.1,0,0.1-0.1c0.1,0,0.3-0.1,0.5-0.2s0.3-0.1,0.5-0.1
		c0.5,0,0.9,0.1,1.3,0.1c0.4,0.1,0.5,0.3,0.5,0.5s-0.3,0.3-0.9,0.3h-2.8v5.1H18.2z"/>
</g>
<g>
	<polygon class="st1" points="13.2,1030.3 5.5,1022.9 7.6,1020.7 12.9,1025.9 21.9,1014.5 24.2,1016.4 	"/>
</g>
<g>
	<polygon points="13.2,2030.3 5.5,2022.9 7.6,2020.7 12.9,2025.9 21.9,2014.5 24.2,2016.4 	"/>
</g>
<rect x="2" y="9034" width="23" height="23"/>
<g>
	<polygon points="13.2,9052.3 5.5,9044.9 7.6,9042.7 12.9,9047.9 21.9,9036.5 24.2,9038.4 	"/>
</g>
<g>
	<path class="st0" d="M3.2,9045.5c0-2.8,1-5.2,3-7.2s4.4-3,7.3-3s5.2,1,7.2,3s3,4.4,3,7.2s-1,5.2-3,7.2s-4.4,3-7.2,3s-5.3-1-7.3-3
		S3.2,9048.3,3.2,9045.5z M22.8,9045.5c0-2.6-0.9-4.8-2.7-6.7c-1.8-1.8-4-2.7-6.5-2.7s-4.7,0.9-6.5,2.7s-2.7,4.1-2.7,6.7
		s0.9,4.9,2.7,6.7s4,2.7,6.5,2.7s4.7-0.9,6.5-2.7C21.8,9050.4,22.8,9048.1,22.8,9045.5z M11.4,9041.4c0.8,0,1.3,0,1.5-0.1l0,0
		c0.1,0,0.3-0.1,0.3-0.1c0.1,0,0.2,0,0.3,0c0.3,0,0.5,0,0.6,0.1c0.2,0.1,0.2,0.2,0.2,0.3c0,0,0,0,0,0.1l-0.1,0.1
		c-0.1,0.1-0.1,0.4-0.1,0.6c-0.1,0.9-0.1,1.8-0.2,2.7c-0.1,0.9-0.2,1.8-0.2,2.7c0.2,0,0.4,0,0.5,0s0.1,0.1,0.1,0.3
		c0,0.1-0.1,0.2-0.3,0.2s-0.5,0-1.1,0H8.5c-0.1,0.2-0.1,0.4-0.2,0.5c-0.1,0.2-0.3,0.3-0.4,0.3c-0.2,0-0.3-0.1-0.4-0.3
		s-0.2-0.5-0.2-0.8c-0.1-3.6-0.3-5.5-0.3-5.7c-0.1-0.3-0.3-0.5-0.6-0.7l0,0c-0.1-0.1-0.2-0.2-0.2-0.3c0,0,0.1-0.1,0.3-0.2
		c0.4,0,0.7,0,1,0.1l0,0c0.2,0,0.3,0,0.5,0.1c0.1,0.1,0.2,0.1,0.3,0.1H11.4L11.4,9041.4z M12.7,9047.7c0-1,0-1.9,0.1-2.9
		c0-0.9,0-1.9,0-2.9c-0.8,0-1.5,0-2.3,0S9,9042,8.2,9042c0,1,0.1,1.9,0.1,2.8c0,0.9,0.1,1.9,0.1,2.9H12.7z M18.2,9050.7
		c0,0.7-0.1,1.4-0.2,2.1c-0.2,0.7-0.4,1-0.7,1c-0.1,0-0.2-0.1-0.3-0.4c-0.1-0.2-0.1-0.5-0.1-0.8v-13.3c0-0.1,0-0.2,0-0.3
		c0-0.1-0.1-0.1-0.2-0.3c-0.3-0.3-0.5-0.5-0.8-0.6s-0.4-0.2-0.5-0.3l0,0c0,0,0,0-0.1,0l0,0c0-0.1-0.1-0.1-0.1-0.2c0,0,0-0.1,0.1-0.1
		h0.1c0.3,0,0.8,0.1,1.2,0.2c0.4,0.1,0.8,0.3,1.3,0.4c0.1,0.1,0.2,0.2,0.3,0.2c0,0.1,0,0.1,0,0.3c0,0.1,0,0.2,0,0.3
		c0,0.1,0,0.2,0,0.3v6h0.1c0.3,0,0.4,0,0.5-0.1l0,0h0.1c0,0,0.1,0,0.1-0.1c0.1,0,0.3-0.1,0.5-0.2c0.2-0.1,0.3-0.1,0.5-0.1
		c0.5,0,0.9,0.1,1.3,0.1c0.4,0.1,0.5,0.3,0.5,0.5s-0.3,0.3-0.9,0.3h-2.8v5.1H18.2z"/>
</g>
<g>
	<polygon class="st5" points="13.2,9052.3 5.5,9044.9 7.6,9042.7 12.9,9047.9 21.9,9036.5 24.2,9038.4 	"/>
</g>
<g>
	<polygon class="st2" points="13.2,3030.3 5.5,3022.9 7.6,3020.7 12.9,3025.9 21.9,3014.5 24.2,3016.4 	"/>
</g>
<g>
	<polygon class="st3" points="13.2,4030.3 5.5,4022.9 7.6,4020.7 12.9,4025.9 21.9,4014.5 24.2,4016.4 	"/>
</g>
<g>
	<polygon class="st4" points="13.2,5030.3 5.5,5022.9 7.6,5020.7 12.9,5025.9 21.9,5014.5 24.2,5016.4 	"/>
</g>
<path class="st1" d="M18.1,6226.5c0-2,0-1.8,0-3.7h-1.5c0-1.3,0.1-2.5-0.3-3.4c-0.4-0.7-1.1-1.4-1.9-1.6c-1.6-0.4-3,0.6-3.6,1.6
	c-0.5,0.9-0.3,2.1-0.3,3.3c-0.5,0-0.9,0-1.5,0c0,0.8,0,1.4,0,2.9c0,2-0.3,3.1,1.1,3.6c0.9,0.3,2.6,0.1,3.6,0.1
	c1.1,0,2.7,0.2,3.6-0.1C18.2,6228.9,18.1,6227.8,18.1,6226.5z M15.3,6222.8c-0.6,0-1.3,0-1.9,0c-0.5,0-1,0-1.6,0
	c-0.1-1.8-0.1-3.3,1.3-3.7c0.9-0.2,1.7,0.3,2,1.1C15.4,6220.9,15.2,6221.8,15.3,6222.8z"/>
</svg>
