<?xml version="1.0" encoding="utf-8"?>
<!-- Generator: Adobe Illustrator 23.0.1, SVG Export Plug-In . SVG Version: 6.00 Build 0)  -->
<svg version="1.1" id="Layer_1" xmlns="http://www.w3.org/2000/svg" xmlns:xlink="http://www.w3.org/1999/xlink" x="0px" y="0px"
	 viewBox="0 0 50 10200" width="50px" height="10200px" style="enable-background:new 0 0 50 10200; fill:transparent;" xml:space="preserve">
<style type="text/css">
	.st0{fill:#363636;}
	.st1{fill:#CCCCCC;}
	.st2{fill:#7F7F7F;}
	.st3{fill:#E30613;}
	.st4{fill:#008D36;}
           .st5{fill:#000000;}
</style>
<rect x="2" y="12" width="23" height="23"/>
<rect x="2" y="1012" width="23" height="23"/>
<rect x="2" y="6212" width="23" height="23"/>
<rect x="2" y="2012" width="23" height="23"/>
<g>
	<polygon class="st5" points="13.2,2030.3 5.5,2022.9 7.6,2020.7 12.9,2025.9 21.9,2014.5 24.2,2016.4 	"/>
</g>
<rect x="2" y="3012" width="23" height="23"/>
<rect x="2" y="4012" width="23" height="23"/>
<rect x="2" y="5012" width="23" height="23"/>
<g>
	<path class="st0" d="M2.8,23.5c0-2.9,1-5.4,3.1-7.5s4.6-3.1,7.6-3.1s5.5,1,7.5,3.1c2.1,2.1,3.1,4.6,3.1,7.5S23,28.9,21,31
		s-4.6,3.1-7.5,3.1c-3,0-5.5-1-7.6-3.1S2.8,26.4,2.8,23.5z M23.2,23.5c0-2.7-1-5-2.8-7c-1.9-1.9-4.2-2.9-6.8-2.9
		c-2.7,0-4.9,1-6.8,2.9s-2.9,4.2-2.9,7s0.9,5.1,2.9,7c1.9,1.9,4.2,2.9,6.8,2.9s4.9-0.9,6.8-2.9C22.2,28.6,23.2,26.2,23.2,23.5z
		 M9,26.9c0.6,0,1.3,0,2.1-0.1c0.7-0.1,1.4-0.1,2.2-0.3c1.3-0.2,2.5-0.6,3.7-1.1V17c0-0.1,0-0.1,0-0.2s-0.1-0.2-0.2-0.3
		c-0.3-0.3-0.6-0.5-0.8-0.7c-0.3-0.1-0.4-0.2-0.5-0.3l0,0l0,0c-0.1,0-0.1,0-0.1,0c-0.1-0.1-0.1-0.1-0.1-0.2c0,0,0.1-0.1,0.2-0.2h0.1
		c0.4,0,0.8,0.1,1.2,0.2c0.4,0.1,0.8,0.3,1.2,0.5c0.2,0.1,0.3,0.2,0.3,0.2c0,0.1,0.1,0.2,0.1,0.3c0,0.2,0,0.3,0,0.4
		c-0.1,0.1-0.1,0.2-0.1,0.2v6.3h0.1c0.1,0,0.2,0,0.3-0.1c0.1,0,0.2,0,0.2,0l0,0c0,0,0.1,0,0.1-0.1c0,0,0.1,0,0.2-0.1
		s0.3-0.1,0.5-0.2s0.4-0.1,0.6-0.1c0.5,0,0.9,0.1,1.3,0.1c0.4,0.1,0.5,0.3,0.5,0.5s-0.3,0.3-0.9,0.3h-2.9V29c0,0.4-0.1,0.8-0.1,1.1
		c-0.1,0.4-0.1,0.7-0.2,1s-0.2,0.6-0.3,0.8c-0.2,0.2-0.3,0.3-0.4,0.3s-0.2-0.1-0.3-0.4c0-0.2,0-0.5,0-0.9v-4.8
		c-0.6,0.3-1.1,0.5-1.8,0.7s-1.4,0.4-2.1,0.6c-1.7,0.4-3.1,0.5-4.4,0.5c-0.5,0-0.9-0.1-1.1-0.3c-0.2-0.2-0.3-0.5-0.3-1.1v-2.3
		c0-0.2,0-0.5-0.1-0.7C7.1,23.2,7,23.1,6.8,23s-0.3-0.2-0.5-0.3l0,0c-0.1-0.1-0.2-0.1-0.2-0.2c-0.1,0-0.1,0-0.1-0.1s0.1-0.1,0.3-0.2
		c0.1,0,0.3,0,0.5,0s0.4,0.1,0.6,0.1c0.2,0.1,0.3,0.1,0.5,0.1c0.2,0.1,0.3,0.1,0.4,0.2c0.7,0,1.4,0,2-0.1c0.6,0,1.3,0,2-0.1
		c0-0.5,0-1.1,0.1-1.6c0-0.5,0.1-1,0.1-1.6c-0.1,0-0.2,0-0.3,0s-0.2,0-0.3,0c-0.5,0-1,0.1-1.6,0.1c-1,0.1-1.5,0.1-1.6,0.1l0,0
		c-0.1,0-0.2,0.1-0.4,0.1c-0.2,0.1-0.3,0.1-0.5,0.1s-0.4,0-0.6-0.1s-0.4-0.2-0.5-0.3c-0.2-0.1-0.3-0.2-0.4-0.3
		c-0.1-0.1-0.2-0.1-0.2-0.2c0,0,0-0.1,0.1-0.1c0,0,0.1-0.1,0.2-0.1c0.1,0.1,0.2,0.1,0.3,0.1c0.1,0,0.2,0.1,0.3,0.1l0,0
		c0.2,0.1,0.3,0.1,0.5,0.1c0.1,0,0.3,0.1,0.4,0.1c0.3,0.1,0.9,0,2-0.1c0.5,0,1-0.1,1.5-0.1c0.5-0.1,1-0.1,1.4-0.2l0,0
		c0.9-0.2,1.3-0.1,1,0.5c-0.2,0.3-0.3,0.6-0.3,0.8l-0.3,2.7h0.1c0.3,0,0.4,0.1,0.4,0.3c0,0.1,0,0.1,0,0.2c0.2,0,0.1,0,0,0
		c-0.1,0.1-0.3,0.1-0.5,0.1s-0.5,0-0.9,0c-0.7,0-1.3,0.1-1.9,0.1c-0.6,0-1.3,0.1-2,0.1c0,0.5,0,1,0,1.5s0,1.1,0,1.6
		c0,0.3,0,0.4,0.1,0.4C8.7,26.9,8.8,26.9,9,26.9z"/>
</g>
<g>
	<path class="st0" d="M2.8,1023.5c0-2.9,1-5.4,3.1-7.5s4.6-3.1,7.6-3.1s5.5,1,7.5,3.1c2.1,2.1,3.1,4.6,3.1,7.5s-1.1,5.4-3.1,7.5
		s-4.6,3.1-7.5,3.1c-3,0-5.5-1-7.6-3.1S2.8,1026.4,2.8,1023.5z M23.2,1023.5c0-2.7-1-5-2.8-7c-1.9-1.9-4.2-2.9-6.8-2.9
		c-2.7,0-4.9,1-6.8,2.9s-2.9,4.2-2.9,7c0,2.8,0.9,5.1,2.9,7c1.9,1.9,4.2,2.9,6.8,2.9s4.9-0.9,6.8-2.9
		C22.2,1028.6,23.2,1026.2,23.2,1023.5z M9,1026.9c0.6,0,1.3,0,2.1-0.1c0.7-0.1,1.4-0.1,2.2-0.3c1.3-0.2,2.5-0.6,3.7-1.1v-8.5
		c0-0.1,0-0.1,0-0.2c0-0.1-0.1-0.2-0.2-0.3c-0.3-0.3-0.6-0.5-0.8-0.7c-0.3-0.1-0.4-0.2-0.5-0.3l0,0l0,0c-0.1,0-0.1,0-0.1,0
		c-0.1-0.1-0.1-0.1-0.1-0.2c0,0,0.1-0.1,0.2-0.2h0.1c0.4,0,0.8,0.1,1.2,0.2c0.4,0.1,0.8,0.3,1.2,0.5c0.2,0.1,0.3,0.2,0.3,0.2
		c0,0.1,0.1,0.2,0.1,0.3c0,0.2,0,0.3,0,0.4c-0.1,0.1-0.1,0.2-0.1,0.2v6.3h0.1c0.1,0,0.2,0,0.3-0.1c0.1,0,0.2,0,0.2,0l0,0
		c0,0,0.1,0,0.1-0.1c0,0,0.1,0,0.2-0.1s0.3-0.1,0.5-0.2c0.2-0.1,0.4-0.1,0.6-0.1c0.5,0,0.9,0.1,1.3,0.1c0.4,0.1,0.5,0.3,0.5,0.5
		s-0.3,0.3-0.9,0.3h-2.9v5.3c0,0.4-0.1,0.8-0.1,1.1c-0.1,0.4-0.1,0.7-0.2,1s-0.2,0.6-0.3,0.8c-0.2,0.2-0.3,0.3-0.4,0.3
		s-0.2-0.1-0.3-0.4c-0.1-0.2-0.1-0.5-0.1-0.9v-4.8c-0.6,0.3-1.1,0.5-1.8,0.7s-1.4,0.4-2.1,0.6c-1.7,0.4-3.1,0.5-4.4,0.5
		c-0.5,0-0.9-0.1-1.1-0.3c-0.2-0.2-0.3-0.5-0.3-1.1v-2.3c0-0.2,0-0.5-0.1-0.7s-0.2-0.3-0.4-0.4c-0.2-0.1-0.3-0.2-0.5-0.3l0,0
		c-0.1-0.1-0.2-0.1-0.2-0.2c-0.1,0-0.1-0.1-0.1-0.1c0-0.1,0.1-0.1,0.3-0.2c0.1,0,0.3,0,0.5,0s0.4,0.1,0.6,0.1
		c0.2,0.1,0.3,0.1,0.5,0.1c0.2,0.1,0.3,0.1,0.4,0.2c0.7,0,1.4,0,2-0.1c0.6,0,1.3,0,2-0.1c0-0.5,0-1.1,0.1-1.6c0-0.5,0.1-1,0.1-1.6
		c-0.1,0-0.2,0-0.3,0s-0.2,0-0.3,0c-0.5,0-1,0.1-1.6,0.1c-1,0.1-1.5,0.1-1.6,0.1l0,0c-0.1,0-0.2,0.1-0.4,0.1
		c-0.2,0.1-0.3,0.1-0.5,0.1s-0.4,0-0.6-0.1s-0.4-0.2-0.5-0.3c-0.2-0.1-0.3-0.2-0.4-0.3s-0.2-0.1-0.2-0.2c0,0,0-0.1,0.1-0.1
		c0,0,0.1-0.1,0.2-0.1c0.1,0.1,0.2,0.1,0.3,0.1c0.1,0,0.2,0.1,0.3,0.1l0,0c0.2,0.1,0.3,0.1,0.5,0.1c0.1,0,0.3,0.1,0.4,0.1
		c0.3,0.1,0.9,0,2-0.1c0.5,0,1-0.1,1.5-0.1c0.5-0.1,1-0.1,1.4-0.2l0,0c0.9-0.2,1.3-0.1,1,0.5c-0.2,0.3-0.3,0.6-0.3,0.8l-0.3,2.7h0.1
		c0.3,0,0.4,0.1,0.4,0.3c0,0.1,0,0.1,0,0.2c-0.1,0.1-0.1,0.1-0.2,0.1c-0.1,0.1-0.3,0.1-0.5,0.1s-0.5,0-0.9,0c-0.7,0-1.3,0.1-1.9,0.1
		c-0.6,0-1.3,0.1-2,0.1c0,0.5,0,1,0,1.5s0,1.1,0,1.6c0,0.3,0,0.4,0.1,0.4C8.7,1026.9,8.8,1026.9,9,1026.9z"/>
</g>
<g>
	<path class="st0" d="M2.8,2023.5c0-2.9,1-5.4,3.1-7.5s4.6-3.1,7.6-3.1s5.5,1,7.5,3.1c2.1,2.1,3.1,4.6,3.1,7.5s-1.1,5.4-3.1,7.5
		s-4.6,3.1-7.5,3.1c-3,0-5.5-1-7.6-3.1S2.8,2026.4,2.8,2023.5z M23.2,2023.5c0-2.7-1-5-2.8-7c-1.9-1.9-4.2-2.9-6.8-2.9
		c-2.7,0-4.9,1-6.8,2.9s-2.9,4.2-2.9,7s0.9,5.1,2.9,7c1.9,1.9,4.2,2.9,6.8,2.9s4.9-0.9,6.8-2.9C22.2,2028.6,23.2,2026.2,23.2,2023.5
		z M9,2026.9c0.6,0,1.3,0,2.1-0.1c0.7-0.1,1.4-0.1,2.2-0.3c1.3-0.2,2.5-0.6,3.7-1.1v-8.5c0-0.1,0-0.1,0-0.2s-0.1-0.2-0.2-0.3
		c-0.3-0.3-0.6-0.5-0.8-0.7c-0.3-0.1-0.4-0.2-0.5-0.3l0,0l0,0c-0.1,0-0.1,0-0.1,0c-0.1-0.1-0.1-0.1-0.1-0.2c0,0,0.1-0.1,0.2-0.2h0.1
		c0.4,0,0.8,0.1,1.2,0.2c0.4,0.1,0.8,0.3,1.2,0.5c0.2,0.1,0.3,0.2,0.3,0.2c0,0.1,0.1,0.2,0.1,0.3c0,0.2,0,0.3,0,0.4
		c-0.1,0.1-0.1,0.2-0.1,0.2v6.3h0.1c0.1,0,0.2,0,0.3-0.1c0.1,0,0.2,0,0.2,0l0,0c0,0,0.1,0,0.1-0.1c0,0,0.1,0,0.2-0.1
		s0.3-0.1,0.5-0.2s0.4-0.1,0.6-0.1c0.5,0,0.9,0.1,1.3,0.1c0.4,0.1,0.5,0.3,0.5,0.5s-0.3,0.3-0.9,0.3h-2.9v5.3c0,0.4-0.1,0.8-0.1,1.1
		c-0.1,0.4-0.1,0.7-0.2,1s-0.2,0.6-0.3,0.8c-0.2,0.2-0.3,0.3-0.4,0.3s-0.2-0.1-0.3-0.4c-0.1-0.2-0.1-0.5-0.1-0.9v-4.8
		c-0.6,0.3-1.1,0.5-1.8,0.7s-1.4,0.4-2.1,0.6c-1.7,0.4-3.1,0.5-4.4,0.5c-0.5,0-0.9-0.1-1.1-0.3c-0.2-0.2-0.3-0.5-0.3-1.1v-2.3
		c0-0.2,0-0.5-0.1-0.7s-0.2-0.3-0.4-0.4c-0.2-0.1-0.3-0.2-0.5-0.3l0,0c-0.1-0.1-0.2-0.1-0.2-0.2c-0.1,0-0.1-0.1-0.1-0.1
		c0-0.1,0.1-0.1,0.3-0.2c0.1,0,0.3,0,0.5,0s0.4,0.1,0.6,0.1c0.2,0.1,0.3,0.1,0.5,0.1c0.2,0.1,0.3,0.1,0.4,0.2c0.7,0,1.4,0,2-0.1
		c0.6,0,1.3,0,2-0.1c0-0.5,0-1.1,0.1-1.6c0-0.5,0.1-1,0.1-1.6c-0.1,0-0.2,0-0.3,0s-0.2,0-0.3,0c-0.5,0-1,0.1-1.6,0.1
		c-1,0.1-1.5,0.1-1.6,0.1l0,0c-0.1,0-0.2,0.1-0.4,0.1c-0.2,0.1-0.3,0.1-0.5,0.1s-0.4,0-0.6-0.1s-0.4-0.2-0.5-0.3
		c-0.2-0.1-0.3-0.2-0.4-0.3c-0.1-0.1-0.2-0.1-0.2-0.2c0,0,0-0.1,0.1-0.1c0,0,0.1-0.1,0.2-0.1c0.1,0.1,0.2,0.1,0.3,0.1
		c0.1,0,0.2,0.1,0.3,0.1l0,0c0.2,0.1,0.3,0.1,0.5,0.1c0.1,0,0.3,0.1,0.4,0.1c0.3,0.1,0.9,0,2-0.1c0.5,0,1-0.1,1.5-0.1
		c0.5-0.1,1-0.1,1.4-0.2l0,0c0.9-0.2,1.3-0.1,1,0.5c-0.2,0.3-0.3,0.6-0.3,0.8l-0.3,2.7h0.1c0.3,0,0.4,0.1,0.4,0.3c0,0.1,0,0.1,0,0.2
		c-0.1,0.1-0.1,0.1-0.2,0.1c-0.1,0.1-0.3,0.1-0.5,0.1s-0.5,0-0.9,0c-0.7,0-1.3,0.1-1.9,0.1c-0.6,0-1.3,0.1-2,0.1c0,0.5,0,1,0,1.5
		s0,1.1,0,1.6c0,0.3,0,0.4,0.1,0.4C8.7,2026.9,8.8,2026.9,9,2026.9z"/>
</g>
<g>
	<path class="st0" d="M2.8,3023.5c0-2.9,1-5.4,3.1-7.5s4.6-3.1,7.6-3.1s5.5,1,7.5,3.1c2.1,2.1,3.1,4.6,3.1,7.5s-1.1,5.4-3.1,7.5
		s-4.6,3.1-7.5,3.1c-3,0-5.5-1-7.6-3.1S2.8,3026.4,2.8,3023.5z M23.2,3023.5c0-2.7-1-5-2.8-7c-1.9-1.9-4.2-2.9-6.8-2.9
		c-2.7,0-4.9,1-6.8,2.9s-2.9,4.2-2.9,7s0.9,5.1,2.9,7c1.9,1.9,4.2,2.9,6.8,2.9s4.9-0.9,6.8-2.9C22.2,3028.6,23.2,3026.2,23.2,3023.5
		z M9,3026.9c0.6,0,1.3,0,2.1-0.1c0.7-0.1,1.4-0.1,2.2-0.3c1.3-0.2,2.5-0.6,3.7-1.1v-8.5c0-0.1,0-0.1,0-0.2c0-0.1-0.1-0.2-0.2-0.3
		c-0.3-0.3-0.6-0.5-0.8-0.7c-0.3-0.1-0.4-0.2-0.5-0.3l0,0l0,0c-0.1,0-0.1,0-0.1,0c-0.1-0.1-0.1-0.1-0.1-0.2c0,0,0.1-0.1,0.2-0.2h0.1
		c0.4,0,0.8,0.1,1.2,0.2c0.4,0.1,0.8,0.3,1.2,0.5c0.2,0.1,0.3,0.2,0.3,0.2c0,0.1,0.1,0.2,0.1,0.3c0,0.2,0,0.3,0,0.4
		c-0.1,0.1-0.1,0.2-0.1,0.2v6.3h0.1c0.1,0,0.2,0,0.3-0.1c0.1,0,0.2,0,0.2,0l0,0c0,0,0.1,0,0.1-0.1c0,0,0.1,0,0.2-0.1
		s0.3-0.1,0.5-0.2c0.2-0.1,0.4-0.1,0.6-0.1c0.5,0,0.9,0.1,1.3,0.1c0.4,0.1,0.5,0.3,0.5,0.5s-0.3,0.3-0.9,0.3h-2.9v5.3
		c0,0.4-0.1,0.8-0.1,1.1c-0.1,0.4-0.1,0.7-0.2,1s-0.2,0.6-0.3,0.8c-0.2,0.2-0.3,0.3-0.4,0.3s-0.2-0.1-0.3-0.4
		c-0.1-0.2-0.1-0.5-0.1-0.9v-4.8c-0.6,0.3-1.1,0.5-1.8,0.7s-1.4,0.4-2.1,0.6c-1.7,0.4-3.1,0.5-4.4,0.5c-0.5,0-0.9-0.1-1.1-0.3
		s-0.3-0.5-0.3-1.1v-2.3c0-0.2,0-0.5-0.1-0.7s-0.2-0.3-0.4-0.4c-0.2-0.1-0.3-0.2-0.5-0.3l0,0c-0.1-0.1-0.2-0.1-0.2-0.2
		c-0.1,0-0.1-0.1-0.1-0.1c0-0.1,0.1-0.1,0.3-0.2c0.1,0,0.3,0,0.5,0s0.4,0.1,0.6,0.1c0.2,0.1,0.3,0.1,0.5,0.1
		c0.2,0.1,0.3,0.1,0.4,0.2c0.7,0,1.4,0,2-0.1c0.6,0,1.3,0,2-0.1c0-0.5,0-1.1,0.1-1.6c0-0.5,0.1-1,0.1-1.6c-0.1,0-0.2,0-0.3,0
		s-0.2,0-0.3,0c-0.5,0-1,0.1-1.6,0.1c-1,0.1-1.5,0.1-1.6,0.1l0,0c-0.1,0-0.2,0.1-0.4,0.1c-0.2,0.1-0.3,0.1-0.5,0.1s-0.4,0-0.6-0.1
		s-0.4-0.2-0.5-0.3c-0.2-0.1-0.3-0.2-0.4-0.3s-0.2-0.1-0.2-0.2c0,0,0-0.1,0.1-0.1c0,0,0.1-0.1,0.2-0.1c0.1,0.1,0.2,0.1,0.3,0.1
		c0.1,0,0.2,0.1,0.3,0.1l0,0c0.2,0.1,0.3,0.1,0.5,0.1c0.1,0,0.3,0.1,0.4,0.1c0.3,0.1,0.9,0,2-0.1c0.5,0,1-0.1,1.5-0.1
		c0.5-0.1,1-0.1,1.4-0.2l0,0c0.9-0.2,1.3-0.1,1,0.5c-0.2,0.3-0.3,0.6-0.3,0.8l-0.3,2.7h0.1c0.3,0,0.4,0.1,0.4,0.3c0,0.1,0,0.1,0,0.2
		c-0.1,0.1-0.1,0.1-0.2,0.1c-0.1,0.1-0.3,0.1-0.5,0.1s-0.5,0-0.9,0c-0.7,0-1.3,0.1-1.9,0.1c-0.6,0-1.3,0.1-2,0.1c0,0.5,0,1,0,1.5
		s0,1.1,0,1.6c0,0.3,0,0.4,0.1,0.4C8.7,3026.9,8.8,3026.9,9,3026.9z"/>
</g>
<g>
	<path class="st0" d="M2.8,4023.5c0-2.9,1-5.4,3.1-7.5s4.6-3.1,7.6-3.1s5.5,1,7.5,3.1c2.1,2.1,3.1,4.6,3.1,7.5s-1.1,5.4-3.1,7.5
		s-4.6,3.1-7.5,3.1c-3,0-5.5-1-7.6-3.1S2.8,4026.4,2.8,4023.5z M23.2,4023.5c0-2.7-1-5-2.8-7c-1.9-1.9-4.2-2.9-6.8-2.9
		c-2.7,0-4.9,1-6.8,2.9s-2.9,4.2-2.9,7s0.9,5.1,2.9,7c1.9,1.9,4.2,2.9,6.8,2.9s4.9-0.9,6.8-2.9C22.2,4028.6,23.2,4026.2,23.2,4023.5
		z M9,4026.9c0.6,0,1.3,0,2.1-0.1c0.7-0.1,1.4-0.1,2.2-0.3c1.3-0.2,2.5-0.6,3.7-1.1v-8.5c0-0.1,0-0.1,0-0.2c0-0.1-0.1-0.2-0.2-0.3
		c-0.3-0.3-0.6-0.5-0.8-0.7c-0.3-0.1-0.4-0.2-0.5-0.3l0,0l0,0c-0.1,0-0.1,0-0.1,0c-0.1-0.1-0.1-0.1-0.1-0.2c0,0,0.1-0.1,0.2-0.2h0.1
		c0.4,0,0.8,0.1,1.2,0.2c0.4,0.1,0.8,0.3,1.2,0.5c0.2,0.1,0.3,0.2,0.3,0.2c0,0.1,0.1,0.2,0.1,0.3c0,0.2,0,0.3,0,0.4
		c-0.1,0.1-0.1,0.2-0.1,0.2v6.3h0.1c0.1,0,0.2,0,0.3-0.1c0.1,0,0.2,0,0.2,0l0,0c0,0,0.1,0,0.1-0.1c0,0,0.1,0,0.2-0.1
		s0.3-0.1,0.5-0.2c0.2-0.1,0.4-0.1,0.6-0.1c0.5,0,0.9,0.1,1.3,0.1c0.4,0.1,0.5,0.3,0.5,0.5s-0.3,0.3-0.9,0.3h-2.9v5.3
		c0,0.4-0.1,0.8-0.1,1.1c-0.1,0.4-0.1,0.7-0.2,1s-0.2,0.6-0.3,0.8c-0.2,0.2-0.3,0.3-0.4,0.3s-0.2-0.1-0.3-0.4
		c-0.1-0.2-0.1-0.5-0.1-0.9v-4.8c-0.6,0.3-1.1,0.5-1.8,0.7s-1.4,0.4-2.1,0.6c-1.7,0.4-3.1,0.5-4.4,0.5c-0.5,0-0.9-0.1-1.1-0.3
		s-0.3-0.5-0.3-1.1v-2.3c0-0.2,0-0.5-0.1-0.7s-0.2-0.3-0.4-0.4c-0.2-0.1-0.3-0.2-0.5-0.3l0,0c-0.1-0.1-0.2-0.1-0.2-0.2
		c-0.1,0-0.1-0.1-0.1-0.1c0-0.1,0.1-0.1,0.3-0.2c0.1,0,0.3,0,0.5,0s0.4,0.1,0.6,0.1c0.2,0.1,0.3,0.1,0.5,0.1
		c0.2,0.1,0.3,0.1,0.4,0.2c0.7,0,1.4,0,2-0.1c0.6,0,1.3,0,2-0.1c0-0.5,0-1.1,0.1-1.6c0-0.5,0.1-1,0.1-1.6c-0.1,0-0.2,0-0.3,0
		s-0.2,0-0.3,0c-0.5,0-1,0.1-1.6,0.1c-1,0.1-1.5,0.1-1.6,0.1l0,0c-0.1,0-0.2,0.1-0.4,0.1c-0.2,0.1-0.3,0.1-0.5,0.1s-0.4,0-0.6-0.1
		s-0.4-0.2-0.5-0.3c-0.2-0.1-0.3-0.2-0.4-0.3s-0.2-0.1-0.2-0.2c0,0,0-0.1,0.1-0.1c0,0,0.1-0.1,0.2-0.1c0.1,0.1,0.2,0.1,0.3,0.1
		c0.1,0,0.2,0.1,0.3,0.1l0,0c0.2,0.1,0.3,0.1,0.5,0.1c0.1,0,0.3,0.1,0.4,0.1c0.3,0.1,0.9,0,2-0.1c0.5,0,1-0.1,1.5-0.1
		c0.5-0.1,1-0.1,1.4-0.2l0,0c0.9-0.2,1.3-0.1,1,0.5c-0.2,0.3-0.3,0.6-0.3,0.8l-0.3,2.7h0.1c0.3,0,0.4,0.1,0.4,0.3c0,0.1,0,0.1,0,0.2
		c-0.1,0.1-0.1,0.1-0.2,0.1c-0.1,0.1-0.3,0.1-0.5,0.1s-0.5,0-0.9,0c-0.7,0-1.3,0.1-1.9,0.1c-0.6,0-1.3,0.1-2,0.1c0,0.5,0,1,0,1.5
		s0,1.1,0,1.6c0,0.3,0,0.4,0.1,0.4C8.7,4026.9,8.8,4026.9,9,4026.9z"/>
</g>
<g>
	<path class="st0" d="M2.8,5023.5c0-2.9,1-5.4,3.1-7.5s4.6-3.1,7.6-3.1s5.5,1,7.5,3.1c2.1,2.1,3.1,4.6,3.1,7.5s-1.1,5.4-3.1,7.5
		s-4.6,3.1-7.5,3.1c-3,0-5.5-1-7.6-3.1S2.8,5026.4,2.8,5023.5z M23.2,5023.5c0-2.7-1-5-2.8-7c-1.9-1.9-4.2-2.9-6.8-2.9
		c-2.7,0-4.9,1-6.8,2.9s-2.9,4.2-2.9,7s0.9,5.1,2.9,7c1.9,1.9,4.2,2.9,6.8,2.9s4.9-0.9,6.8-2.9C22.2,5028.6,23.2,5026.2,23.2,5023.5
		z M9,5026.9c0.6,0,1.3,0,2.1-0.1c0.7-0.1,1.4-0.1,2.2-0.3c1.3-0.2,2.5-0.6,3.7-1.1v-8.5c0-0.1,0-0.1,0-0.2s-0.1-0.2-0.2-0.3
		c-0.3-0.3-0.6-0.5-0.8-0.7c-0.3-0.1-0.4-0.2-0.5-0.3l0,0l0,0c-0.1,0-0.1,0-0.1,0c-0.1-0.1-0.1-0.1-0.1-0.2c0,0,0.1-0.1,0.2-0.2h0.1
		c0.4,0,0.8,0.1,1.2,0.2c0.4,0.1,0.8,0.3,1.2,0.5c0.2,0.1,0.3,0.2,0.3,0.2c0,0.1,0.1,0.2,0.1,0.3c0,0.2,0,0.3,0,0.4
		c-0.1,0.1-0.1,0.2-0.1,0.2v6.3h0.1c0.1,0,0.2,0,0.3-0.1c0.1,0,0.2,0,0.2,0l0,0c0,0,0.1,0,0.1-0.1c0,0,0.1,0,0.2-0.1
		s0.3-0.1,0.5-0.2s0.4-0.1,0.6-0.1c0.5,0,0.9,0.1,1.3,0.1c0.4,0.1,0.5,0.3,0.5,0.5s-0.3,0.3-0.9,0.3h-2.9v5.3c0,0.4-0.1,0.8-0.1,1.1
		c-0.1,0.4-0.1,0.7-0.2,1s-0.2,0.6-0.3,0.8c-0.2,0.2-0.3,0.3-0.4,0.3s-0.2-0.1-0.3-0.4c-0.1-0.2-0.1-0.5-0.1-0.9v-4.8
		c-0.6,0.3-1.1,0.5-1.8,0.7s-1.4,0.4-2.1,0.6c-1.7,0.4-3.1,0.5-4.4,0.5c-0.5,0-0.9-0.1-1.1-0.3c-0.2-0.2-0.3-0.5-0.3-1.1v-2.3
		c0-0.2,0-0.5-0.1-0.7s-0.2-0.3-0.4-0.4c-0.2-0.1-0.3-0.2-0.5-0.3l0,0c-0.1-0.1-0.2-0.1-0.2-0.2c-0.1,0-0.1-0.1-0.1-0.1
		c0-0.1,0.1-0.1,0.3-0.2c0.1,0,0.3,0,0.5,0s0.4,0.1,0.6,0.1c0.2,0.1,0.3,0.1,0.5,0.1c0.2,0.1,0.3,0.1,0.4,0.2c0.7,0,1.4,0,2-0.1
		c0.6,0,1.3,0,2-0.1c0-0.5,0-1.1,0.1-1.6c0-0.5,0.1-1,0.1-1.6c-0.1,0-0.2,0-0.3,0s-0.2,0-0.3,0c-0.5,0-1,0.1-1.6,0.1
		c-1,0.1-1.5,0.1-1.6,0.1l0,0c-0.1,0-0.2,0.1-0.4,0.1c-0.2,0.1-0.3,0.1-0.5,0.1s-0.4,0-0.6-0.1s-0.4-0.2-0.5-0.3
		c-0.2-0.1-0.3-0.2-0.4-0.3c-0.1-0.1-0.2-0.1-0.2-0.2c0,0,0-0.1,0.1-0.1c0,0,0.1-0.1,0.2-0.1c0.1,0.1,0.2,0.1,0.3,0.1
		c0.1,0,0.2,0.1,0.3,0.1l0,0c0.2,0.1,0.3,0.1,0.5,0.1c0.1,0,0.3,0.1,0.4,0.1c0.3,0.1,0.9,0,2-0.1c0.5,0,1-0.1,1.5-0.1
		c0.5-0.1,1-0.1,1.4-0.2l0,0c0.9-0.2,1.3-0.1,1,0.5c-0.2,0.3-0.3,0.6-0.3,0.8l-0.3,2.7h0.1c0.3,0,0.4,0.1,0.4,0.3c0,0.1,0,0.1,0,0.2
		c-0.1,0.1-0.1,0.1-0.2,0.1c-0.1,0.1-0.3,0.1-0.5,0.1s-0.5,0-0.9,0c-0.7,0-1.3,0.1-1.9,0.1c-0.6,0-1.3,0.1-2,0.1c0,0.5,0,1,0,1.5
		s0,1.1,0,1.6c0,0.3,0,0.4,0.1,0.4C8.7,5026.9,8.8,5026.9,9,5026.9z"/>
</g>
<g>
	<path class="st0" d="M2.8,6223.5c0-2.9,1-5.4,3.1-7.5s4.6-3.1,7.6-3.1s5.5,1,7.5,3.1c2.1,2.1,3.1,4.6,3.1,7.5s-1.1,5.4-3.1,7.5
		s-4.6,3.1-7.5,3.1c-3,0-5.5-1-7.6-3.1S2.8,6226.4,2.8,6223.5z M23.2,6223.5c0-2.7-1-5-2.8-7c-1.9-1.9-4.2-2.9-6.8-2.9
		c-2.7,0-4.9,1-6.8,2.9s-2.9,4.2-2.9,7s0.9,5.1,2.9,7c1.9,1.9,4.2,2.9,6.8,2.9s4.9-0.9,6.8-2.9C22.2,6228.6,23.2,6226.2,23.2,6223.5
		z M9,6226.9c0.6,0,1.3,0,2.1-0.1c0.7-0.1,1.4-0.1,2.2-0.3c1.3-0.2,2.5-0.6,3.7-1.1v-8.5c0-0.1,0-0.1,0-0.2s-0.1-0.2-0.2-0.3
		c-0.3-0.3-0.6-0.5-0.8-0.7c-0.3-0.1-0.4-0.2-0.5-0.3l0,0l0,0c-0.1,0-0.1,0-0.1,0c-0.1-0.1-0.1-0.1-0.1-0.2c0,0,0.1-0.1,0.2-0.2h0.1
		c0.4,0,0.8,0.1,1.2,0.2c0.4,0.1,0.8,0.3,1.2,0.5c0.2,0.1,0.3,0.2,0.3,0.2c0,0.1,0.1,0.2,0.1,0.3c0,0.2,0,0.3,0,0.4
		c-0.1,0.1-0.1,0.2-0.1,0.2v6.3h0.1c0.1,0,0.2,0,0.3-0.1c0.1,0,0.2,0,0.2,0l0,0c0,0,0.1,0,0.1-0.1c0,0,0.1,0,0.2-0.1
		s0.3-0.1,0.5-0.2s0.4-0.1,0.6-0.1c0.5,0,0.9,0.1,1.3,0.1c0.4,0.1,0.5,0.3,0.5,0.5s-0.3,0.3-0.9,0.3h-2.9v5.3c0,0.4-0.1,0.8-0.1,1.1
		c-0.1,0.4-0.1,0.7-0.2,1s-0.2,0.6-0.3,0.8c-0.2,0.2-0.3,0.3-0.4,0.3s-0.2-0.1-0.3-0.4c-0.1-0.2-0.1-0.5-0.1-0.9v-4.8
		c-0.6,0.3-1.1,0.5-1.8,0.7s-1.4,0.4-2.1,0.6c-1.7,0.4-3.1,0.5-4.4,0.5c-0.5,0-0.9-0.1-1.1-0.3c-0.2-0.2-0.3-0.5-0.3-1.1v-2.3
		c0-0.2,0-0.5-0.1-0.7s-0.2-0.3-0.4-0.4c-0.2-0.1-0.3-0.2-0.5-0.3l0,0c-0.1-0.1-0.2-0.1-0.2-0.2c-0.1,0-0.1-0.1-0.1-0.1
		c0-0.1,0.1-0.1,0.3-0.2c0.1,0,0.3,0,0.5,0s0.4,0.1,0.6,0.1c0.2,0.1,0.3,0.1,0.5,0.1c0.2,0.1,0.3,0.1,0.4,0.2c0.7,0,1.4,0,2-0.1
		c0.6,0,1.3,0,2-0.1c0-0.5,0-1.1,0.1-1.6c0-0.5,0.1-1,0.1-1.6c-0.1,0-0.2,0-0.3,0s-0.2,0-0.3,0c-0.5,0-1,0.1-1.6,0.1
		c-1,0.1-1.5,0.1-1.6,0.1l0,0c-0.1,0-0.2,0.1-0.4,0.1c-0.2,0.1-0.3,0.1-0.5,0.1s-0.4,0-0.6-0.1s-0.4-0.2-0.5-0.3
		c-0.2-0.1-0.3-0.2-0.4-0.3c-0.1-0.1-0.2-0.1-0.2-0.2c0,0,0-0.1,0.1-0.1c0,0,0.1-0.1,0.2-0.1c0.1,0.1,0.2,0.1,0.3,0.1
		c0.1,0,0.2,0.1,0.3,0.1l0,0c0.2,0.1,0.3,0.1,0.5,0.1c0.1,0,0.3,0.1,0.4,0.1c0.3,0.1,0.9,0,2-0.1c0.5,0,1-0.1,1.5-0.1
		c0.5-0.1,1-0.1,1.4-0.2l0,0c0.9-0.2,1.3-0.1,1,0.5c-0.2,0.3-0.3,0.6-0.3,0.8l-0.3,2.7h0.1c0.3,0,0.4,0.1,0.4,0.3c0,0.1,0,0.1,0,0.2
		c-0.1,0.1-0.1,0.1-0.2,0.1c-0.1,0.1-0.3,0.1-0.5,0.1s-0.5,0-0.9,0c-0.7,0-1.3,0.1-1.9,0.1c-0.6,0-1.3,0.1-2,0.1c0,0.5,0,1,0,1.5
		s0,1.1,0,1.6c0,0.3,0,0.4,0.1,0.4C8.7,6226.9,8.8,6226.9,9,6226.9z"/>
</g>
<g>
	<polygon class="st1" points="13.2,1030.3 5.5,1022.9 7.6,1020.7 12.9,1025.9 21.9,1014.5 24.2,1016.4 	"/>
</g>
<g>
	<polygon points="13.2,2030.3 5.5,2022.9 7.6,2020.7 12.9,2025.9 21.9,2014.5 24.2,2016.4 	"/>
</g>
<rect x="2" y="9034" width="23" height="23"/>
<g>
	<polygon points="13.2,9052.3 5.5,9044.9 7.6,9042.7 12.9,9047.9 21.9,9036.5 24.2,9038.4 	"/>
</g>
<g>
	<path class="st0" d="M2.8,9045.5c0-2.9,1-5.4,3.1-7.5s4.6-3.1,7.6-3.1s5.5,1,7.5,3.1c2.1,2.1,3.1,4.6,3.1,7.5s-1.1,5.4-3.1,7.5
		s-4.6,3.1-7.5,3.1c-3,0-5.5-1-7.6-3.1S2.8,9048.4,2.8,9045.5z M23.2,9045.5c0-2.7-1-5-2.8-7c-1.9-1.9-4.2-2.9-6.8-2.9
		c-2.7,0-4.9,1-6.8,2.9s-2.9,4.2-2.9,7s0.9,5.1,2.9,7c1.9,1.9,4.2,2.9,6.8,2.9s4.9-0.9,6.8-2.9C22.2,9050.6,23.2,9048.2,23.2,9045.5
		z M9,9048.9c0.6,0,1.3,0,2.1-0.1c0.7-0.1,1.4-0.1,2.2-0.3c1.3-0.2,2.5-0.6,3.7-1.1v-8.5c0-0.1,0-0.1,0-0.2c0-0.1-0.1-0.2-0.2-0.3
		c-0.3-0.3-0.6-0.5-0.8-0.7c-0.3-0.1-0.4-0.2-0.5-0.3l0,0l0,0c-0.1,0-0.1,0-0.1,0c-0.1-0.1-0.1-0.1-0.1-0.2c0,0,0.1-0.1,0.2-0.2h0.1
		c0.4,0,0.8,0.1,1.2,0.2c0.4,0.1,0.8,0.3,1.2,0.5c0.2,0.1,0.3,0.2,0.3,0.2c0,0.1,0.1,0.2,0.1,0.3c0,0.2,0,0.3,0,0.4
		c-0.1,0.1-0.1,0.2-0.1,0.2v6.3h0.1c0.1,0,0.2,0,0.3-0.1c0.1,0,0.2,0,0.2,0l0,0c0,0,0.1,0,0.1-0.1c0,0,0.1,0,0.2-0.1
		c0.1-0.1,0.3-0.1,0.5-0.2c0.2-0.1,0.4-0.1,0.6-0.1c0.5,0,0.9,0.1,1.3,0.1c0.4,0.1,0.5,0.3,0.5,0.5c0,0.2-0.3,0.3-0.9,0.3h-2.9v5.3
		c0,0.4-0.1,0.8-0.1,1.1c-0.1,0.4-0.1,0.7-0.2,1c-0.1,0.3-0.2,0.6-0.3,0.8c-0.2,0.2-0.3,0.3-0.4,0.3s-0.2-0.1-0.3-0.4
		c-0.1-0.2-0.1-0.5-0.1-0.9v-4.8c-0.6,0.3-1.1,0.5-1.8,0.7c-0.7,0.2-1.4,0.4-2.1,0.6c-1.7,0.4-3.1,0.5-4.4,0.5
		c-0.5,0-0.9-0.1-1.1-0.3c-0.2-0.2-0.3-0.5-0.3-1.1v-2.3c0-0.2,0-0.5-0.1-0.7s-0.2-0.3-0.4-0.4c-0.2-0.1-0.3-0.2-0.5-0.3l0,0
		c-0.1-0.1-0.2-0.1-0.2-0.2c-0.1,0-0.1-0.1-0.1-0.1c0-0.1,0.1-0.1,0.3-0.2c0.1,0,0.3,0,0.5,0s0.4,0.1,0.6,0.1
		c0.2,0.1,0.3,0.1,0.5,0.1c0.2,0.1,0.3,0.1,0.4,0.2c0.7,0,1.4,0,2-0.1c0.6,0,1.3,0,2-0.1c0-0.5,0-1.1,0.1-1.6c0-0.5,0.1-1,0.1-1.6
		c-0.1,0-0.2,0-0.3,0s-0.2,0-0.3,0c-0.5,0-1,0.1-1.6,0.1c-1,0.1-1.5,0.1-1.6,0.1l0,0c-0.1,0-0.2,0.1-0.4,0.1
		c-0.2,0.1-0.3,0.1-0.5,0.1s-0.4,0-0.6-0.1c-0.2-0.1-0.4-0.2-0.5-0.3c-0.2-0.1-0.3-0.2-0.4-0.3c-0.1-0.1-0.2-0.1-0.2-0.2
		c0,0,0-0.1,0.1-0.1c0,0,0.1-0.1,0.2-0.1c0.1,0.1,0.2,0.1,0.3,0.1c0.1,0,0.2,0.1,0.3,0.1l0,0c0.2,0.1,0.3,0.1,0.5,0.1
		c0.1,0,0.3,0.1,0.4,0.1c0.3,0.1,0.9,0,2-0.1c0.5,0,1-0.1,1.5-0.1c0.5-0.1,1-0.1,1.4-0.2l0,0c0.9-0.2,1.3-0.1,1,0.5
		c-0.2,0.3-0.3,0.6-0.3,0.8l-0.3,2.7h0.1c0.3,0,0.4,0.1,0.4,0.3c0,0.1,0,0.1,0,0.2c-0.1,0.1-0.1,0.1-0.2,0.1
		c-0.1,0.1-0.3,0.1-0.5,0.1s-0.5,0-0.9,0c-0.7,0-1.3,0.1-1.9,0.1c-0.6,0-1.3,0.1-2,0.1c0,0.5,0,1,0,1.5s0,1.1,0,1.6
		c0,0.3,0,0.4,0.1,0.4C8.7,9048.9,8.8,9048.9,9,9048.9z"/>
</g>
<g>
	<polygon class="st5" points="13.2,9052.3 5.5,9044.9 7.6,9042.7 12.9,9047.9 21.9,9036.5 24.2,9038.4 	"/>
</g>
<g>
	<polygon class="st2" points="13.2,3030.3 5.5,3022.9 7.6,3020.7 12.9,3025.9 21.9,3014.5 24.2,3016.4 	"/>
</g>
<g>
	<polygon class="st3" points="13.2,4030.3 5.5,4022.9 7.6,4020.7 12.9,4025.9 21.9,4014.5 24.2,4016.4 	"/>
</g>
<g>
	<polygon class="st4" points="13.2,5030.3 5.5,5022.9 7.6,5020.7 12.9,5025.9 21.9,5014.5 24.2,5016.4 	"/>
</g>
<path class="st1" d="M18.1,6226.5c0-2,0-1.8,0-3.7h-1.5c0-1.3,0.1-2.5-0.3-3.4c-0.4-0.7-1.1-1.4-1.9-1.6c-1.6-0.4-3,0.6-3.6,1.6
	c-0.5,0.9-0.3,2.1-0.3,3.3c-0.5,0-0.9,0-1.5,0c0,0.8,0,1.4,0,2.9c0,2-0.3,3.1,1.1,3.6c0.9,0.3,2.6,0.1,3.6,0.1
	c1.1,0,2.7,0.2,3.6-0.1C18.2,6228.9,18.1,6227.8,18.1,6226.5z M15.3,6222.8c-0.6,0-1.3,0-1.9,0c-0.5,0-1,0-1.6,0
	c-0.1-1.8-0.1-3.3,1.3-3.7c0.9-0.2,1.7,0.3,2,1.1C15.4,6220.9,15.2,6221.8,15.3,6222.8z"/>
</svg>
