<?xml version="1.0" encoding="utf-8"?>
<!-- Generator: Adobe Illustrator 23.0.1, SVG Export Plug-In . SVG Version: 6.00 Build 0)  -->
<svg version="1.1" id="Layer_1" xmlns="http://www.w3.org/2000/svg" xmlns:xlink="http://www.w3.org/1999/xlink" x="0px" y="0px"
	 viewBox="0 0 8 8" style="enable-background:new 0 0 8 8;" xml:space="preserve">
<style type="text/css">
	.st0{fill:#353535;stroke:#353535;stroke-width:0.25;stroke-miterlimit:10;}
</style>
<g>
	<path class="st0" d="M4.4,4c0.3,0.3,0.7,0.7,1,1C5.6,5.2,5.8,5.4,6,5.5c0.2,0.2,0.3,0.4,0.5,0.5L6.1,6.5L4,4.4
		c-0.3,0.3-0.7,0.7-1,1c-0.4,0.4-0.7,0.7-1,1L1.5,6.1L3.6,4C3.4,3.8,3.2,3.7,3.1,3.5C2.9,3.3,2.7,3.1,2.5,3C2.4,2.8,2.2,2.6,2,2.4
		C1.8,2.2,1.6,2.1,1.5,1.9l0.4-0.4L4,3.6l1-1C5.2,2.4,5.4,2.2,5.6,2c0.2-0.2,0.4-0.4,0.5-0.5l0.4,0.4L4.4,4z"/>
</g>
</svg>
