<?xml version="1.0" encoding="utf-8"?>
<!-- Generator: Adobe Illustrator 23.0.1, SVG Export Plug-In . SVG Version: 6.00 Build 0)  -->
<svg version="1.1" id="Layer_1" xmlns="http://www.w3.org/2000/svg" xmlns:xlink="http://www.w3.org/1999/xlink" x="0px" y="0px"
	 viewBox="0 0 8 8" style="enable-background:new 0 0 8 8;" xml:space="preserve">
<style type="text/css">
	.st0{fill:#353535;stroke:#353535;stroke-width:0.25;stroke-miterlimit:10;}
</style>
<g>
	<path class="st0" d="M2.8,4c0.4,0.5,0.8,1,1.2,1.4c0.4,0.5,0.8,1,1.2,1.4C5.3,7,5.3,7.1,5.1,7.1C5,7.2,4.8,7.2,4.7,7.1
		c-0.4-0.5-0.8-1-1.2-1.5C3,5.1,2.6,4.6,2.2,4.1C2.2,4.1,2.2,4,2.2,4c0,0,0-0.1,0.1-0.1c0.4-0.5,0.8-1,1.2-1.5
		c0.4-0.5,0.8-1,1.2-1.5C4.8,0.8,5,0.8,5.1,0.9C5.3,1,5.3,1.1,5.2,1.2L2.8,4z"/>
</g>
</svg>
