<?xml version="1.0" encoding="utf-8"?>
<!-- Generator: Adobe Illustrator 23.0.1, SVG Export Plug-In . SVG Version: 6.00 Build 0)  -->
<svg version="1.1" id="Layer_1" xmlns="http://www.w3.org/2000/svg" xmlns:xlink="http://www.w3.org/1999/xlink" x="0px" y="0px"
	 viewBox="0 0 8 8" style="enable-background:new 0 0 8 8;" xml:space="preserve">
<style type="text/css">
	.st0{fill:#353535;stroke:#353535;stroke-width:0.25;stroke-miterlimit:10;}
</style>
<g>
	<path class="st0" d="M3.2,7.1C3,7.2,2.9,7.2,2.7,7.1C2.6,7.1,2.6,7,2.7,6.9L5.1,4C4.7,3.5,4.3,3,3.9,2.6C3.5,2.1,3.1,1.6,2.7,1.2
		C2.6,1.1,2.6,1,2.7,0.9C2.9,0.8,3,0.8,3.2,0.9c0.4,0.5,0.8,1,1.2,1.5c0.4,0.5,0.8,1,1.2,1.5C5.7,3.9,5.7,4,5.7,4c0,0,0,0.1-0.1,0.1
		L3.2,7.1z"/>
</g>
</svg>
