<svg width="33" height="33" viewBox="0 0 33 33" fill="none" xmlns="http://www.w3.org/2000/svg">
<path d="M7.07629 11.6255V9.26297C7.07629 8.63637 7.32521 8.03544 7.76828 7.59237C8.21135 7.1493 8.81228 6.90039 9.43887 6.90039H11.8014M7.07629 21.0758V23.4384C7.07629 24.065 7.32521 24.6659 7.76828 25.109C8.21135 25.5521 8.81228 25.801 9.43887 25.801H11.8014M21.2517 6.90039H23.6143C24.2409 6.90039 24.8418 7.1493 25.2849 7.59237C25.728 8.03544 25.9769 8.63637 25.9769 9.26297V11.6255M21.2517 25.801H23.6143C24.2409 25.801 24.8418 25.5521 25.2849 25.109C25.728 24.6659 25.9769 24.065 25.9769 23.4384V21.0758" stroke="white" stroke-width="2.10007" stroke-linecap="round" stroke-linejoin="round"/>
</svg>
