<?xml version="1.0" encoding="utf-8"?>
<!-- Generator: Adobe Illustrator 23.0.1, SVG Export Plug-In . SVG Version: 6.00 Build 0)  -->
<svg version="1.1" id="Layer_1" xmlns="http://www.w3.org/2000/svg" xmlns:xlink="http://www.w3.org/1999/xlink" x="0px" y="0px"
	 viewBox="0 0 50 10200" width="50px" height="10200px" style="enable-background:new 0 0 50 10200; fill:transparent;" xml:space="preserve">
<style type="text/css">
	.st0{fill:#363636;}
	.st1{fill:#CCCCCC;}
	.st2{fill:#7F7F7F;}
	.st3{fill:#E30613;}
	.st4{fill:#008D36;}
	.st5{fill:#000000;}
</style>
<rect x="2" y="12" width="23" height="23"/>
<rect x="2" y="1012" width="23" height="23"/>
<rect x="2" y="6212" width="23" height="23"/>
<rect x="2" y="2012" width="23" height="23"/>
<g>
	<polygon class="st5" points="13.2,2030.3 5.5,2022.9 7.6,2020.7 12.9,2025.9 21.9,2014.5 24.2,2016.4 	"/>
</g>
<rect x="2" y="3012" width="23" height="23"/>
<rect x="2" y="4012" width="23" height="23"/>
<rect x="2" y="5012" width="23" height="23"/>
<g>
	<path class="st0" d="M3.2,23.5c0-2.8,1-5.2,3-7.2s4.4-3,7.3-3s5.2,1,7.2,3s3,4.4,3,7.2s-1,5.2-3,7.2s-4.4,3-7.2,3s-5.3-1-7.3-3
		S3.2,26.3,3.2,23.5z M22.8,23.5c0-2.6-0.9-4.8-2.7-6.7c-1.8-1.8-4-2.7-6.5-2.7S8.9,15,7.1,16.8s-2.7,4.1-2.7,6.7s0.9,4.9,2.7,6.7
		c1.8,1.8,4,2.7,6.5,2.7s4.7-0.9,6.5-2.7C21.8,28.4,22.8,26.1,22.8,23.5z M17.1,20c0,0.4-0.1,0.7-0.2,1c-0.2,0.3-0.4,0.6-0.6,0.8
		c-0.2,0.3-0.5,0.4-0.7,0.6c-0.3,0.2-0.6,0.4-0.8,0.5l0,0c-0.1,0-0.2,0.1-0.2,0.1s-0.1,0-0.1,0.1c0.3,0.2,0.7,0.4,1.1,0.6
		c0.3,0.2,0.6,0.5,0.9,0.7c0.3,0.3,0.5,0.6,0.7,1s0.3,0.8,0.3,1.2c0,0.5-0.1,1-0.3,1.4c-0.2,0.4-0.5,0.8-0.9,1.1
		c-0.4,0.3-0.8,0.5-1.3,0.7s-1.1,0.3-1.6,0.3S12.5,30,12,29.9s-0.9-0.3-1.3-0.6c-0.4-0.3-0.7-0.6-0.9-1c-0.3-0.4-0.3-0.9-0.3-1.5
		c0-0.3,0.1-0.7,0.3-1c0.1-0.3,0.4-0.6,0.7-0.9s0.5-0.5,0.9-0.8c0.3-0.3,0.6-0.5,1-0.7c-0.3-0.1-0.6-0.3-0.8-0.5
		c-0.3-0.2-0.5-0.4-0.7-0.6s-0.4-0.5-0.5-0.8s-0.2-0.6-0.2-1v-0.1c0-0.5,0.1-0.9,0.3-1.3s0.4-0.7,0.8-1c0.3-0.3,0.8-0.5,1.2-0.6
		c0.5-0.1,0.9-0.2,1.5-0.2c0.4,0,0.9,0.1,1.3,0.2c0.4,0.1,0.8,0.3,1.1,0.6c0.3,0.3,0.5,0.6,0.8,0.9C17,19.1,17.1,19.5,17.1,20z
		 M16,26.9c0-0.3-0.1-0.7-0.2-1.1c-0.1-0.3-0.3-0.6-0.5-0.9c-0.3-0.3-0.5-0.5-0.8-0.7s-0.7-0.3-1-0.5c-0.3,0.1-0.6,0.3-0.9,0.4
		c-0.4,0.2-0.6,0.4-0.9,0.6c-0.3,0.3-0.5,0.6-0.7,0.9c-0.2,0.4-0.3,0.8-0.3,1.3c0,0.4,0.1,0.8,0.3,1.1c0.2,0.3,0.4,0.6,0.7,0.8
		c0.2,0.2,0.6,0.3,0.9,0.4c0.3,0.1,0.7,0.1,1,0.1s0.7,0,1-0.2c0.3-0.1,0.5-0.3,0.8-0.5c0.2-0.2,0.4-0.4,0.5-0.8
		C15.9,27.6,16,27.3,16,26.9z M11.4,20c0,0.6,0.2,1.2,0.5,1.6c0.3,0.5,0.8,0.8,1.5,1.1c0.3-0.1,0.6-0.3,0.9-0.4
		c0.3-0.1,0.5-0.4,0.8-0.6c0.2-0.2,0.4-0.4,0.6-0.7c0.1-0.3,0.2-0.6,0.2-0.9s0-0.5-0.1-0.8s-0.3-0.5-0.4-0.7
		c-0.2-0.2-0.5-0.4-0.8-0.5s-0.7-0.2-1.2-0.2c-0.3,0-0.6,0.1-0.8,0.2c-0.3,0.1-0.5,0.3-0.7,0.5s-0.3,0.4-0.4,0.7
		C11.5,19.5,11.4,19.8,11.4,20z"/>
</g>
<g>
	<path class="st0" d="M3.2,1023.5c0-2.8,1-5.2,3-7.2s4.4-3,7.3-3s5.2,1,7.2,3s3,4.4,3,7.2c0,2.8-1,5.2-3,7.2s-4.4,3-7.2,3
		s-5.3-1-7.3-3S3.2,1026.3,3.2,1023.5z M22.8,1023.5c0-2.6-0.9-4.8-2.7-6.7c-1.8-1.8-4-2.7-6.5-2.7s-4.7,0.9-6.5,2.7
		s-2.7,4.1-2.7,6.7c0,2.6,0.9,4.9,2.7,6.7c1.8,1.8,4,2.7,6.5,2.7s4.7-0.9,6.5-2.7C21.8,1028.4,22.8,1026.1,22.8,1023.5z M17.1,1020
		c0,0.4-0.1,0.7-0.2,1c-0.2,0.3-0.4,0.6-0.6,0.8c-0.2,0.3-0.5,0.4-0.7,0.6c-0.3,0.2-0.6,0.4-0.8,0.5l0,0c-0.1,0-0.2,0.1-0.2,0.1
		s-0.1,0-0.1,0.1c0.3,0.2,0.7,0.4,1.1,0.6c0.3,0.2,0.6,0.5,0.9,0.7c0.3,0.3,0.5,0.6,0.7,1s0.3,0.8,0.3,1.2c0,0.5-0.1,1-0.3,1.4
		c-0.2,0.4-0.5,0.8-0.9,1.1c-0.4,0.3-0.8,0.5-1.3,0.7s-1.1,0.3-1.6,0.3s-0.9-0.1-1.4-0.2s-0.9-0.3-1.3-0.6c-0.4-0.3-0.7-0.6-0.9-1
		c-0.3-0.4-0.3-0.9-0.3-1.5c0-0.3,0.1-0.7,0.3-1c0.1-0.3,0.4-0.6,0.7-0.9s0.5-0.5,0.9-0.8c0.3-0.3,0.6-0.5,1-0.7
		c-0.3-0.1-0.6-0.3-0.8-0.5c-0.3-0.2-0.5-0.4-0.7-0.6c-0.2-0.2-0.4-0.5-0.5-0.8s-0.2-0.6-0.2-1v-0.1c0-0.5,0.1-0.9,0.3-1.3
		c0.2-0.4,0.4-0.7,0.8-1c0.3-0.3,0.8-0.5,1.2-0.6c0.5-0.1,0.9-0.2,1.5-0.2c0.4,0,0.9,0.1,1.3,0.2c0.4,0.1,0.8,0.3,1.1,0.6
		c0.3,0.3,0.5,0.6,0.8,0.9C17,1019.1,17.1,1019.5,17.1,1020z M16,1026.9c0-0.3-0.1-0.7-0.2-1.1c-0.1-0.3-0.3-0.6-0.5-0.9
		c-0.3-0.3-0.5-0.5-0.8-0.7s-0.7-0.3-1-0.5c-0.3,0.1-0.6,0.3-0.9,0.4c-0.4,0.2-0.6,0.4-0.9,0.6c-0.3,0.3-0.5,0.6-0.7,0.9
		c-0.2,0.4-0.3,0.8-0.3,1.3c0,0.4,0.1,0.8,0.3,1.1c0.2,0.3,0.4,0.6,0.7,0.8c0.2,0.2,0.6,0.3,0.9,0.4c0.3,0.1,0.7,0.1,1,0.1
		s0.7,0,1-0.2c0.3-0.1,0.5-0.3,0.8-0.5c0.2-0.2,0.4-0.4,0.5-0.8C15.9,1027.6,16,1027.3,16,1026.9z M11.4,1020c0,0.6,0.2,1.2,0.5,1.6
		c0.3,0.5,0.8,0.8,1.5,1.1c0.3-0.1,0.6-0.3,0.9-0.4c0.3-0.1,0.5-0.4,0.8-0.6c0.2-0.2,0.4-0.4,0.6-0.7c0.1-0.3,0.2-0.6,0.2-0.9
		c0-0.3,0-0.5-0.1-0.8s-0.3-0.5-0.4-0.7c-0.2-0.2-0.5-0.4-0.8-0.5s-0.7-0.2-1.2-0.2c-0.3,0-0.6,0.1-0.8,0.2
		c-0.3,0.1-0.5,0.3-0.7,0.5s-0.3,0.4-0.4,0.7C11.5,1019.5,11.4,1019.8,11.4,1020z"/>
</g>
<g>
	<path class="st0" d="M3.2,2023.5c0-2.8,1-5.2,3-7.2s4.4-3,7.3-3s5.2,1,7.2,3s3,4.4,3,7.2c0,2.8-1,5.2-3,7.2s-4.4,3-7.2,3
		s-5.3-1-7.3-3S3.2,2026.3,3.2,2023.5z M22.8,2023.5c0-2.6-0.9-4.8-2.7-6.7c-1.8-1.8-4-2.7-6.5-2.7s-4.7,0.9-6.5,2.7
		c-1.8,1.8-2.7,4.1-2.7,6.7s0.9,4.9,2.7,6.7c1.8,1.8,4,2.7,6.5,2.7s4.7-0.9,6.5-2.7C21.8,2028.4,22.8,2026.1,22.8,2023.5z
		 M17.1,2020c0,0.4-0.1,0.7-0.2,1c-0.2,0.3-0.4,0.6-0.6,0.8c-0.2,0.3-0.5,0.4-0.7,0.6c-0.3,0.2-0.6,0.4-0.8,0.5l0,0
		c-0.1,0-0.2,0.1-0.2,0.1s-0.1,0-0.1,0.1c0.3,0.2,0.7,0.4,1.1,0.6c0.3,0.2,0.6,0.5,0.9,0.7c0.3,0.3,0.5,0.6,0.7,1s0.3,0.8,0.3,1.2
		c0,0.5-0.1,1-0.3,1.4c-0.2,0.4-0.5,0.8-0.9,1.1c-0.4,0.3-0.8,0.5-1.3,0.7s-1.1,0.3-1.6,0.3s-0.9-0.1-1.4-0.2s-0.9-0.3-1.3-0.6
		c-0.4-0.3-0.7-0.6-0.9-1c-0.3-0.4-0.3-0.9-0.3-1.5c0-0.3,0.1-0.7,0.3-1c0.1-0.3,0.4-0.6,0.7-0.9s0.5-0.5,0.9-0.8
		c0.3-0.3,0.6-0.5,1-0.7c-0.3-0.1-0.6-0.3-0.8-0.5c-0.3-0.2-0.5-0.4-0.7-0.6s-0.4-0.5-0.5-0.8s-0.2-0.6-0.2-1v-0.1
		c0-0.5,0.1-0.9,0.3-1.3s0.4-0.7,0.8-1c0.3-0.3,0.8-0.5,1.2-0.6c0.5-0.1,0.9-0.2,1.5-0.2c0.4,0,0.9,0.1,1.3,0.2
		c0.4,0.1,0.8,0.3,1.1,0.6c0.3,0.3,0.5,0.6,0.8,0.9C17,2019.1,17.1,2019.5,17.1,2020z M16,2026.9c0-0.3-0.1-0.7-0.2-1.1
		c-0.1-0.3-0.3-0.6-0.5-0.9c-0.3-0.3-0.5-0.5-0.8-0.7s-0.7-0.3-1-0.5c-0.3,0.1-0.6,0.3-0.9,0.4c-0.4,0.2-0.6,0.4-0.9,0.6
		c-0.3,0.3-0.5,0.6-0.7,0.9c-0.2,0.4-0.3,0.8-0.3,1.3c0,0.4,0.1,0.8,0.3,1.1c0.2,0.3,0.4,0.6,0.7,0.8c0.2,0.2,0.6,0.3,0.9,0.4
		c0.3,0.1,0.7,0.1,1,0.1s0.7,0,1-0.2c0.3-0.1,0.5-0.3,0.8-0.5c0.2-0.2,0.4-0.4,0.5-0.8C15.9,2027.6,16,2027.3,16,2026.9z M11.4,2020
		c0,0.6,0.2,1.2,0.5,1.6c0.3,0.5,0.8,0.8,1.5,1.1c0.3-0.1,0.6-0.3,0.9-0.4c0.3-0.1,0.5-0.4,0.8-0.6c0.2-0.2,0.4-0.4,0.6-0.7
		c0.1-0.3,0.2-0.6,0.2-0.9s0-0.5-0.1-0.8s-0.3-0.5-0.4-0.7c-0.2-0.2-0.5-0.4-0.8-0.5s-0.7-0.2-1.2-0.2c-0.3,0-0.6,0.1-0.8,0.2
		c-0.3,0.1-0.5,0.3-0.7,0.5s-0.3,0.4-0.4,0.7C11.5,2019.5,11.4,2019.8,11.4,2020z"/>
</g>
<g>
	<path class="st0" d="M3.2,3023.5c0-2.8,1-5.2,3-7.2s4.4-3,7.3-3s5.2,1,7.2,3s3,4.4,3,7.2s-1,5.2-3,7.2s-4.4,3-7.2,3s-5.3-1-7.3-3
		S3.2,3026.3,3.2,3023.5z M22.8,3023.5c0-2.6-0.9-4.8-2.7-6.7c-1.8-1.8-4-2.7-6.5-2.7s-4.7,0.9-6.5,2.7s-2.7,4.1-2.7,6.7
		c0,2.6,0.9,4.9,2.7,6.7s4,2.7,6.5,2.7s4.7-0.9,6.5-2.7C21.8,3028.4,22.8,3026.1,22.8,3023.5z M17.1,3020c0,0.4-0.1,0.7-0.2,1
		c-0.2,0.3-0.4,0.6-0.6,0.8c-0.2,0.3-0.5,0.4-0.7,0.6c-0.3,0.2-0.6,0.4-0.8,0.5l0,0c-0.1,0-0.2,0.1-0.2,0.1s-0.1,0-0.1,0.1
		c0.3,0.2,0.7,0.4,1.1,0.6c0.3,0.2,0.6,0.5,0.9,0.7c0.3,0.3,0.5,0.6,0.7,1s0.3,0.8,0.3,1.2c0,0.5-0.1,1-0.3,1.4
		c-0.2,0.4-0.5,0.8-0.9,1.1s-0.8,0.5-1.3,0.7s-1.1,0.3-1.6,0.3s-0.9-0.1-1.4-0.2c-0.5-0.1-0.9-0.3-1.3-0.6c-0.4-0.3-0.7-0.6-0.9-1
		c-0.3-0.4-0.3-0.9-0.3-1.5c0-0.3,0.1-0.7,0.3-1c0.1-0.3,0.4-0.6,0.7-0.9c0.3-0.3,0.5-0.5,0.9-0.8c0.3-0.3,0.6-0.5,1-0.7
		c-0.3-0.1-0.6-0.3-0.8-0.5c-0.3-0.2-0.5-0.4-0.7-0.6c-0.2-0.2-0.4-0.5-0.5-0.8s-0.2-0.6-0.2-1v-0.1c0-0.5,0.1-0.9,0.3-1.3
		c0.2-0.4,0.4-0.7,0.8-1c0.3-0.3,0.8-0.5,1.2-0.6c0.5-0.1,0.9-0.2,1.5-0.2c0.4,0,0.9,0.1,1.3,0.2c0.4,0.1,0.8,0.3,1.1,0.6
		c0.3,0.3,0.5,0.6,0.8,0.9C17,3019.1,17.1,3019.5,17.1,3020z M16,3026.9c0-0.3-0.1-0.7-0.2-1.1c-0.1-0.3-0.3-0.6-0.5-0.9
		c-0.3-0.3-0.5-0.5-0.8-0.7s-0.7-0.3-1-0.5c-0.3,0.1-0.6,0.3-0.9,0.4c-0.4,0.2-0.6,0.4-0.9,0.6c-0.3,0.3-0.5,0.6-0.7,0.9
		c-0.2,0.4-0.3,0.8-0.3,1.3c0,0.4,0.1,0.8,0.3,1.1s0.4,0.6,0.7,0.8c0.2,0.2,0.6,0.3,0.9,0.4c0.3,0.1,0.7,0.1,1,0.1s0.7,0,1-0.2
		c0.3-0.1,0.5-0.3,0.8-0.5c0.2-0.2,0.4-0.4,0.5-0.8C15.9,3027.6,16,3027.3,16,3026.9z M11.4,3020c0,0.6,0.2,1.2,0.5,1.6
		c0.3,0.5,0.8,0.8,1.5,1.1c0.3-0.1,0.6-0.3,0.9-0.4c0.3-0.1,0.5-0.4,0.8-0.6c0.2-0.2,0.4-0.4,0.6-0.7c0.1-0.3,0.2-0.6,0.2-0.9
		c0-0.3,0-0.5-0.1-0.8s-0.3-0.5-0.4-0.7c-0.2-0.2-0.5-0.4-0.8-0.5s-0.7-0.2-1.2-0.2c-0.3,0-0.6,0.1-0.8,0.2
		c-0.3,0.1-0.5,0.3-0.7,0.5s-0.3,0.4-0.4,0.7C11.5,3019.5,11.4,3019.8,11.4,3020z"/>
</g>
<g>
	<path class="st0" d="M3.2,4023.5c0-2.8,1-5.2,3-7.2s4.4-3,7.3-3s5.2,1,7.2,3s3,4.4,3,7.2s-1,5.2-3,7.2s-4.4,3-7.2,3s-5.3-1-7.3-3
		S3.2,4026.3,3.2,4023.5z M22.8,4023.5c0-2.6-0.9-4.8-2.7-6.7c-1.8-1.8-4-2.7-6.5-2.7s-4.7,0.9-6.5,2.7s-2.7,4.1-2.7,6.7
		c0,2.6,0.9,4.9,2.7,6.7s4,2.7,6.5,2.7s4.7-0.9,6.5-2.7C21.8,4028.4,22.8,4026.1,22.8,4023.5z M17.1,4020c0,0.4-0.1,0.7-0.2,1
		c-0.2,0.3-0.4,0.6-0.6,0.8c-0.2,0.3-0.5,0.4-0.7,0.6c-0.3,0.2-0.6,0.4-0.8,0.5l0,0c-0.1,0-0.2,0.1-0.2,0.1s-0.1,0-0.1,0.1
		c0.3,0.2,0.7,0.4,1.1,0.6c0.3,0.2,0.6,0.5,0.9,0.7c0.3,0.3,0.5,0.6,0.7,1s0.3,0.8,0.3,1.2c0,0.5-0.1,1-0.3,1.4
		c-0.2,0.4-0.5,0.8-0.9,1.1s-0.8,0.5-1.3,0.7s-1.1,0.3-1.6,0.3s-0.9-0.1-1.4-0.2c-0.5-0.1-0.9-0.3-1.3-0.6c-0.4-0.3-0.7-0.6-0.9-1
		c-0.3-0.4-0.3-0.9-0.3-1.5c0-0.3,0.1-0.7,0.3-1c0.1-0.3,0.4-0.6,0.7-0.9c0.3-0.3,0.5-0.5,0.9-0.8c0.3-0.3,0.6-0.5,1-0.7
		c-0.3-0.1-0.6-0.3-0.8-0.5c-0.3-0.2-0.5-0.4-0.7-0.6c-0.2-0.2-0.4-0.5-0.5-0.8s-0.2-0.6-0.2-1v-0.1c0-0.5,0.1-0.9,0.3-1.3
		c0.2-0.4,0.4-0.7,0.8-1c0.3-0.3,0.8-0.5,1.2-0.6c0.5-0.1,0.9-0.2,1.5-0.2c0.4,0,0.9,0.1,1.3,0.2c0.4,0.1,0.8,0.3,1.1,0.6
		c0.3,0.3,0.5,0.6,0.8,0.9C17,4019.1,17.1,4019.5,17.1,4020z M16,4026.9c0-0.3-0.1-0.7-0.2-1.1c-0.1-0.3-0.3-0.6-0.5-0.9
		c-0.3-0.3-0.5-0.5-0.8-0.7s-0.7-0.3-1-0.5c-0.3,0.1-0.6,0.3-0.9,0.4c-0.4,0.2-0.6,0.4-0.9,0.6c-0.3,0.3-0.5,0.6-0.7,0.9
		c-0.2,0.4-0.3,0.8-0.3,1.3c0,0.4,0.1,0.8,0.3,1.1s0.4,0.6,0.7,0.8c0.2,0.2,0.6,0.3,0.9,0.4c0.3,0.1,0.7,0.1,1,0.1s0.7,0,1-0.2
		c0.3-0.1,0.5-0.3,0.8-0.5c0.2-0.2,0.4-0.4,0.5-0.8C15.9,4027.6,16,4027.3,16,4026.9z M11.4,4020c0,0.6,0.2,1.2,0.5,1.6
		c0.3,0.5,0.8,0.8,1.5,1.1c0.3-0.1,0.6-0.3,0.9-0.4c0.3-0.1,0.5-0.4,0.8-0.6c0.2-0.2,0.4-0.4,0.6-0.7c0.1-0.3,0.2-0.6,0.2-0.9
		c0-0.3,0-0.5-0.1-0.8s-0.3-0.5-0.4-0.7c-0.2-0.2-0.5-0.4-0.8-0.5s-0.7-0.2-1.2-0.2c-0.3,0-0.6,0.1-0.8,0.2
		c-0.3,0.1-0.5,0.3-0.7,0.5s-0.3,0.4-0.4,0.7C11.5,4019.5,11.4,4019.8,11.4,4020z"/>
</g>
<g>
	<path class="st0" d="M3.2,5023.5c0-2.8,1-5.2,3-7.2s4.4-3,7.3-3s5.2,1,7.2,3s3,4.4,3,7.2c0,2.8-1,5.2-3,7.2s-4.4,3-7.2,3
		s-5.3-1-7.3-3S3.2,5026.3,3.2,5023.5z M22.8,5023.5c0-2.6-0.9-4.8-2.7-6.7c-1.8-1.8-4-2.7-6.5-2.7s-4.7,0.9-6.5,2.7
		c-1.8,1.8-2.7,4.1-2.7,6.7s0.9,4.9,2.7,6.7c1.8,1.8,4,2.7,6.5,2.7s4.7-0.9,6.5-2.7C21.8,5028.4,22.8,5026.1,22.8,5023.5z
		 M17.1,5020c0,0.4-0.1,0.7-0.2,1c-0.2,0.3-0.4,0.6-0.6,0.8c-0.2,0.3-0.5,0.4-0.7,0.6c-0.3,0.2-0.6,0.4-0.8,0.5l0,0
		c-0.1,0-0.2,0.1-0.2,0.1s-0.1,0-0.1,0.1c0.3,0.2,0.7,0.4,1.1,0.6c0.3,0.2,0.6,0.5,0.9,0.7c0.3,0.3,0.5,0.6,0.7,1s0.3,0.8,0.3,1.2
		c0,0.5-0.1,1-0.3,1.4c-0.2,0.4-0.5,0.8-0.9,1.1c-0.4,0.3-0.8,0.5-1.3,0.7s-1.1,0.3-1.6,0.3s-0.9-0.1-1.4-0.2s-0.9-0.3-1.3-0.6
		c-0.4-0.3-0.7-0.6-0.9-1c-0.3-0.4-0.3-0.9-0.3-1.5c0-0.3,0.1-0.7,0.3-1c0.1-0.3,0.4-0.6,0.7-0.9s0.5-0.5,0.9-0.8
		c0.3-0.3,0.6-0.5,1-0.7c-0.3-0.1-0.6-0.3-0.8-0.5c-0.3-0.2-0.5-0.4-0.7-0.6s-0.4-0.5-0.5-0.8s-0.2-0.6-0.2-1v-0.1
		c0-0.5,0.1-0.9,0.3-1.3s0.4-0.7,0.8-1c0.3-0.3,0.8-0.5,1.2-0.6c0.5-0.1,0.9-0.2,1.5-0.2c0.4,0,0.9,0.1,1.3,0.2
		c0.4,0.1,0.8,0.3,1.1,0.6c0.3,0.3,0.5,0.6,0.8,0.9C17,5019.1,17.1,5019.5,17.1,5020z M16,5026.9c0-0.3-0.1-0.7-0.2-1.1
		c-0.1-0.3-0.3-0.6-0.5-0.9c-0.3-0.3-0.5-0.5-0.8-0.7s-0.7-0.3-1-0.5c-0.3,0.1-0.6,0.3-0.9,0.4c-0.4,0.2-0.6,0.4-0.9,0.6
		c-0.3,0.3-0.5,0.6-0.7,0.9c-0.2,0.4-0.3,0.8-0.3,1.3c0,0.4,0.1,0.8,0.3,1.1c0.2,0.3,0.4,0.6,0.7,0.8c0.2,0.2,0.6,0.3,0.9,0.4
		c0.3,0.1,0.7,0.1,1,0.1s0.7,0,1-0.2c0.3-0.1,0.5-0.3,0.8-0.5c0.2-0.2,0.4-0.4,0.5-0.8C15.9,5027.6,16,5027.3,16,5026.9z M11.4,5020
		c0,0.6,0.2,1.2,0.5,1.6c0.3,0.5,0.8,0.8,1.5,1.1c0.3-0.1,0.6-0.3,0.9-0.4c0.3-0.1,0.5-0.4,0.8-0.6c0.2-0.2,0.4-0.4,0.6-0.7
		c0.1-0.3,0.2-0.6,0.2-0.9s0-0.5-0.1-0.8s-0.3-0.5-0.4-0.7c-0.2-0.2-0.5-0.4-0.8-0.5s-0.7-0.2-1.2-0.2c-0.3,0-0.6,0.1-0.8,0.2
		c-0.3,0.1-0.5,0.3-0.7,0.5s-0.3,0.4-0.4,0.7C11.5,5019.5,11.4,5019.8,11.4,5020z"/>
</g>
<g>
	<path class="st0" d="M3.2,6223.5c0-2.8,1-5.2,3-7.2s4.4-3,7.3-3s5.2,1,7.2,3s3,4.4,3,7.2c0,2.8-1,5.2-3,7.2s-4.4,3-7.2,3
		s-5.3-1-7.3-3S3.2,6226.3,3.2,6223.5z M22.8,6223.5c0-2.6-0.9-4.8-2.7-6.7c-1.8-1.8-4-2.7-6.5-2.7s-4.7,0.9-6.5,2.7
		c-1.8,1.8-2.7,4.1-2.7,6.7s0.9,4.9,2.7,6.7c1.8,1.8,4,2.7,6.5,2.7s4.7-0.9,6.5-2.7C21.8,6228.4,22.8,6226.1,22.8,6223.5z
		 M17.1,6220c0,0.4-0.1,0.7-0.2,1c-0.2,0.3-0.4,0.6-0.6,0.8c-0.2,0.3-0.5,0.4-0.7,0.6c-0.3,0.2-0.6,0.4-0.8,0.5l0,0
		c-0.1,0-0.2,0.1-0.2,0.1s-0.1,0-0.1,0.1c0.3,0.2,0.7,0.4,1.1,0.6c0.3,0.2,0.6,0.5,0.9,0.7c0.3,0.3,0.5,0.6,0.7,1s0.3,0.8,0.3,1.2
		c0,0.5-0.1,1-0.3,1.4c-0.2,0.4-0.5,0.8-0.9,1.1c-0.4,0.3-0.8,0.5-1.3,0.7s-1.1,0.3-1.6,0.3s-0.9-0.1-1.4-0.2s-0.9-0.3-1.3-0.6
		c-0.4-0.3-0.7-0.6-0.9-1c-0.3-0.4-0.3-0.9-0.3-1.5c0-0.3,0.1-0.7,0.3-1c0.1-0.3,0.4-0.6,0.7-0.9s0.5-0.5,0.9-0.8
		c0.3-0.3,0.6-0.5,1-0.7c-0.3-0.1-0.6-0.3-0.8-0.5c-0.3-0.2-0.5-0.4-0.7-0.6s-0.4-0.5-0.5-0.8s-0.2-0.6-0.2-1v-0.1
		c0-0.5,0.1-0.9,0.3-1.3s0.4-0.7,0.8-1c0.3-0.3,0.8-0.5,1.2-0.6c0.5-0.1,0.9-0.2,1.5-0.2c0.4,0,0.9,0.1,1.3,0.2
		c0.4,0.1,0.8,0.3,1.1,0.6c0.3,0.3,0.5,0.6,0.8,0.9C17,6219.1,17.1,6219.5,17.1,6220z M16,6226.9c0-0.3-0.1-0.7-0.2-1.1
		c-0.1-0.3-0.3-0.6-0.5-0.9c-0.3-0.3-0.5-0.5-0.8-0.7s-0.7-0.3-1-0.5c-0.3,0.1-0.6,0.3-0.9,0.4c-0.4,0.2-0.6,0.4-0.9,0.6
		c-0.3,0.3-0.5,0.6-0.7,0.9c-0.2,0.4-0.3,0.8-0.3,1.3c0,0.4,0.1,0.8,0.3,1.1c0.2,0.3,0.4,0.6,0.7,0.8c0.2,0.2,0.6,0.3,0.9,0.4
		c0.3,0.1,0.7,0.1,1,0.1s0.7,0,1-0.2c0.3-0.1,0.5-0.3,0.8-0.5c0.2-0.2,0.4-0.4,0.5-0.8C15.9,6227.6,16,6227.3,16,6226.9z M11.4,6220
		c0,0.6,0.2,1.2,0.5,1.6c0.3,0.5,0.8,0.8,1.5,1.1c0.3-0.1,0.6-0.3,0.9-0.4c0.3-0.1,0.5-0.4,0.8-0.6c0.2-0.2,0.4-0.4,0.6-0.7
		c0.1-0.3,0.2-0.6,0.2-0.9s0-0.5-0.1-0.8s-0.3-0.5-0.4-0.7c-0.2-0.2-0.5-0.4-0.8-0.5s-0.7-0.2-1.2-0.2c-0.3,0-0.6,0.1-0.8,0.2
		c-0.3,0.1-0.5,0.3-0.7,0.5s-0.3,0.4-0.4,0.7C11.5,6219.5,11.4,6219.8,11.4,6220z"/>
</g>
<g>
	<polygon class="st1" points="13.2,1030.3 5.5,1022.9 7.6,1020.7 12.9,1025.9 21.9,1014.5 24.2,1016.4 	"/>
</g>
<g>
	<polygon points="13.2,2030.3 5.5,2022.9 7.6,2020.7 12.9,2025.9 21.9,2014.5 24.2,2016.4 	"/>
</g>
<rect x="2" y="9034" width="23" height="23"/>
<g>
	<polygon points="13.2,9052.3 5.5,9044.9 7.6,9042.7 12.9,9047.9 21.9,9036.5 24.2,9038.4 	"/>
</g>
<g>
	<path class="st0" d="M3.2,9045.5c0-2.8,1-5.2,3-7.2s4.4-3,7.3-3s5.2,1,7.2,3s3,4.4,3,7.2s-1,5.2-3,7.2s-4.4,3-7.2,3s-5.3-1-7.3-3
		S3.2,9048.3,3.2,9045.5z M22.8,9045.5c0-2.6-0.9-4.8-2.7-6.7c-1.8-1.8-4-2.7-6.5-2.7s-4.7,0.9-6.5,2.7s-2.7,4.1-2.7,6.7
		s0.9,4.9,2.7,6.7s4,2.7,6.5,2.7s4.7-0.9,6.5-2.7C21.8,9050.4,22.8,9048.1,22.8,9045.5z M17.1,9042c0,0.4-0.1,0.7-0.2,1
		c-0.2,0.3-0.4,0.6-0.6,0.8c-0.2,0.3-0.5,0.4-0.7,0.6c-0.3,0.2-0.6,0.4-0.8,0.5l0,0c-0.1,0-0.2,0.1-0.2,0.1s-0.1,0-0.1,0.1
		c0.3,0.2,0.7,0.4,1.1,0.6c0.3,0.2,0.6,0.5,0.9,0.7c0.3,0.3,0.5,0.6,0.7,1c0.2,0.4,0.3,0.8,0.3,1.2c0,0.5-0.1,1-0.3,1.4
		c-0.2,0.4-0.5,0.8-0.9,1.1c-0.4,0.3-0.8,0.5-1.3,0.7s-1.1,0.3-1.6,0.3s-0.9-0.1-1.4-0.2c-0.5-0.1-0.9-0.3-1.3-0.6
		c-0.4-0.3-0.7-0.6-0.9-1c-0.3-0.4-0.3-0.9-0.3-1.5c0-0.3,0.1-0.7,0.3-1c0.1-0.3,0.4-0.6,0.7-0.9c0.3-0.3,0.5-0.5,0.9-0.8
		c0.3-0.3,0.6-0.5,1-0.7c-0.3-0.1-0.6-0.3-0.8-0.5c-0.3-0.2-0.5-0.4-0.7-0.6s-0.4-0.5-0.5-0.8s-0.2-0.6-0.2-1v-0.1
		c0-0.5,0.1-0.9,0.3-1.3c0.2-0.4,0.4-0.7,0.8-1c0.3-0.3,0.8-0.5,1.2-0.6c0.5-0.1,0.9-0.2,1.5-0.2c0.4,0,0.9,0.1,1.3,0.2
		c0.4,0.1,0.8,0.3,1.1,0.6c0.3,0.3,0.5,0.6,0.8,0.9C17,9041.1,17.1,9041.5,17.1,9042z M16,9048.9c0-0.3-0.1-0.7-0.2-1.1
		c-0.1-0.3-0.3-0.6-0.5-0.9c-0.3-0.3-0.5-0.5-0.8-0.7s-0.7-0.3-1-0.5c-0.3,0.1-0.6,0.3-0.9,0.4c-0.4,0.2-0.6,0.4-0.9,0.6
		c-0.3,0.3-0.5,0.6-0.7,0.9c-0.2,0.4-0.3,0.8-0.3,1.3c0,0.4,0.1,0.8,0.3,1.1s0.4,0.6,0.7,0.8c0.2,0.2,0.6,0.3,0.9,0.4
		c0.3,0.1,0.7,0.1,1,0.1s0.7,0,1-0.2c0.3-0.1,0.5-0.3,0.8-0.5c0.2-0.2,0.4-0.4,0.5-0.8C15.9,9049.6,16,9049.3,16,9048.9z M11.4,9042
		c0,0.6,0.2,1.2,0.5,1.6c0.3,0.5,0.8,0.8,1.5,1.1c0.3-0.1,0.6-0.3,0.9-0.4c0.3-0.1,0.5-0.4,0.8-0.6c0.2-0.2,0.4-0.4,0.6-0.7
		c0.1-0.3,0.2-0.6,0.2-0.9c0-0.3,0-0.5-0.1-0.8s-0.3-0.5-0.4-0.7c-0.2-0.2-0.5-0.4-0.8-0.5c-0.3-0.1-0.7-0.2-1.2-0.2
		c-0.3,0-0.6,0.1-0.8,0.2c-0.3,0.1-0.5,0.3-0.7,0.5c-0.2,0.2-0.3,0.4-0.4,0.7C11.5,9041.5,11.4,9041.8,11.4,9042z"/>
</g>
<g>
	<polygon class="st5" points="13.2,9052.3 5.5,9044.9 7.6,9042.7 12.9,9047.9 21.9,9036.5 24.2,9038.4 	"/>
</g>
<g>
	<polygon class="st2" points="13.2,3030.3 5.5,3022.9 7.6,3020.7 12.9,3025.9 21.9,3014.5 24.2,3016.4 	"/>
</g>
<g>
	<polygon class="st3" points="13.2,4030.3 5.5,4022.9 7.6,4020.7 12.9,4025.9 21.9,4014.5 24.2,4016.4 	"/>
</g>
<g>
	<polygon class="st4" points="13.2,5030.3 5.5,5022.9 7.6,5020.7 12.9,5025.9 21.9,5014.5 24.2,5016.4 	"/>
</g>
<path class="st1" d="M18.1,6226.5c0-2,0-1.8,0-3.7h-1.5c0-1.3,0.1-2.5-0.3-3.4c-0.4-0.7-1.1-1.4-1.9-1.6c-1.6-0.4-3,0.6-3.6,1.6
	c-0.5,0.9-0.3,2.1-0.3,3.3c-0.5,0-0.9,0-1.5,0c0,0.8,0,1.4,0,2.9c0,2-0.3,3.1,1.1,3.6c0.9,0.3,2.6,0.1,3.6,0.1
	c1.1,0,2.7,0.2,3.6-0.1C18.2,6228.9,18.1,6227.8,18.1,6226.5z M15.3,6222.8c-0.6,0-1.3,0-1.9,0c-0.5,0-1,0-1.6,0
	c-0.1-1.8-0.1-3.3,1.3-3.7c0.9-0.2,1.7,0.3,2,1.1C15.4,6220.9,15.2,6221.8,15.3,6222.8z"/>
</svg>
