<?xml version="1.0" encoding="utf-8"?>
<!-- Generator: Adobe Illustrator 23.0.1, SVG Export Plug-In . SVG Version: 6.00 Build 0)  -->
<svg version="1.1" id="Layer_1" xmlns="http://www.w3.org/2000/svg" xmlns:xlink="http://www.w3.org/1999/xlink" x="0px" y="0px"
	 viewBox="0 0 50 10200" width="50px" height="10200px" style="enable-background:new 0 0 50 10200; fill:transparent;" xml:space="preserve">
<style type="text/css">
	.st0{fill:#008D36;}
	.st1{fill:#CCCCCC;}
	.st2{fill:#FFD646;}
	.st3{fill:#E30613;}
</style>
<rect x="2" y="1012" width="23" height="23"/>
<rect x="2" y="2012" width="23" height="23"/>
<rect x="2" y="3012" width="23" height="23"/>
<rect x="2" y="4012" width="23" height="23"/>
<rect x="2" y="5012" width="23" height="23"/>
<rect x="2" y="6012" width="23" height="23"/>
<rect x="2" y="12" width="23" height="23"/>
<path class="st0" d="M37,6049.5c0-5.1,0-4.5,0-9.4h-3.8c0-3.3,0.3-6.3-0.8-8.6c-1-1.8-2.8-3.5-4.8-4c-4-1-7.6,1.5-9.1,4
	c-1.3,2.3-0.8,5.3-0.8,8.3c-1.3,0-2.3,0-3.8,0c0,2,0,3.5,0,7.3c0,5.1-0.8,7.8,2.8,9.1c2.3,0.8,6.6,0.3,9.1,0.3
	c2.8,0,6.8,0.5,9.1-0.3C37.2,6055.6,37,6052.8,37,6049.5z M29.9,6040.2c-1.5,0-3.3,0-4.8,0c-1.3,0-2.5,0-4,0
	c-0.3-4.5-0.3-8.3,3.3-9.4c2.3-0.5,4.3,0.8,5.1,2.8C30.2,6035.4,29.7,6037.7,29.9,6040.2z"/>
<rect x="2" y="1012" width="23" height="23"/>
<rect x="2" y="2012" width="23" height="23"/>
<rect x="2" y="3012" width="23" height="23"/>
<rect x="2" y="4012" width="23" height="23"/>
<rect x="2" y="5012" width="23" height="23"/>
<rect x="2" y="6012" width="23" height="23"/>
<rect x="2" y="12" width="23" height="23"/>
<path class="st1" d="M37,6049.5c0-5.1,0-4.5,0-9.4h-3.8c0-3.3,0.3-6.3-0.8-8.6c-1-1.8-2.8-3.5-4.8-4c-4-1-7.6,1.5-9.1,4
	c-1.3,2.3-0.8,5.3-0.8,8.3c-1.3,0-2.3,0-3.8,0c0,2,0,3.5,0,7.3c0,5.1-0.8,7.8,2.8,9.1c2.3,0.8,6.6,0.3,9.1,0.3
	c2.8,0,6.8,0.5,9.1-0.3C37.2,6055.6,37,6052.8,37,6049.5z M29.9,6040.2c-1.5,0-3.3,0-4.8,0c-1.3,0-2.5,0-4,0
	c-0.3-4.5-0.3-8.3,3.3-9.4c2.3-0.5,4.3,0.8,5.1,2.8C30.2,6035.4,29.7,6037.7,29.9,6040.2z"/>
<path class="st2" d="M25.8,2028l14.4,24.8H10.8L25.8,2028 M25.8,2022.1l-2.6,4.3l-15,24.8l-2.7,4.6h5.3h29.4h5.2l-2.6-4.5
	l-14.4-24.8L25.8,2022.1L25.8,2022.1z"/>
<rect x="2" y="9021" width="23" height="23"/>
<rect x="2" y="9021" width="23" height="23"/>
<path class="st2" d="M25.8,9037l14.4,24.8H10.8L25.8,9037 M25.8,9031.1l-2.6,4.3l-15,24.8l-2.7,4.6h5.3h29.4h5.2l-2.6-4.5
	l-14.4-24.8L25.8,9031.1L25.8,9031.1z"/>
<path class="st2" d="M25.8,3028l14.4,24.8H10.8L25.8,3028 M25.8,3022.1l-2.6,4.3l-15,24.8l-2.7,4.6h5.3h29.4h5.2l-2.6-4.5
	l-14.4-24.8L25.8,3022.1L25.8,3022.1z"/>
<path class="st3" d="M25.8,4028l14.4,24.8H10.8L25.8,4028 M25.8,4022.1l-2.6,4.3l-15,24.8l-2.7,4.6h5.3h29.4h5.2l-2.6-4.5
	l-14.4-24.8L25.8,4022.1L25.8,4022.1z"/>
<path class="st0" d="M25.8,5028l14.4,24.8H10.8L25.8,5028 M25.8,5022.1l-2.6,4.3l-15,24.8l-2.7,4.6h5.3h29.4h5.2l-2.6-4.5
	l-14.4-24.8L25.8,5022.1L25.8,5022.1z"/>
</svg>
