<svg xmlns="http://www.w3.org/2000/svg" width="115.339" height="112.619" viewBox="0 0 115.339 112.619">
  <g id="그룹_2205" data-name="그룹 2205" transform="translate(2 0.959)">
    <path id="패스_5809" data-name="패스 5809" d="M3.5,72.372V36.82l14.6-3.232L44.369,4.5v96.96L18.1,72.372Z" transform="translate(2.419 2.369)" fill="#2e63b5"/>
    <path id="패스_5810" data-name="패스 5810" d="M73.061,29.494a31.775,31.775,0,0,1,8.595,11.4,35.433,35.433,0,0,1,0,28.908,31.77,31.77,0,0,1-8.595,11.4M20.515,74.742H8.838A5.566,5.566,0,0,1,4.71,72.849,6.831,6.831,0,0,1,3,68.278V42.422a6.832,6.832,0,0,1,1.71-4.571,5.567,5.567,0,0,1,4.128-1.893H20.515L40.95,6.871A4.886,4.886,0,0,1,43.34,4.448a4.25,4.25,0,0,1,3.239-.117,4.793,4.793,0,0,1,2.527,2.245,5.64,5.64,0,0,1,.6,3.526v90.5a5.641,5.641,0,0,1-.6,3.526,4.794,4.794,0,0,1-2.527,2.245,4.248,4.248,0,0,1-3.239-.117,4.884,4.884,0,0,1-2.391-2.422Z" fill="none" stroke="#2e63b5" stroke-linecap="round" stroke-linejoin="round" stroke-width="10"/>
    <path id="패스_5811" data-name="패스 5811" d="M17.7,5A57.653,57.653,0,0,1,32.088,25.176a63.415,63.415,0,0,1,5.13,25.072,63.416,63.416,0,0,1-5.13,25.072A57.655,57.655,0,0,1,17.7,95.5" transform="translate(71.121 5.101)" fill="none" stroke="#2e63b5" stroke-linecap="round" stroke-linejoin="round" stroke-width="10"/>
  </g>
</svg>
