<svg width="32" height="32" viewBox="0 0 32 32" fill="none" xmlns="http://www.w3.org/2000/svg">
<rect x="0.75" y="0.75" width="30.5" height="30.5" rx="15.25" fill="white"/>
<rect x="0.75" y="0.75" width="30.5" height="30.5" rx="15.25" stroke="#1E78FF" stroke-width="1.5"/>
<g clip-path="url(#clip0_473_22577)">
<path d="M13.7156 9.33398H12.1918C11.7876 9.33398 11.4001 9.50958 11.1143 9.82214C10.8285 10.1347 10.668 10.5586 10.668 11.0007V21.0007C10.668 21.4427 10.8285 21.8666 11.1143 22.1792C11.4001 22.4917 11.7876 22.6673 12.1918 22.6673H13.7156C14.1197 22.6673 14.5073 22.4917 14.7931 22.1792C15.0789 21.8666 15.2394 21.4427 15.2394 21.0007V11.0007C15.2394 10.5586 15.0789 10.1347 14.7931 9.82214C14.5073 9.50958 14.1197 9.33398 13.7156 9.33398Z" fill="#1E78FF"/>
<path d="M19.8108 9.33398H18.287C17.8829 9.33398 17.4953 9.50958 17.2095 9.82214C16.9238 10.1347 16.7632 10.5586 16.7632 11.0007V21.0007C16.7632 21.4427 16.9238 21.8666 17.2095 22.1792C17.4953 22.4917 17.8829 22.6673 18.287 22.6673H19.8108C20.215 22.6673 20.6026 22.4917 20.8883 22.1792C21.1741 21.8666 21.3346 21.4427 21.3346 21.0007V11.0007C21.3346 10.5586 21.1741 10.1347 20.8883 9.82214C20.6026 9.50958 20.215 9.33398 19.8108 9.33398Z" fill="#1E78FF"/>
<path d="M13.7156 9.33398H12.1918C11.7876 9.33398 11.4001 9.50958 11.1143 9.82214C10.8285 10.1347 10.668 10.5586 10.668 11.0007V21.0007C10.668 21.4427 10.8285 21.8666 11.1143 22.1792C11.4001 22.4917 11.7876 22.6673 12.1918 22.6673H13.7156C14.1197 22.6673 14.5073 22.4917 14.7931 22.1792C15.0789 21.8666 15.2394 21.4427 15.2394 21.0007V11.0007C15.2394 10.5586 15.0789 10.1347 14.7931 9.82214C14.5073 9.50958 14.1197 9.33398 13.7156 9.33398Z" stroke="#1E78FF"/>
<path d="M19.8108 9.33398H18.287C17.8829 9.33398 17.4953 9.50958 17.2095 9.82214C16.9238 10.1347 16.7632 10.5586 16.7632 11.0007V21.0007C16.7632 21.4427 16.9238 21.8666 17.2095 22.1792C17.4953 22.4917 17.8829 22.6673 18.287 22.6673H19.8108C20.215 22.6673 20.6026 22.4917 20.8883 22.1792C21.1741 21.8666 21.3346 21.4427 21.3346 21.0007V11.0007C21.3346 10.5586 21.1741 10.1347 20.8883 9.82214C20.6026 9.50958 20.215 9.33398 19.8108 9.33398Z" stroke="#1E78FF"/>
</g>
<defs>
<clipPath id="clip0_473_22577">
<rect width="13.3333" height="13.3333" fill="white" transform="translate(9.33398 9.33398)"/>
</clipPath>
</defs>
</svg>
