<svg xmlns="http://www.w3.org/2000/svg" width="17.246" height="15.592" viewBox="0 0 17.246 15.592">
  <g id="icon-sound" transform="translate(1 1.003)">
    <g id="그룹_2238" data-name="그룹 2238" transform="translate(0 -15.221)">
      <path id="패스_5809" data-name="패스 5809" d="M3.5,13.49V8.781l2.14-.428L9.493,4.5V17.342L5.64,13.49Z" transform="translate(-3.072 11.092)" fill="#1e6efa"/>
      <path id="패스_5810" data-name="패스 5810" d="M13.274,7.434a4.281,4.281,0,0,1,0,6.849m-7.705-.856H3.856A.856.856,0,0,1,3,12.571V9.147a.856.856,0,0,1,.856-.856H5.568l3-3.853a.685.685,0,0,1,1.284.428V16.852a.685.685,0,0,1-1.284.428Z" transform="translate(-3 11.154)" fill="none" stroke="#1e6efa" stroke-linecap="round" stroke-linejoin="round" stroke-width="2"/>
      <path id="패스_5811" data-name="패스 5811" d="M17.7,5a7.705,7.705,0,0,1,0,11.986" transform="translate(-5.115 11.02)" fill="none" stroke="#1e6efa" stroke-linecap="round" stroke-linejoin="round" stroke-width="1.6"/>
    </g>
  </g>
</svg>
